<svg width="377" height="185" viewBox="0 0 377 185" fill="none" xmlns="http://www.w3.org/2000/svg">
<rect width="377" height="185" rx="12" fill="white"/>
<rect x="27" y="53" width="103" height="79" rx="12" fill="#9FF6D3"/>
<rect x="138" y="53" width="103" height="79" rx="12" fill="#9FF6D3"/>
<rect x="248" y="53" width="103" height="79" rx="12" fill="#9FF6D3"/>
<path d="M314.089 87.2471L312.954 85.2811L312.808 85.0586C312.044 84.004 310.56 83.6473 309.326 84.3274L311.781 88.5795C312.307 89.4908 311.993 90.6571 311.081 91.1842C310.168 91.7105 309.001 91.3993 308.474 90.4887L301.288 78.0418C301.036 77.6044 300.621 77.2841 300.132 77.1535C299.644 77.0231 299.121 77.0931 298.682 77.3463C298.244 77.5995 297.924 78.0165 297.792 78.5046C297.661 78.9929 297.729 79.5136 297.981 79.951L309.104 99.2154C309.494 99.8905 309.432 100.735 308.948 101.348C308.465 101.961 307.658 102.218 306.91 101.998L302.055 100.569C301.789 100.504 301.512 100.493 301.241 100.538C300.964 100.583 300.699 100.687 300.463 100.841C300.227 100.995 300.025 101.196 299.872 101.432C299.719 101.666 299.612 101.929 299.566 102.204L299.569 102.205C299.501 102.627 299.577 103.06 299.784 103.433C299.94 103.713 300.163 103.947 300.431 104.116L300.715 104.265L311.305 108.702C313.783 109.739 314.763 110.138 315.736 110.315C317.301 110.599 318.913 110.493 320.429 110.006C321.378 109.701 322.314 109.173 324.664 107.816C326.855 106.551 328.422 105.644 329.615 104.851C330.796 104.067 331.503 103.465 332.007 102.849L332.008 102.845C332.857 101.811 333.481 100.61 333.836 99.3204C334.191 98.0328 334.27 96.6857 334.071 95.3662L333.948 94.7665C333.786 94.1424 333.504 93.4262 333.042 92.4908C332.418 91.2289 331.527 89.6872 330.28 87.5279L327.475 82.6699C327.155 82.1247 326.652 81.7101 326.054 81.5019C325.457 81.294 324.806 81.3054 324.215 81.5326L324.203 81.5367L323.392 81.8418L324.543 83.8357C325.069 84.747 324.755 85.9132 323.842 86.4404C322.929 86.9676 321.762 86.6562 321.236 85.7449L320.1 83.7767L319.954 83.5543C319.18 82.4863 317.665 82.1315 316.423 82.8483L316.075 83.0496L317.396 85.3379C317.921 86.2488 317.607 87.4152 316.695 87.9426C315.782 88.4697 314.615 88.158 314.089 87.2471ZM307.421 81.0272C309.126 80.062 311.093 79.9338 312.815 80.5312L314.518 79.548C316.252 78.5467 318.264 78.4201 320.014 79.0447L322.842 77.9765L322.844 77.9752C324.28 77.4221 325.866 77.3966 327.317 77.9022C328.464 78.3016 329.462 79.0166 330.216 79.95C330.344 80.0719 330.462 80.2071 330.555 80.3675L333.587 85.6187C334.809 87.7355 335.772 89.4015 336.463 90.7993C337.16 92.2109 337.641 93.4651 337.843 94.7809L337.846 94.7852C338.126 96.6346 338.012 98.523 337.515 100.328C337.017 102.133 336.146 103.815 334.956 105.263L334.953 105.262C334.106 106.295 333.052 107.144 331.725 108.025C330.409 108.899 328.719 109.875 326.569 111.116C324.366 112.388 323.022 113.176 321.591 113.635C319.477 114.314 317.228 114.462 315.045 114.065C313.569 113.797 312.146 113.19 309.825 112.218L299.235 107.781L299.236 107.778C298.054 107.283 297.07 106.409 296.448 105.291C295.825 104.171 295.596 102.874 295.8 101.608L295.802 101.601C295.933 100.8 296.231 100.036 296.675 99.3552C297.119 98.6748 297.699 98.0932 298.38 97.6491C299.06 97.2051 299.826 96.9073 300.628 96.7751C301.429 96.6431 302.248 96.6792 303.034 96.8812C303.055 96.8866 303.078 96.8922 303.099 96.8984L303.409 96.9885L294.675 81.8602C293.917 80.5475 293.713 78.9863 294.107 77.5211C294.501 76.056 295.462 74.8056 296.777 74.046C298.092 73.2865 299.657 73.079 301.123 73.4703C302.589 73.8618 303.837 74.82 304.595 76.1326L307.421 81.0272Z" fill="#FCFBF3"/>
</svg>
