<svg width="377" height="185" viewBox="0 0 377 185" fill="none" xmlns="http://www.w3.org/2000/svg">
<g clip-path="url(#clip0_583_73)">
<path d="M365 0H12C5.37258 0 0 5.37258 0 12V173C0 179.627 5.37258 185 12 185H365C371.627 185 377 179.627 377 173V12C377 5.37258 371.627 0 365 0Z" fill="white"/>
<path d="M342.95 36H243.05C240.813 36 239 41.3726 239 48V137C239 143.627 240.813 149 243.05 149H342.95C345.187 149 347 143.627 347 137V48C347 41.3726 345.187 36 342.95 36Z" fill="#9FF6D3"/>
<path d="M220.912 36H120.087C117.83 36 116 40.5168 116 46.0885V120.912C116 126.483 117.83 131 120.087 131H220.912C223.17 131 225 126.483 225 120.912V46.0885C225 40.5168 223.17 36 220.912 36Z" fill="#9FF6D3"/>
<path d="M95.0375 36H21.9625C20.3264 36 19 38.5674 19 41.7345V84.2655C19 87.4326 20.3264 90 21.9625 90H95.0375C96.6736 90 98 87.4326 98 84.2655V41.7345C98 38.5674 96.6736 36 95.0375 36Z" fill="#9FF6D3"/>
</g>
<defs>
<clipPath id="clip0_583_73">
<rect width="377" height="185" fill="white"/>
</clipPath>
</defs>
</svg>
