<svg width="242" height="60" viewBox="0 0 242 60" fill="none" xmlns="http://www.w3.org/2000/svg">
<mask id="mask0_554_34" style="mask-type:luminance" maskUnits="userSpaceOnUse" x="0" y="0" width="242" height="60">
<path d="M241.2 0H0V60H241.2V0Z" fill="white"/>
</mask>
<g mask="url(#mask0_554_34)">
<path d="M59.2783 23.0397H30.7183H30.4783V22.7997V1.19969C30.4783 -0.000313379 29.0383 -0.480312 28.3183 0.479688L0.47828 33.5997C0.23828 33.8397 0.238281 34.0797 0.238281 34.3197C0.238281 34.5597 0.238281 34.7997 0.238281 35.0397C0.238281 35.2797 0.478281 35.5197 0.718281 35.5197C0.958281 35.7597 1.19828 35.7597 1.43828 35.7597H29.9983H30.2383V35.9997V57.5997C30.2383 58.7997 31.6783 59.2797 32.3983 58.3197L60.2383 24.9597C60.4783 24.7197 60.4783 24.4797 60.4783 24.2397C60.4783 23.9997 60.4783 23.7597 60.4783 23.5197C60.4783 23.2797 60.2383 23.0397 59.9983 23.0397C59.7583 23.0397 59.5183 23.0397 59.2783 23.0397Z" fill="#CBF200"/>
<path d="M81.8379 57.12V20.88C81.8379 20.4 82.0779 19.92 82.3179 19.68C82.5579 19.44 83.0379 19.2 83.5179 19.2H92.8779C93.3579 19.2 93.8379 19.44 94.0779 19.68C94.3179 19.92 94.5579 20.4 94.5579 20.88V57.36C94.5579 57.84 94.3179 58.32 94.0779 58.56C93.8379 58.8 93.3579 59.04 92.8779 59.04H83.5179C83.0379 59.04 82.5579 58.8 82.3179 58.56C81.8379 58.08 81.8379 57.6 81.8379 57.12Z" fill="#1D1D1B"/>
<path d="M81.8379 10.7998V1.67976C81.8379 1.43976 81.8379 1.19977 82.0779 0.959766C82.0779 0.719766 82.3179 0.479764 82.5579 0.479764C82.7979 0.239764 82.7979 0.239762 83.0379 -0.000238051C83.2779 -0.000238051 83.5179 -0.240234 83.7579 -0.240234H92.8779C93.3579 -0.240234 93.8379 -0.000232562 94.0779 0.239767C94.3179 0.479767 94.5579 0.959767 94.5579 1.43977V10.5598C94.5579 11.0398 94.3179 11.5198 94.0779 11.7598C93.8379 11.9998 93.3579 12.2398 92.8779 12.2398H83.7579C83.2779 12.2398 82.7979 11.9998 82.5579 11.7598C82.0779 11.7598 81.8379 11.2798 81.8379 10.7998Z" fill="#1D1D1B"/>
<path d="M135.359 58.0798L126.479 42.9598L115.439 58.3198C115.199 58.5598 115.199 58.5598 114.959 58.7998C114.719 58.7998 114.479 59.0398 114.239 59.0398H107.039C106.559 59.0398 106.079 58.7998 105.839 58.5598C105.599 58.3198 105.359 57.8398 105.359 57.3598V1.43977C105.359 0.959767 105.599 0.479767 105.839 0.239767C106.079 -0.000232538 106.559 -0.240234 107.039 -0.240234H116.399C116.879 -0.240234 117.359 -0.000232538 117.599 0.239767C117.839 0.479767 118.079 0.959767 118.079 1.43977V36.9598L133.679 12.9598C133.919 12.7198 133.919 12.4798 134.159 12.4798C134.399 12.2398 134.639 12.2398 134.879 12.2398H146.159C146.399 12.2398 146.639 12.2398 146.879 12.4798C147.119 12.7198 147.359 12.7198 147.359 13.1998C147.599 13.4398 147.599 13.6798 147.599 13.9198C147.599 14.1598 147.359 14.3998 147.359 14.6398L135.119 31.4398L149.279 56.1598C149.519 56.3998 149.519 56.6398 149.519 56.8798C149.519 57.1198 149.519 57.3598 149.279 57.5998C149.039 57.8398 149.039 58.0798 148.799 58.0798C148.559 58.3198 148.319 58.3198 148.079 58.3198H137.039C136.799 58.3198 136.559 58.3198 136.319 58.0798C135.839 58.5598 135.599 58.3198 135.359 58.0798Z" fill="#1D1D1B"/>
<path d="M170.877 59.5195C158.877 59.5195 150.477 49.6795 150.477 35.5195C150.477 21.3595 158.877 11.5195 170.877 11.5195C175.917 11.5195 180.477 13.6795 184.077 17.7595L184.317 17.9995V17.5195C184.317 16.5595 184.317 15.1195 184.557 13.9195C184.557 13.4395 184.797 13.1995 185.037 12.9595C185.277 12.7195 185.757 12.4795 185.997 12.4795H194.877C195.357 12.4795 195.837 12.7195 196.077 12.9595C196.317 13.1995 196.557 13.6795 196.557 14.1595V57.1195C196.557 57.5995 196.317 58.0795 196.077 58.3195C195.837 58.5595 195.357 58.7995 194.877 58.7995H185.997C185.517 58.7995 185.277 58.5595 185.037 58.3195C184.797 58.0795 184.557 57.5995 184.557 57.3595C184.557 56.1595 184.317 54.4795 184.317 53.7595V53.2795L184.077 53.5195C180.477 57.3595 175.917 59.5195 170.877 59.5195ZM184.557 31.4395C184.317 29.2795 183.117 27.1195 181.437 25.6795C179.517 23.9995 176.877 23.0395 174.237 23.0395C167.517 23.0395 162.717 28.3195 162.717 35.5195C162.717 43.4395 166.797 47.9995 174.237 47.9995C175.677 47.9995 177.117 47.7595 178.557 47.2795C181.917 45.8395 184.077 42.9595 184.557 39.5995L184.797 38.6395C185.037 36.4795 185.037 34.3195 184.797 32.1595L184.557 31.4395Z" fill="#1D1D1B"/>
<path d="M221.282 59.9995C214.082 59.9995 209.522 58.5595 207.122 57.3595C206.162 56.8795 205.202 56.3995 204.242 55.6795C204.002 55.4395 203.762 55.1995 203.762 54.7195C203.762 54.4795 203.762 53.9995 204.002 53.7595L207.602 47.0395C207.602 46.7995 207.842 46.7995 208.082 46.5595C208.322 46.3195 208.562 46.3195 208.562 46.3195C208.802 46.3195 209.042 46.3195 209.282 46.3195C209.522 46.3195 209.762 46.5595 209.762 46.5595C214.322 49.9195 219.362 50.1595 221.282 50.1595C225.602 50.1595 227.762 48.7195 227.762 45.8395C227.762 42.2395 224.162 41.2795 219.842 40.3195C219.362 40.3195 218.882 40.0795 218.642 40.0795C212.642 38.6395 204.962 35.7595 204.962 27.1195C204.962 22.7995 206.882 18.9595 210.482 16.3195C214.082 13.6795 218.882 12.2395 224.162 12.2395C231.842 12.2395 237.362 14.8795 239.762 16.3195C240.002 16.5595 240.242 16.7995 240.482 17.2795C240.482 17.7595 240.482 17.9995 240.482 18.4795L237.122 24.9595C236.642 25.6795 235.682 25.9195 234.962 25.6795C230.642 23.2795 226.802 22.5595 224.402 22.5595C222.722 22.5595 218.402 22.5595 218.402 26.6395C218.402 29.7595 221.042 30.2395 224.162 30.9595C225.122 31.1995 226.322 31.4395 227.762 31.9195C231.842 33.1195 241.442 36.2395 241.442 45.3595C241.442 49.6795 239.522 53.5195 235.922 56.3995C232.082 58.3195 227.042 59.9995 221.282 59.9995Z" fill="#1D1D1B"/>
</g>
</svg>
