<svg width="377" height="185" viewBox="0 0 377 185" fill="none" xmlns="http://www.w3.org/2000/svg">
<rect width="377" height="185" rx="12" fill="white"/>
<rect x="26" y="53" width="103" height="79" rx="12" fill="#9FF6D3"/>
<rect x="137" y="53" width="103" height="79" rx="12" fill="#9FF6D3"/>
<rect x="248" y="53" width="103" height="79" rx="12" fill="#9FF6D3"/>
<path d="M19.4938 82.5171C19.3347 82.3533 19.1454 82.2232 18.9368 82.1345C18.7283 82.0457 18.5046 82 18.2786 82C18.0527 82 17.829 82.0457 17.6204 82.1345C17.4119 82.2232 17.2226 82.3533 17.0635 82.5171L8.50624 91.2587C8.34583 91.4212 8.21851 91.6146 8.13162 91.8276C8.04473 92.0407 8 92.2692 8 92.5C8 92.7308 8.04473 92.9593 8.13162 93.1724C8.21851 93.3854 8.34583 93.5788 8.50624 93.7413L17.0635 102.483C17.2226 102.647 17.4119 102.777 17.6204 102.866C17.829 102.954 18.0527 103 18.2786 103C18.5046 103 18.7283 102.954 18.9368 102.866C19.1454 102.777 19.3347 102.647 19.4938 102.483C19.6542 102.32 19.7815 102.127 19.8684 101.914C19.9553 101.701 20 101.472 20 101.242C20 101.011 19.9553 100.782 19.8684 100.569C19.7815 100.356 19.6542 100.163 19.4938 100L12.1345 92.5L19.4938 84.9997C19.6542 84.8372 19.7815 84.6439 19.8684 84.4308C19.9553 84.2178 20 83.9892 20 83.7584C20 83.5277 19.9553 83.2991 19.8684 83.0861C19.7815 82.873 19.6542 82.6797 19.4938 82.5171Z" fill="#9FF6D3"/>
<path d="M358.506 102.483C358.665 102.647 358.855 102.777 359.063 102.866C359.272 102.954 359.495 103 359.721 103C359.947 103 360.171 102.954 360.38 102.866C360.588 102.777 360.777 102.647 360.937 102.483L369.494 93.7413C369.654 93.5788 369.781 93.3854 369.868 93.1724C369.955 92.9593 370 92.7308 370 92.5C370 92.2692 369.955 92.0407 369.868 91.8276C369.781 91.6146 369.654 91.4212 369.494 91.2587L360.937 82.5171C360.777 82.3533 360.588 82.2232 360.38 82.1345C360.171 82.0457 359.947 82 359.721 82C359.495 82 359.272 82.0457 359.063 82.1345C358.855 82.2232 358.665 82.3533 358.506 82.5171C358.346 82.6797 358.219 82.873 358.132 83.0861C358.045 83.2991 358 83.5276 358 83.7584C358 83.9892 358.045 84.2178 358.132 84.4308C358.219 84.6439 358.346 84.8372 358.506 84.9997L365.865 92.5L358.506 100C358.346 100.163 358.219 100.356 358.132 100.569C358.045 100.782 358 101.011 358 101.242C358 101.472 358.045 101.701 358.132 101.914C358.219 102.127 358.346 102.32 358.506 102.483Z" fill="#9FF6D3"/>
</svg>
