<svg width="235" height="84" viewBox="0 0 235 84" fill="none" xmlns="http://www.w3.org/2000/svg">
<path d="M63.908 16.2013C63.8793 16.0223 63.7918 15.8578 63.6594 15.7339C63.527 15.61 63.3572 15.5335 63.1766 15.5167C62.8845 15.4699 56.4699 15.0259 56.4699 15.0259L51.5788 10.1349C51.1395 9.64416 50.1627 9.78905 49.7935 9.89187C49.7468 9.89187 48.8167 10.184 47.3001 10.677C45.8232 6.40997 43.2106 2.49341 38.6117 2.49341H38.2191C36.8988 0.787518 35.2864 0 33.9193 0C23.2072 0.0467369 18.0989 13.4088 16.4864 20.2371L8.99919 22.5342C6.70207 23.2656 6.61561 23.3194 6.31182 25.509L0 74.1925L47.3164 83.0492L72.961 77.5202C72.961 77.4734 63.9571 16.6687 63.9104 16.206L63.908 16.2013ZM44.6758 11.4996C43.484 11.8922 42.1053 12.2848 40.6658 12.7265V11.8455C40.7125 9.64416 40.3784 7.4522 39.689 5.35839C42.0866 5.72761 43.699 8.41966 44.6758 11.4996ZM36.8006 5.9239C37.5835 8.23037 37.9691 10.6607 37.8709 13.098V13.5373L29.5985 16.1079C31.2179 10.0625 34.2021 7.07363 36.796 5.94961L36.8006 5.9239ZM33.6225 2.9491C34.1133 2.96078 34.5876 3.11268 34.9919 3.38843C31.5404 4.99618 27.8926 9.05294 26.3269 17.1758L19.7837 19.1808C21.6298 13.0162 25.9366 2.93508 33.6179 2.93508L33.6225 2.9491Z" fill="#95BF47"/>
<path d="M63.1793 15.5142C62.8872 15.4675 56.4726 15.0235 56.4726 15.0235L51.5816 10.1324C51.4016 9.94549 51.1563 9.84267 50.8969 9.84033L47.3262 83.0397L72.9707 77.5107L63.9131 16.2433C63.8523 15.8694 63.5579 15.5703 63.1817 15.5119L63.1793 15.5142Z" fill="#5E8E3E"/>
<path d="M38.6076 29.7041L35.4248 39.0982C33.5016 38.1635 31.3961 37.6657 29.2602 37.626C24.2663 37.626 24.0256 40.7574 24.0256 41.5426C24.0256 45.819 35.2308 47.4641 35.2308 57.5453C35.2308 65.4719 30.1902 70.5615 23.4368 70.5615C15.3139 70.5615 11.1543 65.5209 11.1543 65.5209L13.3135 58.3235C13.3135 58.3235 17.5666 61.9923 21.1934 61.9923C21.6269 62.0094 22.0593 61.9383 22.4645 61.7831C22.8696 61.628 23.239 61.3922 23.5502 61.0899C23.8614 60.7877 24.108 60.4253 24.2749 60.0249C24.4418 59.6244 24.5255 59.1942 24.5211 58.7604C24.5211 53.1286 15.3209 52.8856 15.3209 43.6878C15.3209 35.9528 20.8966 28.4165 32.1041 28.4165C36.5091 28.4819 38.6146 29.7018 38.6146 29.7018L38.6076 29.7041Z" fill="white"/>
<path d="M95.2272 43.6967C93.3975 42.7152 92.451 41.867 92.451 40.7056C92.451 39.2333 93.7363 38.2822 95.8231 38.2822C97.3721 38.3158 98.8999 38.6499 100.322 39.2661L102.009 34.139C102.009 34.139 100.462 32.9425 95.9283 32.9425C89.6047 32.9425 85.2115 36.5647 85.2115 41.6543C85.2115 44.5333 87.2492 46.7486 89.988 48.3283C92.201 49.6136 92.9792 50.4642 92.9792 51.8056C92.9792 53.1469 91.8902 54.2663 89.8174 54.2663C86.7632 54.2663 83.8818 52.6866 83.8818 52.6866L82.0918 57.8136C82.0918 57.8136 84.7628 59.6036 89.2238 59.6036C95.7203 59.6036 100.394 56.4068 100.394 50.6301C100.429 47.5034 98.0735 45.3255 95.2529 43.6733L95.2272 43.6967ZM121.152 32.9122C117.955 32.9122 115.427 34.4241 113.492 36.7586L113.384 36.7236L116.161 22.1977H108.928L101.901 59.19H109.138L111.562 46.543C112.511 41.7665 114.981 38.8127 117.287 38.8127C118.899 38.8127 119.535 39.9017 119.535 41.4837C119.535 42.5587 119.428 43.6266 119.22 44.6805L116.481 59.1549H123.718L126.564 44.1991C126.875 42.6498 127.055 41.0771 127.09 39.5021C127.055 35.4266 124.912 32.9683 121.155 32.9683L121.152 32.9122ZM143.422 32.9122C134.711 32.9122 128.948 40.7827 128.948 49.5038C128.948 55.1262 132.425 59.6223 138.926 59.6223C147.472 59.6223 153.26 51.9621 153.26 43.0307C153.26 37.8312 150.206 32.9122 143.434 32.9122H143.422ZM139.87 54.0957C137.41 54.0957 136.358 51.9925 136.358 49.3986C136.358 45.253 138.494 38.4739 142.439 38.4739C145.002 38.4739 145.857 40.6869 145.857 42.8321C145.848 47.2838 143.707 54.0957 139.875 54.0957H139.87ZM171.768 32.9122C166.861 32.9122 164.108 37.1839 164.108 37.1839H164.001L164.428 33.3375H158.018L156.546 42.9302L151.522 69.4207H158.726L160.731 58.7039H160.872C160.872 58.7039 162.344 59.6527 165.125 59.6527C173.626 59.6527 179.176 50.9409 179.176 42.1357C179.211 37.2867 177.04 32.9332 171.764 32.9332L171.768 32.9122ZM164.847 54.2008C163.754 54.2226 162.692 53.8473 161.855 53.1446L163.052 46.3631C163.907 41.8646 166.249 38.8431 168.777 38.8431C170.99 38.8431 171.656 40.8808 171.656 42.8157C171.668 47.5291 168.899 54.2032 164.856 54.2032L164.847 54.2008ZM189.547 22.5132C188.439 22.5062 187.374 22.9455 186.596 23.733C185.817 24.5206 185.385 25.5885 185.427 26.6962C185.427 28.832 186.799 30.3183 188.846 30.3183H188.953C189.512 30.3405 190.069 30.248 190.59 30.0465C191.111 29.845 191.586 29.5388 191.984 29.1469C192.382 28.7549 192.696 28.2854 192.906 27.7675C193.116 27.2495 193.217 26.694 193.204 26.1353C193.204 24.0322 191.797 22.5132 189.582 22.5132H189.547ZM179.438 59.1199H186.675L191.592 33.4847H184.329M210.034 33.4496H204.98L205.227 32.2532C205.655 29.7925 207.125 27.5795 209.499 27.5795C210.286 27.5798 211.068 27.6979 211.819 27.93L213.217 22.2678C213.217 22.2678 211.932 21.6369 209.282 21.6369C206.703 21.5728 204.186 22.4322 202.185 24.0602C199.724 26.1634 198.563 29.1872 197.978 32.2462L197.745 33.4426H194.373L193.316 38.8875H196.688L192.842 59.1246H200.105L203.951 38.8875H208.943L209.924 33.4426L210.034 33.4496ZM227.462 33.4847L220.891 51.1209H220.784L218.994 33.4847H211.366L215.724 57.0214C215.829 57.4237 215.779 57.8507 215.584 58.2179C214.638 59.9635 213.289 61.4567 211.649 62.5761C210.392 63.4407 209.02 64.1278 207.573 64.6138L209.578 70.7597C212.229 70.0501 214.663 68.694 216.661 66.8128C219.963 63.7188 223.018 58.9423 226.149 52.4412L235.001 33.4707H227.46L227.462 33.4847Z" fill="black"/>
</svg>
