<svg width="231" height="59" viewBox="0 0 231 59" fill="none" xmlns="http://www.w3.org/2000/svg">
<g clip-path="url(#clip0_554_51)">
<path d="M93.0585 0.202881C91.4989 0.202881 90.2858 0.722948 89.2461 1.93644C88.2063 2.97657 87.6864 4.19007 87.6864 5.75027C87.6864 7.31047 88.2063 8.52396 89.2461 9.5641C90.2858 10.6042 91.6722 11.1243 93.0585 11.1243C94.4449 11.1243 95.8312 10.6042 96.871 9.5641C97.9107 8.52396 98.4306 7.13711 98.4306 5.75027C98.4306 4.36342 97.9107 2.97657 96.6977 1.93644C95.6579 0.896304 94.4448 0.202881 92.8852 0.202881H93.0585ZM140.887 12.6845C136.728 12.6845 133.609 14.4181 131.356 17.7118C129.277 14.2447 126.158 12.6845 121.998 12.6845C117.839 12.6845 115.933 14.0713 114.027 16.6717V13.7246H104.842V46.1422H114.027V30.1934C114.027 27.2464 114.2 24.9928 114.547 23.7793C115.24 21.3523 116.626 19.9654 118.879 19.9654C121.132 19.9654 122.345 21.1789 122.865 23.6059C123.212 24.6461 123.212 26.7263 123.212 29.6734V46.1422H132.396V30.1934C132.396 27.2464 132.569 25.1661 132.916 23.7793C133.609 21.1789 135.169 19.9654 137.248 19.9654C139.328 19.9654 140.541 21.0056 141.061 23.2592C141.407 24.4727 141.581 26.3796 141.581 28.98V45.9688H150.765V25.6862C150.765 16.845 147.299 12.3378 140.541 12.3378L140.887 12.6845ZM34.4854 0.549593H25.3008V13.7246H0V21.5256H25.1275V46.1422H34.3121V21.5256H40.0308V13.7246H34.3121V0.549593H34.4854ZM188.37 46.3155V13.7246H179.185V16.845C176.932 14.0713 173.813 12.6845 170.174 12.6845C166.535 12.6845 162.029 14.4181 159.257 18.0585C156.657 21.3523 155.444 25.1661 155.444 29.8467C155.444 34.5273 156.657 38.5145 159.257 41.8083C162.029 45.4488 165.668 47.1823 170.347 47.1823C175.026 47.1823 177.106 45.7955 179.185 43.1951V46.1422H188.37V46.3155ZM178.146 36.2609C176.586 38.1678 174.68 39.2079 172.427 39.2079C170.174 39.2079 168.268 38.1678 166.881 36.2609C165.495 34.5273 164.802 32.4471 164.802 30.0201C164.802 27.5931 165.495 25.6862 166.881 23.9526C168.441 22.0457 170.174 21.0056 172.427 21.0056C174.68 21.0056 176.586 22.0457 178.146 23.9526C179.532 25.6862 180.225 27.7665 180.225 30.0201C180.225 32.2737 179.532 34.354 178.146 36.2609ZM88.5529 46.3155H97.7374V13.898H88.5529V46.3155ZM62.7322 17.7118C59.6129 21.0056 58.0533 25.1661 58.0533 30.0201C58.0533 34.8741 59.6129 38.8612 62.7322 42.155C65.8515 45.4488 69.8372 47.1823 74.5161 47.1823C79.195 47.1823 80.0615 46.4889 82.4876 45.2754V36.4343C80.5814 38.5145 78.5019 39.5547 76.0758 39.5547C73.6497 39.5547 71.3968 38.6879 69.8372 36.781C68.2776 35.0474 67.5844 32.9671 67.5844 30.1934C67.5844 27.4197 68.2776 25.5128 69.6639 23.6059C71.2235 21.5256 73.3031 20.4855 75.7292 20.4855C78.1553 20.4855 80.4081 21.5256 82.4876 23.6059V14.7648C80.2348 13.3779 77.8087 12.6845 75.036 12.6845C70.1838 12.6845 66.198 14.4181 62.9055 17.7118H62.7322ZM44.0165 46.3155H53.201V13.898H44.0165V46.3155ZM48.6954 0.202881C47.1358 0.202881 45.9227 0.722948 44.883 1.93644C43.8432 2.97657 43.3233 4.19007 43.3233 5.75027C43.3233 7.31047 43.8432 8.52396 44.883 9.5641C45.9227 10.6042 47.3091 11.1243 48.6954 11.1243C50.0818 11.1243 51.4681 10.6042 52.5079 9.5641C53.5476 8.52396 54.0675 7.13711 54.0675 5.75027C54.0675 4.36342 53.5476 2.97657 52.3346 1.93644C51.2948 0.896304 50.0818 0.202881 48.5221 0.202881H48.6954ZM231 4.19007H220.256L209.338 20.3122L204.486 14.0713H193.569L204.313 27.7665L182.998 58.9705H193.915L210.205 35.2208L218.869 46.3155H229.787L215.23 27.7665L231.173 4.36342L231 4.19007Z" fill="#1B294A"/>
</g>
<defs>
<clipPath id="clip0_554_51">
<rect width="231" height="59" fill="white"/>
</clipPath>
</defs>
</svg>
