<svg width="239" height="54" viewBox="0 0 239 54" fill="none" xmlns="http://www.w3.org/2000/svg">
<g clip-path="url(#clip0_554_45)">
<path d="M35.8965 34.2608V27.1322H57.8738V34.2608H35.8965ZM78.2582 53.4418C75.5721 53.4418 73.118 53.1234 70.8958 52.4865C68.6737 51.8495 66.7201 50.9676 65.0352 49.8408C63.3503 48.7139 61.9584 47.4523 60.8595 46.056C59.7606 44.6597 58.9914 43.2021 58.5519 41.6833L66.9033 39.1112C67.5382 40.9239 68.7835 42.5162 70.6394 43.8881C72.4953 45.2599 74.7907 45.9703 77.5256 46.0193C80.7001 46.0193 83.2153 45.3579 85.0712 44.035C86.927 42.7122 87.855 40.9729 87.855 38.8172C87.855 36.8574 87.0735 35.2529 85.5107 34.0036C83.9479 32.7542 81.8478 31.7866 79.2106 31.1007L72.9104 29.4839C70.5173 28.847 68.3562 27.9161 66.4271 26.6912C64.498 25.4664 62.984 23.9231 61.8851 22.0613C60.7862 20.1996 60.2368 17.9949 60.2368 15.4472C60.2368 10.6458 61.7996 6.91002 64.9253 4.23986C68.051 1.5697 72.5197 0.234619 78.3315 0.234619C81.6036 0.234619 84.4729 0.736805 86.9392 1.74118C89.4056 2.74555 91.4446 4.11737 93.0563 5.85665C94.6679 7.59593 95.8645 9.56793 96.6459 11.7726L88.441 14.4183C87.7084 12.4586 86.4386 10.8418 84.6316 9.56793C82.8246 8.29409 80.578 7.65717 77.8919 7.65717C75.1081 7.65717 72.9226 8.31859 71.3354 9.64142C69.7481 10.9643 68.9545 12.8015 68.9545 15.1532C68.9545 17.064 69.5772 18.546 70.8225 19.5994C72.0679 20.6528 73.7651 21.4489 75.914 21.9878L82.2141 23.5311C86.8049 24.658 90.3701 26.5933 92.9097 29.3369C95.4493 32.0806 96.7191 35.1182 96.7191 38.4497C96.7191 41.3894 96.011 43.986 94.5947 46.2398C93.1784 48.4935 91.0905 50.2572 88.3311 51.5311C85.5718 52.8049 82.2141 53.4418 78.2582 53.4418ZM128.879 53.4418C123.8 53.4418 119.307 52.315 115.4 50.0613C111.493 47.8076 108.428 44.672 106.206 40.6545C103.984 36.637 102.873 32.0316 102.873 26.8382C102.873 21.6449 103.984 17.0517 106.206 13.0587C108.428 9.06574 111.468 5.93014 115.327 3.65193C119.185 1.37372 123.629 0.234619 128.659 0.234619C133.739 0.234619 138.22 1.37372 142.102 3.65193C145.985 5.93014 149.013 9.06574 151.186 13.0587C153.36 17.0517 154.446 21.6449 154.446 26.8382C154.446 32.0316 153.36 36.637 151.186 40.6545C149.013 44.672 146.009 47.8076 142.176 50.0613C138.342 52.315 133.91 53.4418 128.879 53.4418ZM128.879 45.6518C132.2 45.6518 135.131 44.8434 137.67 43.2266C140.21 41.6098 142.2 39.3929 143.641 36.5757C145.081 33.7586 145.802 30.5128 145.802 26.8382C145.802 23.2127 145.069 19.9791 143.604 17.1375C142.139 14.2958 140.124 12.0789 137.56 10.4866C134.996 8.89426 132.029 8.09812 128.659 8.09812C125.338 8.09812 122.396 8.89426 119.832 10.4866C117.268 12.0789 115.241 14.2836 113.752 17.1007C112.262 19.9179 111.517 23.1637 111.517 26.8382C111.517 30.5128 112.262 33.7586 113.752 36.5757C115.241 39.3929 117.292 41.6098 119.905 43.2266C122.518 44.8434 125.509 45.6518 128.879 45.6518ZM163.457 52.5599V1.11651H195.324V8.90651H171.955V23.3107H191.954V31.1007H171.955V52.5599H163.457ZM214.371 52.5599V8.90651H198.621V1.11651H238.619V8.90651H222.869V52.5599H214.371Z" fill="#3B3735"/>
<path d="M15.9848 52.5599V8.90646H0.234375V1.11646H40.2331V8.90646H24.4827V52.5599H15.9848Z" fill="#FF5D00"/>
</g>
<defs>
<clipPath id="clip0_554_45">
<rect width="239" height="54" fill="white"/>
</clipPath>
</defs>
</svg>
