<svg width="250" height="86" viewBox="0 0 250 86" fill="none" xmlns="http://www.w3.org/2000/svg">
<path fill-rule="evenodd" clip-rule="evenodd" d="M11.5519 22.1021H78.3694C82.5935 22.1021 86.0131 25.5206 86.0131 29.7274V55.1475C86.0131 59.3615 82.5935 62.7729 78.3694 62.7729H54.4039L57.6869 70.8139L43.2114 62.7729H11.5519C7.32774 62.7729 3.9082 59.3615 3.9082 55.1475V29.7274C3.9082 25.5134 7.33493 22.1021 11.5519 22.1021Z" fill="#83519B"/>
<path d="M8.03907 29.0108C8.52039 28.3873 9.22441 28.0433 10.1368 27.9788C11.8394 27.8569 12.8164 28.6596 13.0678 30.3796C14.1238 37.3599 15.2445 43.2868 16.4442 48.1601L23.8006 34.1994C24.4687 32.9381 25.3092 32.2716 26.3221 32.1999C27.7948 32.0996 28.7144 33.0313 29.0879 35.0093C29.9284 39.4454 30.9845 43.2653 32.2632 46.4544C33.1468 37.9548 34.6195 31.8129 36.6885 28.0289C37.1842 27.1116 37.9241 26.6099 38.9011 26.5454C39.6842 26.4881 40.3954 26.7103 41.0204 27.2048C41.6454 27.6993 41.9902 28.3443 42.0477 29.1254C42.0908 29.7131 41.9759 30.2434 41.7172 30.7236C40.4098 33.1459 39.325 37.1808 38.4773 42.8138C37.644 48.2533 37.335 52.5103 37.5506 55.5776C37.608 56.4304 37.4787 57.1614 37.1626 57.7706C36.7531 58.5231 36.1569 58.9244 35.3738 58.9818C34.4902 59.0463 33.6066 58.6306 32.723 57.7419C29.6052 54.5456 27.1267 49.8013 25.302 43.4946C23.1396 47.7803 21.5233 50.9981 20.4529 53.1409C18.4845 56.9249 16.7963 58.8599 15.3882 58.9603C14.4687 59.0248 13.6928 58.2579 13.0534 56.6598C11.3293 52.2881 9.48304 43.8171 7.50746 31.2539C7.37815 30.3796 7.55775 29.6271 8.03907 29.0036V29.0108Z" fill="white"/>
<path d="M75.9333 43.5519C75.4735 45.7449 74.6186 47.4004 73.3758 48.5113C72.3916 49.3928 71.4864 49.7583 70.6675 49.5934C69.8485 49.4286 69.1876 48.7119 68.6991 47.4363C68.304 46.3899 68.11 45.3723 68.11 44.3904C68.11 43.5376 68.189 42.7206 68.3543 41.9323C68.6488 40.5563 69.2379 39.2304 70.1287 37.9548C71.2422 36.3208 72.406 35.6328 73.6272 35.8908C74.4462 36.0556 75.1071 36.7723 75.5956 38.0479C75.9908 39.0943 76.1847 40.1119 76.1847 41.0938C76.1847 41.9466 76.1057 42.7636 75.9405 43.5519H75.9333ZM80.1646 34.2711C78.9505 32.1784 77.1617 30.8813 74.7982 30.3939C74.1732 30.2649 73.5698 30.2004 72.9807 30.2004C69.7623 30.2004 67.1402 31.8703 65.0999 35.2099C63.3614 38.0623 62.4922 41.2013 62.4922 44.6413C62.4922 47.2284 63.031 49.4358 64.1158 51.2704C65.3298 53.3631 67.1186 54.6603 69.4821 55.1476C70.1071 55.2766 70.7106 55.3411 71.2997 55.3411C74.5468 55.3411 77.1761 53.6713 79.1732 50.3316C80.9117 47.4506 81.781 44.2901 81.781 40.8501C81.781 38.2629 81.2422 36.0699 80.1574 34.2711H80.1646Z" fill="white"/>
<path d="M54.9001 43.5519C54.4403 45.7449 53.5854 47.4004 52.3426 48.5113C51.3584 49.3928 50.4532 49.7583 49.6343 49.5934C48.8153 49.4286 48.1616 48.7119 47.6659 47.4363C47.2708 46.3899 47.0768 45.3723 47.0768 44.3904C47.0768 43.5376 47.1558 42.7206 47.3211 41.9323C47.6156 40.5563 48.2047 39.2304 49.0883 37.9548C50.2018 36.3208 51.3728 35.6328 52.5869 35.8908C53.4058 36.0556 54.0596 36.7723 54.5553 38.0479C54.9504 39.0943 55.1443 40.1119 55.1443 41.0938C55.1443 41.9466 55.0581 42.7636 54.9001 43.5519ZM59.1314 34.2711C57.9173 32.1784 56.1285 30.8813 53.765 30.3939C53.14 30.2649 52.5366 30.2004 51.9403 30.2004C48.7219 30.2004 46.0998 31.8703 44.0667 35.2099C42.3282 38.0623 41.459 41.2013 41.459 44.6413C41.459 47.2284 41.9978 49.4358 43.0825 51.2704C44.2966 53.3631 46.0854 54.6603 48.4489 55.1476C49.0739 55.2766 49.6774 55.3411 50.2736 55.3411C53.5208 55.3411 56.1501 53.6713 58.1472 50.3316C59.8857 47.4506 60.755 44.2901 60.755 40.8501C60.755 38.2629 60.2162 36.0699 59.1314 34.2711Z" fill="white"/>
<path d="M239.908 49.2206V45.0711H245.389V40.3411H239.908V36.1414H246.222V31.2896H233.737V54.0796H246.265V49.2134H239.908V49.2206ZM219.879 33.9843C217.637 36.1988 216.517 39.0081 216.517 42.4123C216.517 46.0744 217.63 49.0343 219.85 51.2846C222.07 53.5349 224.965 54.6529 228.535 54.6529C229.57 54.6529 230.734 54.4738 232.041 54.1226V48.7118C230.87 49.0558 229.857 49.2278 228.988 49.2278C227.206 49.2278 225.784 48.6329 224.721 47.4433C223.658 46.2536 223.126 44.6339 223.126 42.5843C223.126 40.6851 223.658 39.1156 224.714 37.8901C225.77 36.6574 227.106 36.0483 228.708 36.0483C229.757 36.0483 230.87 36.2131 232.048 36.5428V31.1104C230.935 30.8166 229.714 30.6661 228.385 30.6661C224.965 30.6661 222.127 31.7698 219.886 33.9843H219.879ZM205.798 41.1151V35.7043C207.264 35.7401 208.313 35.9838 208.945 36.4353C209.577 36.8939 209.893 37.6464 209.893 38.7071C209.893 40.2694 208.528 41.0721 205.798 41.1151ZM215.274 41.4806C215.913 40.4486 216.229 39.3808 216.229 38.2771C216.229 36.1271 215.389 34.4214 213.701 33.1744C212.02 31.9203 209.721 31.2968 206.819 31.2968H199.627V54.0868H205.798V43.7023H205.899L210.892 54.0868H217.408L212.479 43.8098C213.701 43.2866 214.635 42.5054 215.274 41.4806ZM191.531 45.0783H197.012V40.3483H191.531V36.1486H197.846V31.2968H185.36V54.0868H197.889V49.2206H191.531V45.0711V45.0783ZM172.558 31.2968L171.359 36.4209C171.043 37.7324 170.755 39.0726 170.482 40.4486L169.807 43.9818C169.168 40.4414 168.291 36.2131 167.178 31.2968H159.376L156.445 54.0868H162.293L163.88 38.3774L167.875 54.0868H172.048L175.856 38.4133L177.508 54.0868H183.622L180.525 31.2968H172.558ZM144.599 31.2968L143.399 36.4209C143.083 37.7324 142.796 39.0726 142.523 40.4486L141.847 43.9818C141.208 40.4414 140.331 36.2131 139.218 31.2968H131.416L128.485 54.0868H134.333L135.921 38.3774L139.915 54.0868H144.089L147.896 38.4133L149.548 54.0868H155.662L152.566 31.2968H144.599ZM120.461 48.0596C119.843 49.0056 118.959 49.4786 117.803 49.4786C116.732 49.4786 115.913 49.0056 115.346 48.0596C114.785 47.1136 114.498 45.2288 114.498 42.4051C114.498 38.0263 115.612 35.8333 117.839 35.8333C120.202 35.8333 121.38 38.0549 121.38 42.5054C121.38 45.2574 121.071 47.1064 120.454 48.0524L120.461 48.0596ZM117.803 30.6589C114.706 30.6589 112.293 31.6838 110.561 33.7406C108.83 35.7974 107.961 38.6641 107.961 42.3334C107.961 46.3181 108.823 49.3639 110.547 51.4781C112.271 53.5851 114.778 54.6458 118.061 54.6458C121.344 54.6458 123.686 53.5923 125.403 51.4781C127.12 49.3639 127.982 46.3969 127.982 42.5771C127.982 38.7573 127.113 35.8118 125.367 33.7478C123.622 31.6909 121.1 30.6589 117.803 30.6589ZM94.5125 33.9771C92.2711 36.1916 91.1504 39.0009 91.1504 42.4051C91.1504 46.0673 92.2639 49.0271 94.4837 51.2774C96.7036 53.5278 99.5987 54.6458 103.169 54.6458C104.204 54.6458 105.367 54.4666 106.675 54.1154V48.7046C105.504 49.0486 104.491 49.2206 103.622 49.2206C101.84 49.2206 100.418 48.6258 99.3544 47.4361C98.2912 46.2464 97.7524 44.6268 97.7524 42.5771C97.7524 40.6779 98.284 39.1084 99.34 37.8829C100.396 36.6503 101.732 36.0411 103.334 36.0411C104.383 36.0411 105.489 36.2059 106.675 36.5356V31.1033C105.561 30.8094 104.34 30.6589 103.011 30.6589C99.5915 30.6589 96.7538 31.7626 94.5125 33.9771Z" fill="#12100B"/>
</svg>
