<svg width="40" height="40" viewBox="0 0 40 40" fill="none" xmlns="http://www.w3.org/2000/svg">
<rect width="40" height="40" rx="6" fill="#FFA62E"/>
<path d="M19.4995 26.0795L14.8945 28.8312C14.6911 28.9596 14.4784 29.0147 14.2565 28.9963C14.0345 28.978 13.8403 28.9046 13.6739 28.7762C13.5074 28.6478 13.378 28.4874 13.2855 28.2952C13.193 28.1029 13.1746 27.8872 13.23 27.648L14.4506 22.4472L10.3727 18.9525C10.1878 18.7874 10.0724 18.5992 10.0265 18.3878C9.98063 18.1765 9.99431 17.9703 10.0676 17.7693C10.1408 17.5682 10.2518 17.4031 10.4004 17.2739C10.5491 17.1448 10.7526 17.0622 11.0107 17.0263L16.3925 16.5585L18.4731 11.6604C18.5656 11.4403 18.7091 11.2752 18.9036 11.1651C19.0982 11.055 19.2968 11 19.4995 11C19.7022 11 19.9008 11.055 20.0954 11.1651C20.29 11.2752 20.4335 11.4403 20.5259 11.6604L22.6065 16.5585L27.9883 17.0263C28.2472 17.063 28.4507 17.1455 28.5986 17.2739C28.7466 17.4024 28.8575 17.5675 28.9315 17.7693C29.0055 17.9711 29.0195 18.1776 28.9737 18.3889C28.9278 18.6003 28.812 18.7881 28.6264 18.9525L24.5484 22.4472L25.769 27.648C25.8245 27.8865 25.806 28.1022 25.7135 28.2952C25.6211 28.4882 25.4916 28.6485 25.3252 28.7762C25.1587 28.9039 24.9645 28.9772 24.7426 28.9963C24.5207 29.0154 24.308 28.9604 24.1046 28.8312L19.4995 26.0795Z" fill="white"/>
</svg>
