<svg width="22" height="22" viewBox="0 0 22 22" fill="none" xmlns="http://www.w3.org/2000/svg">
<path d="M11 0C8.82441 0 6.69767 0.645139 4.88873 1.85383C3.07979 3.06253 1.66989 4.78049 0.83733 6.79048C0.00476617 8.80047 -0.213071 11.0122 0.211367 13.146C0.635804 15.2798 1.68345 17.2398 3.22183 18.7782C4.76021 20.3166 6.72022 21.3642 8.85401 21.7886C10.9878 22.2131 13.1995 21.9952 15.2095 21.1627C17.2195 20.3301 18.9375 18.9202 20.1462 17.1113C21.3549 15.3023 22 13.1756 22 11C22 8.08262 20.8411 5.28473 18.7782 3.22183C16.7153 1.15893 13.9174 0 11 0ZM11 20C9.21997 20 7.47992 19.4722 5.99987 18.4832C4.51983 17.4943 3.36628 16.0887 2.68509 14.4442C2.0039 12.7996 1.82567 10.99 2.17294 9.24419C2.5202 7.49836 3.37737 5.89471 4.63604 4.63604C5.89472 3.37737 7.49836 2.5202 9.24419 2.17293C10.99 1.82567 12.7996 2.0039 14.4442 2.68508C16.0887 3.36627 17.4943 4.51983 18.4832 5.99987C19.4722 7.47991 20 9.21997 20 11C20 13.3869 19.0518 15.6761 17.364 17.364C15.6761 19.0518 13.387 20 11 20Z" fill="black"/>
<path d="M10.233 4V16.8247L8.76991 16.9249V4H10.233ZM13.5369 11.2139H15C15 12.5331 14.8014 13.6206 14.4041 14.4764C14.0108 15.328 13.4543 15.9626 12.7345 16.3801C12.0187 16.7934 11.177 17 10.2094 17C9.96165 17 9.7001 16.9937 9.42478 16.9812C9.15339 16.9687 8.9351 16.9499 8.76991 16.9249L10.2094 15.5472C10.823 15.5472 11.3815 15.4157 11.885 15.1527C12.3884 14.8897 12.7896 14.443 13.0885 13.8126C13.3874 13.1822 13.5369 12.316 13.5369 11.2139ZM12.7581 4.97688V6.52987L7 9.33526V7.78227L12.7581 4.97688ZM12.7581 7.90751V9.4605L7 12.2659V10.7129L12.7581 7.90751Z" fill="black"/>
</svg>
