<svg width="232" height="40" viewBox="0 0 232 40" fill="none" xmlns="http://www.w3.org/2000/svg">
<rect width="40" height="40" rx="6" fill="#008116"/>
<rect x="48" width="40" height="40" rx="6" fill="#008116"/>
<rect x="96" width="40" height="40" rx="6" fill="#008116"/>
<rect x="144" width="40" height="40" rx="6" fill="#008116"/>
<rect x="192" width="40" height="40" rx="6" fill="#008116"/>
<path d="M19.4995 26.0795L14.8945 28.8312C14.6911 28.9596 14.4784 29.0147 14.2565 28.9963C14.0345 28.978 13.8403 28.9046 13.6739 28.7762C13.5074 28.6478 13.378 28.4874 13.2855 28.2952C13.193 28.1029 13.1746 27.8872 13.23 27.648L14.4506 22.4472L10.3727 18.9525C10.1878 18.7874 10.0724 18.5992 10.0265 18.3878C9.98063 18.1765 9.99431 17.9703 10.0676 17.7693C10.1408 17.5682 10.2518 17.4031 10.4004 17.2739C10.5491 17.1448 10.7526 17.0622 11.0107 17.0263L16.3925 16.5585L18.4731 11.6604C18.5656 11.4403 18.7091 11.2752 18.9036 11.1651C19.0982 11.055 19.2968 11 19.4995 11C19.7022 11 19.9008 11.055 20.0954 11.1651C20.29 11.2752 20.4335 11.4403 20.5259 11.6604L22.6065 16.5585L27.9883 17.0263C28.2472 17.063 28.4507 17.1455 28.5986 17.2739C28.7466 17.4024 28.8575 17.5675 28.9315 17.7693C29.0055 17.9711 29.0195 18.1776 28.9737 18.3889C28.9278 18.6003 28.812 18.7881 28.6264 18.9525L24.5484 22.4472L25.769 27.648C25.8245 27.8865 25.806 28.1022 25.7135 28.2952C25.6211 28.4882 25.4916 28.6485 25.3252 28.7762C25.1587 28.9039 24.9645 28.9772 24.7426 28.9963C24.5207 29.0154 24.308 28.9604 24.1046 28.8312L19.4995 26.0795Z" fill="white"/>
<path d="M67.4995 26.0795L62.8945 28.8312C62.6911 28.9596 62.4784 29.0147 62.2565 28.9963C62.0345 28.978 61.8403 28.9046 61.6739 28.7762C61.5074 28.6478 61.378 28.4874 61.2855 28.2952C61.193 28.1029 61.1746 27.8872 61.23 27.648L62.4506 22.4472L58.3727 18.9525C58.1878 18.7874 58.0724 18.5992 58.0265 18.3878C57.9806 18.1765 57.9943 17.9703 58.0676 17.7693C58.1408 17.5682 58.2518 17.4031 58.4004 17.2739C58.5491 17.1448 58.7526 17.0622 59.0107 17.0263L64.3925 16.5585L66.4731 11.6604C66.5656 11.4403 66.7091 11.2752 66.9036 11.1651C67.0982 11.055 67.2968 11 67.4995 11C67.7022 11 67.9008 11.055 68.0954 11.1651C68.29 11.2752 68.4335 11.4403 68.5259 11.6604L70.6065 16.5585L75.9883 17.0263C76.2472 17.063 76.4507 17.1455 76.5986 17.2739C76.7466 17.4024 76.8575 17.5675 76.9315 17.7693C77.0055 17.9711 77.0195 18.1776 76.9737 18.3889C76.9278 18.6003 76.812 18.7881 76.6264 18.9525L72.5484 22.4472L73.769 27.648C73.8245 27.8865 73.806 28.1022 73.7135 28.2952C73.6211 28.4882 73.4916 28.6485 73.3252 28.7762C73.1587 28.9039 72.9645 28.9772 72.7426 28.9963C72.5207 29.0154 72.308 28.9604 72.1046 28.8312L67.4995 26.0795Z" fill="white"/>
<path d="M115.5 26.0795L110.895 28.8312C110.691 28.9596 110.478 29.0147 110.256 28.9963C110.035 28.978 109.84 28.9046 109.674 28.7762C109.507 28.6478 109.378 28.4874 109.286 28.2952C109.193 28.1029 109.175 27.8872 109.23 27.648L110.451 22.4472L106.373 18.9525C106.188 18.7874 106.072 18.5992 106.026 18.3878C105.981 18.1765 105.994 17.9703 106.068 17.7693C106.141 17.5682 106.252 17.4031 106.4 17.2739C106.549 17.1448 106.753 17.0622 107.011 17.0263L112.393 16.5585L114.473 11.6604C114.566 11.4403 114.709 11.2752 114.904 11.1651C115.098 11.055 115.297 11 115.5 11C115.702 11 115.901 11.055 116.095 11.1651C116.29 11.2752 116.433 11.4403 116.526 11.6604L118.607 16.5585L123.988 17.0263C124.247 17.063 124.451 17.1455 124.599 17.2739C124.747 17.4024 124.858 17.5675 124.932 17.7693C125.005 17.9711 125.02 18.1776 124.974 18.3889C124.928 18.6003 124.812 18.7881 124.626 18.9525L120.548 22.4472L121.769 27.648C121.824 27.8865 121.806 28.1022 121.714 28.2952C121.621 28.4882 121.492 28.6485 121.325 28.7762C121.159 28.9039 120.965 28.9772 120.743 28.9963C120.521 29.0154 120.308 28.9604 120.105 28.8312L115.5 26.0795Z" fill="white"/>
<path d="M163.5 26.0795L158.895 28.8312C158.691 28.9596 158.478 29.0147 158.256 28.9963C158.035 28.978 157.84 28.9046 157.674 28.7762C157.507 28.6478 157.378 28.4874 157.286 28.2952C157.193 28.1029 157.175 27.8872 157.23 27.648L158.451 22.4472L154.373 18.9525C154.188 18.7874 154.072 18.5992 154.026 18.3878C153.981 18.1765 153.994 17.9703 154.068 17.7693C154.141 17.5682 154.252 17.4031 154.4 17.2739C154.549 17.1448 154.753 17.0622 155.011 17.0263L160.393 16.5585L162.473 11.6604C162.566 11.4403 162.709 11.2752 162.904 11.1651C163.098 11.055 163.297 11 163.5 11C163.702 11 163.901 11.055 164.095 11.1651C164.29 11.2752 164.433 11.4403 164.526 11.6604L166.607 16.5585L171.988 17.0263C172.247 17.063 172.451 17.1455 172.599 17.2739C172.747 17.4024 172.858 17.5675 172.932 17.7693C173.005 17.9711 173.02 18.1776 172.974 18.3889C172.928 18.6003 172.812 18.7881 172.626 18.9525L168.548 22.4472L169.769 27.648C169.824 27.8865 169.806 28.1022 169.714 28.2952C169.621 28.4882 169.492 28.6485 169.325 28.7762C169.159 28.9039 168.965 28.9772 168.743 28.9963C168.521 29.0154 168.308 28.9604 168.105 28.8312L163.5 26.0795Z" fill="white"/>
<path d="M211.5 26.0795L206.895 28.8312C206.691 28.9596 206.478 29.0147 206.256 28.9963C206.035 28.978 205.84 28.9046 205.674 28.7762C205.507 28.6478 205.378 28.4874 205.286 28.2952C205.193 28.1029 205.175 27.8872 205.23 27.648L206.451 22.4472L202.373 18.9525C202.188 18.7874 202.072 18.5992 202.026 18.3878C201.981 18.1765 201.994 17.9703 202.068 17.7693C202.141 17.5682 202.252 17.4031 202.4 17.2739C202.549 17.1448 202.753 17.0622 203.011 17.0263L208.393 16.5585L210.473 11.6604C210.566 11.4403 210.709 11.2752 210.904 11.1651C211.098 11.055 211.297 11 211.5 11C211.702 11 211.901 11.055 212.095 11.1651C212.29 11.2752 212.433 11.4403 212.526 11.6604L214.607 16.5585L219.988 17.0263C220.247 17.063 220.451 17.1455 220.599 17.2739C220.747 17.4024 220.858 17.5675 220.932 17.7693C221.005 17.9711 221.02 18.1776 220.974 18.3889C220.928 18.6003 220.812 18.7881 220.626 18.9525L216.548 22.4472L217.769 27.648C217.824 27.8865 217.806 28.1022 217.714 28.2952C217.621 28.4882 217.492 28.6485 217.325 28.7762C217.159 28.9039 216.965 28.9772 216.743 28.9963C216.521 29.0154 216.308 28.9604 216.105 28.8312L211.5 26.0795Z" fill="white"/>
</svg>
