<?xml version="1.0" encoding="UTF-8"?>
<svg xmlns="http://www.w3.org/2000/svg" xmlns:xlink="http://www.w3.org/1999/xlink" version="1.1" viewBox="0 0 171.69 31">
  <defs>
    <style>
      .cls-1, .cls-2 {
        fill: none;
      }

      .cls-3 {
        clip-path: url(#clippath-1);
      }

      .cls-4 {
        clip-path: url(#clippath-3);
      }

      .cls-5 {
        clip-path: url(#clippath-2);
      }

      .cls-6 {
        fill: #fff;
      }

      .cls-2 {
        clip-rule: evenodd;
      }

      .cls-7 {
        clip-path: url(#clippath);
      }
    </style>
    <clipPath id="clippath">
      <path class="cls-2" d="M47.55.45c1.31,0,2.37,1.07,2.37,2.38s-1.06,2.38-2.37,2.38-2.37-1.07-2.37-2.38,1.06-2.38,2.37-2.38ZM3.87.45c1.31,0,2.37,1.07,2.37,2.38s-1.06,2.38-2.37,2.38-2.37-1.07-2.37-2.38S2.56.45,3.87.45ZM78.53,11.33c-2.42,0-4.39,1.98-4.39,4.41s1.97,4.41,4.39,4.41,4.39-1.98,4.39-4.41-1.97-4.41-4.39-4.41ZM47.55,7.31c1.19,0,2.15.96,2.15,2.15v12.59c0,1.19-.96,2.15-2.15,2.15s-2.14-.96-2.14-2.15v-12.59c0-1.19.96-2.15,2.14-2.15ZM39.94,7.31s.05,0,.06,0h.05c.51-.02,1.03.15,1.45.5.91.76,1.02,2.12.26,3.03l-7.57,9.05h5.93c1.19,0,2.15.97,2.15,2.15s-.96,2.15-2.15,2.15h-10.53c-.49,0-.98-.16-1.38-.5-.91-.76-1.03-2.12-.26-3.03l7.57-9.05h-4.95c-1.19,0-2.15-.97-2.15-2.16s.96-2.15,2.15-2.15h1.31c.07,0,.15,0,.22,0h7.83ZM3.87,7.31c1.18,0,2.15.96,2.15,2.15v12.59c0,1.19-.96,2.15-2.15,2.15s-2.15-.96-2.15-2.15v-12.59c0-1.19.96-2.15,2.15-2.15ZM78.53,7.02c4.79,0,8.68,3.91,8.68,8.71s-3.9,8.71-8.68,8.71-8.68-3.91-8.68-8.71,3.9-8.71,8.68-8.71ZM61.19,7.02c2.32,0,4.5.91,6.14,2.55.83.84.83,2.2,0,3.05-.84.84-2.2.84-3.04,0-.83-.83-1.93-1.29-3.11-1.29s-2.28.46-3.1,1.29c-.83.83-1.29,1.94-1.29,3.12s.46,2.28,1.29,3.12c.83.83,1.93,1.29,3.1,1.29s2.28-.46,3.11-1.29c.84-.84,2.2-.84,3.04,0,.83.84.83,2.2,0,3.04-1.64,1.65-3.82,2.56-6.14,2.56s-4.5-.91-6.14-2.56c-1.64-1.64-2.54-3.83-2.54-6.16s.9-4.51,2.54-6.16c1.64-1.65,3.82-2.55,6.14-2.55ZM21.81,8.47c.55-1.05,1.84-1.46,2.89-.92,1.05.55,1.46,1.85.91,2.9l-9.78,18.94c-.37.71-1.07,1.12-1.81,1.16-.36.02-.74-.06-1.08-.24-1.05-.55-1.46-1.85-.91-2.9l2.77-5.36-5.99-11.59c-.55-1.06-.14-2.36.91-2.9,1.05-.55,2.35-.14,2.89.92l4.6,8.9,4.6-8.9Z"/>
    </clipPath>
    <clipPath id="clippath-1">
      <rect class="cls-1" x="-253.31" y="-2364" width="1440" height="4117"/>
    </clipPath>
    <clipPath id="clippath-2">
      <path class="cls-2" d="M129.87,1.28c.8,0,1.45.65,1.45,1.44s-.65,1.44-1.45,1.44-1.45-.65-1.45-1.44.65-1.44,1.45-1.44ZM136.02,1.28c.8,0,1.45.65,1.45,1.44s-.65,1.44-1.45,1.44-1.45-.65-1.45-1.44.65-1.44,1.45-1.44ZM96.86,5.43c.55,0,1.05.48,1.05,1.06s-.5,1.06-1.05,1.06-1.07-.48-1.07-1.06.5-1.06,1.07-1.06ZM164.87,12.74c-1.65,0-3.52,1.06-3.75,3.45h7.45c-.22-2.39-2.02-3.45-3.7-3.45ZM111.39,12.26c-1.85,0-4.03,1.26-4.25,4.08h8.5c-.22-2.82-2.37-4.08-4.25-4.08ZM132.94,8.43c-3.05,0-5.87,2.6-5.87,6.42s2.82,6.4,5.87,6.4,5.87-2.57,5.87-6.4-2.8-6.42-5.87-6.42ZM149.8,12.71c-1.82,0-3.88,1.44-3.88,4.41s2.05,4.43,3.88,4.43c1.7,0,3.8-1.31,3.8-4.43s-2.1-4.41-3.8-4.41ZM164.87,10.42c2.85,0,6.27,2.27,6.27,6.27,0,1.03-.58,1.44-1.65,1.44l-8.37-.03c.27,2.34,2.1,3.5,4.1,3.5,1.03,0,1.73-.25,2.5-.73.42-.23.7-.4,1.05-.4.58,0,.93.4.93.96,0,.33-.13.68-.68,1.13-.95.78-2.33,1.23-3.9,1.23-3.25,0-6.72-2.09-6.72-6.65s3.62-6.73,6.47-6.73ZM111.39,10.42c2.85,0,6.27,2.27,6.27,6.35,0,.8-.47,1.18-1.32,1.18l-9.2-.05c.22,2.82,2.37,4.16,4.52,4.16,1.15,0,2.07-.33,2.9-.96.38-.25.6-.38.88-.38.48,0,.78.33.78.78,0,.28-.12.55-.55.93-1,.88-2.47,1.36-4.05,1.36-3.2,0-6.62-2.12-6.62-6.65s3.55-6.73,6.4-6.73ZM101.71,5.69c.55,0,1.03.48,1.03,1.03v16.02c0,.55-.47,1.06-1.03,1.06s-1.05-.5-1.05-1.06V6.72c0-.55.47-1.03,1.05-1.03ZM96.86,10.5c.55,0,1.02.48,1.02,1.06v11.18c0,.61-.47,1.08-1.02,1.08s-1.05-.48-1.05-1.08v-11.18c0-.58.48-1.06,1.05-1.06ZM154.8,5.68c.72,0,1.35.61,1.35,1.34v15.47c0,.73-.63,1.34-1.35,1.34s-1.33-.6-1.33-1.34v-1.36c-.17,1.13-1.73,2.72-4.1,2.72-2.77,0-6.1-2.17-6.1-6.72s3.35-6.7,6.1-6.7c1.85,0,3.45.96,4.1,2.42v-1.01c0-.08,0-.18.03-.25v-4.56c0-.73.6-1.34,1.3-1.34ZM132.94,5.86c4.38,0,8.7,3.68,8.7,8.99s-4.32,8.99-8.7,8.99-8.7-3.68-8.7-8.99,4.32-8.99,8.7-8.99Z"/>
    </clipPath>
    <clipPath id="clippath-3">
      <rect class="cls-1" x="-253.31" y="-2364" width="1440" height="4117"/>
    </clipPath>
  </defs>
  <!-- Generator: Adobe Illustrator 28.7.4, SVG Export Plug-In . SVG Version: 1.2.0 Build 166)  -->
  <g>
    <g id="Layer_1">
      <g class="cls-7">
        <g class="cls-3">
          <rect class="cls-6" x="-3.5" y="-4.55" width="95.71" height="40.1"/>
        </g>
      </g>
      <g class="cls-5">
        <g class="cls-4">
          <rect class="cls-6" x="90.79" y="-3.72" width="85.36" height="32.57"/>
        </g>
      </g>
    </g>
  </g>
</svg>