<svg width="159" height="39" viewBox="0 0 159 39" fill="none" xmlns="http://www.w3.org/2000/svg">
<path fill-rule="evenodd" clip-rule="evenodd" d="M45.6756 39L46.6833 38.9721L47.6805 38.899L48.6534 38.7736L49.6227 38.603L50.5641 38.387L51.4916 38.1223L52.4017 37.8159L53.2908 37.4676L54.159 37.0705L55.0028 36.6457L55.8187 36.1685L56.6137 35.6635L57.3808 35.1167L58.1165 34.5386L58.8278 33.9256L59.5078 33.2778L60.1598 32.5987L60.77 31.8882L61.3488 31.1498L61.8962 30.3871L62.4053 29.5931L62.8795 28.7781L63.3049 27.9353L63.7024 27.068L64.0511 26.1799L64.3579 25.2709L64.6229 24.3445L64.8391 23.4042L65.0099 22.436L65.1354 21.4643L65.2087 20.4682L65.2366 19.4617L65.2087 18.4621L65.1354 17.4765L65.0099 16.5048L64.8391 15.5505L64.6229 14.6102L64.3579 13.6873L64.0511 12.7817L63.7024 11.9006L63.3049 11.0369L62.8795 10.1941L62.4053 9.38605L61.8962 8.59198L61.3488 7.82577L60.77 7.09787L60.1598 6.38739L59.5078 5.70825L58.8278 5.06394L58.1165 4.45446L57.3808 3.87283L56.6137 3.32952L55.8187 2.82104L55.0028 2.35435L54.159 1.92597L53.2908 1.53242L52.4017 1.18414L51.4916 0.874174L50.5641 0.612967L49.6227 0.393552L48.6534 0.222897L47.6805 0.0975174L46.6833 0.0278621L45.6756 0L44.6749 0.0278621L43.6812 0.0975174L42.7084 0.222897L41.746 0.393552L40.8046 0.612967L39.8771 0.874174L38.974 1.18414L38.0849 1.53242L37.2201 1.92597L36.3868 2.35435L35.5674 2.82104L34.7794 3.32952L34.0158 3.87283L33.2766 4.45446L32.5722 5.06394L31.8958 5.70825L31.2473 6.38739L30.6371 7.09787L30.0583 7.82577L29.5178 8.59198L29.0087 9.38605L28.5415 10.1941L28.1091 11.0369L27.7186 11.9006L27.3699 12.7817L27.0666 13.6873L26.8051 14.6102L26.5854 15.5505L26.4146 16.5048L26.289 17.4765L26.2193 18.4621L26.1914 19.4617L26.2193 20.4682L26.289 21.4643L26.4146 22.436L26.5854 23.4042L26.8051 24.3445L27.0666 25.2709L27.3699 26.1799L27.7186 27.068L28.1091 27.9353L28.5415 28.7781L29.0087 29.5931L29.5178 30.3871L30.0583 31.1498L30.6371 31.8882L31.2473 32.5987L31.8958 33.2778L32.5722 33.9256L33.2766 34.5386L34.0158 35.1167L34.7794 35.6635L35.5674 36.1685L36.3868 36.6457L37.2201 37.0705L38.0849 37.4676L38.974 37.8159L39.8771 38.1223L40.8046 38.387L41.746 38.603L42.7084 38.7736L43.6812 38.899L44.6749 38.9721L45.6756 39Z" fill="#FBB231"/>
<path fill-rule="evenodd" clip-rule="evenodd" d="M19.5574 39L20.5582 38.9721L21.5519 38.899L22.5282 38.7736L23.4906 38.603L24.432 38.387L25.3595 38.1223L26.2626 37.8159L27.1517 37.4676L28.0129 37.0705L28.8498 36.6457L29.6657 36.1685L30.4572 35.6635L31.2208 35.1167L31.9565 34.5386L32.6643 33.9256L33.3408 33.2778L33.9858 32.5987L34.5995 31.8882L35.1783 31.1498L35.7188 30.3871L36.2243 29.5931L36.6916 28.7781L37.1274 27.9353L37.5145 27.068L37.8666 26.1799L38.1665 25.2709L38.4315 24.3445L38.6477 23.4042L38.8185 22.436L38.944 21.4643L39.0173 20.4682L39.0452 19.4617L39.0173 18.4621L38.944 17.4765L38.8185 16.5048L38.6477 15.5505L38.4315 14.6102L38.1665 13.6873L37.8666 12.7817L37.5145 11.9006L37.1274 11.0369L36.6916 10.1941L36.2243 9.38605L35.7188 8.59198L35.1783 7.82577L34.5995 7.09787L33.9858 6.38739L33.3408 5.70825L32.6643 5.06394L31.9565 4.45446L31.2208 3.87283L30.4572 3.32952L29.6657 2.82104L28.8498 2.35435L28.0129 1.92597L27.1517 1.53242L26.2626 1.18414L25.3595 0.874174L24.432 0.612967L23.4906 0.393552L22.5282 0.222897L21.5519 0.0975174L20.5582 0.0278621L19.5574 0L18.5498 0.0278621L17.556 0.0975174L16.5832 0.222897L15.6139 0.393552L14.6724 0.612967L13.745 0.874174L12.8349 1.18414L11.9458 1.53242L11.0776 1.92597L10.2338 2.35435L9.41784 2.82104L8.61936 3.32952L7.85576 3.87283L7.12004 4.45446L6.40873 5.06394L5.72881 5.70825L5.07678 6.38739L4.4631 7.09787L3.88429 7.82577L3.34035 8.59198L2.83128 9.38605L2.35708 10.1941L1.9282 11.0369L1.53419 11.9006L1.18551 12.7817L0.875186 13.6873L0.613676 14.6102L0.394008 15.5505L0.223155 16.5048L0.0976303 17.4765L0.0278944 18.4621L0 19.4617L0.0278944 20.4682L0.0976303 21.4643L0.223155 22.436L0.394008 23.4042L0.613676 24.3445L0.875186 25.2709L1.18551 26.1799L1.53419 27.068L1.9282 27.9353L2.35708 28.7781L2.83128 29.5931L3.34035 30.3871L3.88429 31.1498L4.4631 31.8882L5.07678 32.5987L5.72881 33.2778L6.40873 33.9256L7.12004 34.5386L7.85576 35.1167L8.61936 35.6635L9.41784 36.1685L10.2338 36.6457L11.0776 37.0705L11.9458 37.4676L12.8349 37.8159L13.745 38.1223L14.6724 38.387L15.6139 38.603L16.5832 38.7736L17.556 38.899L18.5498 38.9721L19.5574 39Z" fill="#EC1C2E"/>
<path fill-rule="evenodd" clip-rule="evenodd" d="M30.3281 7.47771H40.7013V6.41895H31.2242L30.3281 7.47771Z" fill="#FBB231"/>
<path fill-rule="evenodd" clip-rule="evenodd" d="M28.7773 9.8322H40.7057V8.77344H29.405L28.7773 9.8322Z" fill="#FBB231"/>
<path fill-rule="evenodd" clip-rule="evenodd" d="M27.6172 12.1828H40.7031V11.124H28.0774L27.6172 12.1828Z" fill="#FBB231"/>
<path fill-rule="evenodd" clip-rule="evenodd" d="M26.8242 14.5373H40.7086V13.4785H27.1555L26.8242 14.5373Z" fill="#FBB231"/>
<path fill-rule="evenodd" clip-rule="evenodd" d="M27.2844 25.9152H40.7364V24.8564H26.9531L27.2844 25.9152Z" fill="#FBB231"/>
<path fill-rule="evenodd" clip-rule="evenodd" d="M28.2764 28.2687H40.7347V27.21H27.7812L28.2764 28.2687Z" fill="#FBB231"/>
<path fill-rule="evenodd" clip-rule="evenodd" d="M29.6777 30.6208H40.7413V29.5586H29.0117L29.6777 30.6208Z" fill="#FBB231"/>
<path fill-rule="evenodd" clip-rule="evenodd" d="M31.595 32.9749H40.7339V31.9092H30.6641L31.595 32.9749Z" fill="#FBB231"/>
<path fill-rule="evenodd" clip-rule="evenodd" d="M26.3516 16.884H40.7032V15.8252H26.5573L26.3516 16.884Z" fill="#FBB231"/>
<path fill-rule="evenodd" clip-rule="evenodd" d="M35.0977 23.5675H40.5719V22.5088H35.2964L35.0977 23.5675Z" fill="#FBB231"/>
<path fill-rule="evenodd" clip-rule="evenodd" d="M35.5352 21.22H40.5736V20.1543H35.7339L35.5352 21.22Z" fill="#FBB231"/>
<path fill-rule="evenodd" clip-rule="evenodd" d="M25.9922 20.1543H27.4148V21.22H26.0584L25.9922 20.1543Z" fill="#FBB231"/>
<path fill-rule="evenodd" clip-rule="evenodd" d="M23.3387 18.8697L23.248 18.8662L23.1539 18.8523L23.0702 18.8384L22.983 18.8244L22.9063 18.8105L22.8191 18.8001L22.732 18.7861L22.6413 18.7722L22.5506 18.7583L22.4425 18.7513L22.324 18.7478L22.202 18.7408H22.0625L21.9091 18.7478L21.7382 18.7583L21.5499 18.7722L21.4174 18.7931L21.2919 18.8105L21.1803 18.8523L21.0792 18.8906L20.9886 18.9359L20.9014 18.9881L20.8386 19.0543L20.7793 19.1135L20.7375 19.1866L20.7061 19.2598L20.6922 19.3399V19.4165L20.7131 19.5036L20.7375 19.5872L20.7898 19.6742L20.8561 19.7578L20.9886 19.8832L21.1455 19.9842L21.3303 20.0678L21.529 20.1409L21.7382 20.2071L21.9579 20.2802L22.1741 20.3569L22.3833 20.4439L22.582 20.5554L22.7668 20.6947L22.9307 20.8584L23.0702 21.0604L23.1748 21.3111L23.241 21.6072L23.2689 21.9624L23.241 22.3769L23.1957 22.6868L23.1155 22.955L23.0109 23.2058L22.8784 23.4217L22.7285 23.6132L22.5541 23.7769L22.3728 23.9232L22.1671 24.0486L21.9579 24.1461L21.7382 24.2332L21.5151 24.2993L21.2849 24.3516L21.0618 24.3899L20.8421 24.4108L20.6259 24.4212L20.4237 24.4282H20.1378L19.8763 24.4212H19.6461L19.4265 24.4143L19.2312 24.4108L19.0534 24.3969L18.893 24.3829L18.7431 24.362L18.6036 24.3516L18.4781 24.3237L18.356 24.3028L18.241 24.2715L18.1294 24.2436L18.0248 24.2053L17.9202 24.167L17.8086 24.1252L18.105 22.6729L18.1642 22.6868L18.2375 22.7042L18.3281 22.7321L18.4397 22.76L18.5583 22.7843L18.6908 22.8122L18.8337 22.8435L18.9941 22.8714L19.158 22.8958L19.3288 22.9236L19.5067 22.9445L19.6915 22.962L19.8832 22.9689L20.0715 22.9759H20.2633L20.4551 22.9689L20.6468 22.9306L20.7968 22.8784L20.9153 22.8052L21.0095 22.7112L21.0757 22.6206L21.128 22.5162L21.1594 22.4117L21.1873 22.3107L21.1978 22.1191L21.1385 21.9554L21.0269 21.8231L20.863 21.7116L20.6678 21.6141L20.4342 21.5166L20.1796 21.4226L19.9216 21.3181L19.6601 21.1997L19.409 21.0604L19.1789 20.8897L18.9662 20.6877L18.8023 20.437L18.6838 20.1409L18.6245 19.7857L18.6315 19.3643L18.6629 19.1065L18.7117 18.8662L18.7744 18.6398L18.8546 18.4309L18.9592 18.2324L19.0778 18.0617L19.2173 17.898L19.3811 17.7517L19.5729 17.6298L19.7821 17.5219L20.0192 17.4244L20.2842 17.3512L20.5806 17.292L20.9014 17.2467L21.257 17.2189L21.6476 17.2119H21.8916L22.1148 17.2189L22.3205 17.2258L22.5018 17.2328L22.6692 17.2467L22.8191 17.2607L22.9516 17.2746L23.0702 17.2851L23.1817 17.299L23.2724 17.3199L23.3596 17.3338L23.4398 17.3443L23.5025 17.3582L23.5653 17.3652L23.6211 17.3791L23.6769 17.3861L23.3387 18.8697Z" fill="white"/>
<path d="M23.3387 18.8697L23.248 18.8662L23.1539 18.8523L23.0702 18.8384L22.983 18.8244L22.9063 18.8105L22.8191 18.8001L22.732 18.7861L22.6413 18.7722L22.5506 18.7583L22.4425 18.7513L22.324 18.7478L22.202 18.7408H22.0625L21.9091 18.7478L21.7382 18.7583L21.5499 18.7722L21.4174 18.7931L21.2919 18.8105L21.1803 18.8523L21.0792 18.8906L20.9886 18.9359L20.9014 18.9881L20.8386 19.0543L20.7793 19.1135L20.7375 19.1866L20.7061 19.2598L20.6922 19.3399V19.4165L20.7131 19.5036L20.7375 19.5872L20.7898 19.6742L20.8561 19.7578L20.9886 19.8832L21.1455 19.9842L21.3303 20.0678L21.529 20.1409L21.7382 20.2071L21.9579 20.2802L22.1741 20.3569L22.3833 20.4439L22.582 20.5554L22.7668 20.6947L22.9307 20.8584L23.0702 21.0604L23.1748 21.3111L23.241 21.6072L23.2689 21.9624L23.241 22.3769L23.1957 22.6868L23.1155 22.955L23.0109 23.2058L22.8784 23.4217L22.7285 23.6132L22.5541 23.7769L22.3728 23.9232L22.1671 24.0486L21.9579 24.1461L21.7382 24.2332L21.5151 24.2993L21.2849 24.3516L21.0618 24.3899L20.8421 24.4108L20.6259 24.4212L20.4237 24.4282H20.1378L19.8763 24.4212H19.6461L19.4265 24.4143L19.2312 24.4108L19.0534 24.3969L18.893 24.3829L18.7431 24.362L18.6036 24.3516L18.4781 24.3237L18.356 24.3028L18.241 24.2715L18.1294 24.2436L18.0248 24.2053L17.9202 24.167L17.8086 24.1252L18.105 22.6729L18.1642 22.6868L18.2375 22.7042L18.3281 22.7321L18.4397 22.76L18.5583 22.7843L18.6908 22.8122L18.8337 22.8435L18.9941 22.8714L19.158 22.8958L19.3288 22.9236L19.5067 22.9445L19.6915 22.962L19.8832 22.9689L20.0715 22.9759H20.2633L20.4551 22.9689L20.6468 22.9306L20.7968 22.8784L20.9153 22.8052L21.0095 22.7112L21.0757 22.6206L21.128 22.5162L21.1594 22.4117L21.1873 22.3107L21.1978 22.1191L21.1385 21.9554L21.0269 21.8231L20.863 21.7116L20.6678 21.6141L20.4342 21.5166L20.1796 21.4226L19.9216 21.3181L19.6601 21.1997L19.409 21.0604L19.1789 20.8897L18.9662 20.6877L18.8023 20.437L18.6838 20.1409L18.6245 19.7857L18.6315 19.3643L18.6629 19.1065L18.7117 18.8662L18.7744 18.6398L18.8546 18.4309L18.9592 18.2324L19.0778 18.0617L19.2173 17.898L19.3811 17.7517L19.5729 17.6298L19.7821 17.5219L20.0192 17.4244L20.2842 17.3512L20.5806 17.292L20.9014 17.2467L21.257 17.2189L21.6476 17.2119H21.8916L22.1148 17.2189L22.3205 17.2258L22.5018 17.2328L22.6692 17.2467L22.8191 17.2607L22.9516 17.2746L23.0702 17.2851L23.1817 17.299L23.2724 17.3199L23.3596 17.3338L23.4398 17.3443L23.5025 17.3582L23.5653 17.3652L23.6211 17.3791L23.6769 17.3861L23.3387 18.8697Z" stroke="white" stroke-width="0.22" stroke-miterlimit="2.61"/>
<path fill-rule="evenodd" clip-rule="evenodd" d="M24.8987 15.7598H26.7222L26.4538 17.3514H27.5521L27.315 18.8385L26.1574 18.8072L25.5228 22.4745L25.5158 22.6069L25.5507 22.7183L25.6169 22.8054L25.7006 22.8785L25.8192 22.9238L25.9517 22.9621L26.0981 22.99L26.255 23.0004L26.398 22.997L26.5305 22.983L26.649 22.9621L26.7536 22.9377L26.8408 22.9099L26.9001 22.889L26.9384 22.8785L26.9524 22.8716L26.7222 24.094L26.6769 24.1254L26.6316 24.1532L26.5828 24.1811L26.5374 24.2055L26.4921 24.2264L26.4398 24.2438L26.3805 24.2647L26.3213 24.2856L26.255 24.303L26.1888 24.3169L26.1086 24.3309L26.0319 24.3448L25.9447 24.3587L25.8471 24.3692L25.7425 24.3831L25.6274 24.397H25.1288L24.8638 24.3761L24.6337 24.3517L24.4244 24.31L24.2466 24.2647L24.0932 24.2055L23.9712 24.1393L23.8561 24.0627L23.7724 23.9756L23.7062 23.8851L23.6608 23.7701L23.626 23.6587L23.6085 23.5333L23.6016 23.3975V23.2512L23.619 23.1014L23.6399 22.9377L24.8987 15.7598Z" fill="white"/>
<path d="M24.8987 15.7598H26.7222L26.4538 17.3514H27.5521L27.315 18.8385L26.1574 18.8072L25.5228 22.4745L25.5158 22.6069L25.5507 22.7183L25.6169 22.8054L25.7006 22.8785L25.8192 22.9238L25.9517 22.9621L26.0981 22.99L26.255 23.0004L26.398 22.997L26.5305 22.983L26.649 22.9621L26.7536 22.9377L26.8408 22.9099L26.9001 22.889L26.9384 22.8785L26.9524 22.8716L26.7222 24.094L26.6769 24.1254L26.6316 24.1532L26.5828 24.1811L26.5374 24.2055L26.4921 24.2264L26.4398 24.2438L26.3805 24.2647L26.3213 24.2856L26.255 24.303L26.1888 24.3169L26.1086 24.3309L26.0319 24.3448L25.9447 24.3587L25.8471 24.3692L25.7425 24.3831L25.6274 24.397H25.1288L24.8638 24.3761L24.6337 24.3517L24.4244 24.31L24.2466 24.2647L24.0932 24.2055L23.9712 24.1393L23.8561 24.0627L23.7724 23.9756L23.7062 23.8851L23.6608 23.7701L23.626 23.6587L23.6085 23.5333L23.6016 23.3975V23.2512L23.619 23.1014L23.6399 22.9377L24.8987 15.7598Z" stroke="white" stroke-width="0.22" stroke-miterlimit="2.61"/>
<path fill-rule="evenodd" clip-rule="evenodd" d="M29.0033 21.3181L28.9858 21.4295L28.9789 21.548L28.9928 21.6733L29.0172 21.7987L29.0625 21.9241L29.1148 22.0425L29.1881 22.1679L29.2683 22.2793L29.3589 22.3908L29.46 22.4883L29.5646 22.5858L29.6832 22.6659L29.8017 22.7391L29.9342 22.7983L30.0632 22.8435L30.1957 22.8714L30.3666 22.8958L30.534 22.9167L30.7048 22.9376L30.8757 22.948L31.0465 22.955H31.2243L31.3952 22.948L31.573 22.9376L31.7509 22.9097L31.9287 22.8784L32.1135 22.8366L32.2913 22.7774L32.4761 22.7042L32.6644 22.6276L32.8492 22.5231L33.041 22.4117L32.7795 24.0277L32.6714 24.0799L32.5668 24.1322L32.4622 24.174L32.3645 24.2123L32.2634 24.2436L32.1588 24.2784L32.0542 24.3028L31.9426 24.3237L31.8241 24.3446L31.6916 24.3585L31.5521 24.369L31.4022 24.3829L31.2313 24.3899H31.0535L30.8478 24.3969H30.6316L30.3073 24.3899L29.9796 24.3585L29.6483 24.3098L29.3206 24.2332L28.9963 24.1322L28.6894 24.0068L28.3931 23.8431L28.1141 23.6515L27.8596 23.4286L27.6364 23.1605L27.4447 22.8575L27.2843 22.5092L27.1727 22.1191L27.103 21.6803L27.082 21.1927L27.1134 20.6529L27.1413 20.4439L27.1797 20.2001L27.232 19.9424L27.3052 19.6673L27.4028 19.3852L27.5214 19.1031L27.6748 18.8105L27.8596 18.5354L28.0688 18.2742L28.3268 18.0234L28.6162 17.8005L28.944 17.602L29.3275 17.4383L29.7564 17.3199L30.2306 17.2398L30.7641 17.2119L31.0186 17.2189L31.2906 17.2467L31.5591 17.292L31.8311 17.3582L32.0926 17.4557L32.3506 17.5741L32.5877 17.7343L32.8039 17.9189L33.0026 18.1418L33.1665 18.403L33.299 18.706L33.3896 19.0543L33.4419 19.4513L33.4489 19.8971L33.4036 20.3986L33.306 20.9489L33.2711 21.3494H28.4698L28.7731 20.0539H31.6567L31.6707 19.8902L31.6637 19.7334L31.6532 19.5872L31.6253 19.4583L31.58 19.3329L31.5347 19.2215L31.4684 19.1205L31.4022 19.0299L31.322 18.9498L31.2383 18.8836L31.1372 18.8244L31.0395 18.7722L30.9349 18.7339L30.8303 18.706L30.7153 18.6886L30.5967 18.6747L30.4747 18.6816L30.3561 18.6991L30.2411 18.7269L30.1295 18.7652L30.0179 18.8175L29.9203 18.8767L29.8227 18.9498L29.7355 19.0299L29.6483 19.1205L29.5716 19.2215L29.4984 19.326L29.4391 19.4374L29.3798 19.5558L29.3345 19.6882L29.2927 19.817L29.2683 19.9563L29.0033 21.3181Z" fill="white"/>
<path d="M29.0033 21.3181L28.9858 21.4295L28.9789 21.548L28.9928 21.6733L29.0172 21.7987L29.0625 21.9241L29.1148 22.0425L29.1881 22.1679L29.2683 22.2793L29.3589 22.3908L29.46 22.4883L29.5646 22.5858L29.6832 22.6659L29.8017 22.7391L29.9342 22.7983L30.0632 22.8435L30.1957 22.8714L30.3666 22.8958L30.534 22.9167L30.7048 22.9376L30.8757 22.948L31.0465 22.955H31.2243L31.3952 22.948L31.573 22.9376L31.7509 22.9097L31.9287 22.8784L32.1135 22.8366L32.2913 22.7774L32.4761 22.7042L32.6644 22.6276L32.8492 22.5231L33.041 22.4117L32.7795 24.0277L32.6714 24.0799L32.5668 24.1322L32.4622 24.174L32.3645 24.2123L32.2634 24.2436L32.1588 24.2784L32.0542 24.3028L31.9426 24.3237L31.8241 24.3446L31.6916 24.3585L31.5521 24.369L31.4022 24.3829L31.2313 24.3899H31.0535L30.8478 24.3969H30.6316L30.3073 24.3899L29.9796 24.3585L29.6483 24.3098L29.3206 24.2332L28.9963 24.1322L28.6894 24.0068L28.3931 23.8431L28.1141 23.6515L27.8596 23.4286L27.6364 23.1605L27.4447 22.8575L27.2843 22.5092L27.1727 22.1191L27.103 21.6803L27.082 21.1927L27.1134 20.6529L27.1413 20.4439L27.1797 20.2001L27.232 19.9424L27.3052 19.6673L27.4028 19.3852L27.5214 19.1031L27.6748 18.8105L27.8596 18.5354L28.0688 18.2742L28.3268 18.0234L28.6162 17.8005L28.944 17.602L29.3275 17.4383L29.7564 17.3199L30.2306 17.2398L30.7641 17.2119L31.0186 17.2189L31.2906 17.2467L31.5591 17.292L31.8311 17.3582L32.0926 17.4557L32.3506 17.5741L32.5877 17.7343L32.8039 17.9189L33.0026 18.1418L33.1665 18.403L33.299 18.706L33.3896 19.0543L33.4419 19.4513L33.4489 19.8971L33.4036 20.3986L33.306 20.9489L33.2711 21.3494H28.4698L28.7731 20.0539H31.6567L31.6707 19.8902L31.6637 19.7334L31.6532 19.5872L31.6253 19.4583L31.58 19.3329L31.5347 19.2215L31.4684 19.1205L31.4022 19.0299L31.322 18.9498L31.2383 18.8836L31.1372 18.8244L31.0395 18.7722L30.9349 18.7339L30.8303 18.706L30.7153 18.6886L30.5967 18.6747L30.4747 18.6816L30.3561 18.6991L30.2411 18.7269L30.1295 18.7652L30.0179 18.8175L29.9203 18.8767L29.8227 18.9498L29.7355 19.0299L29.6483 19.1205L29.5716 19.2215L29.4984 19.326L29.4391 19.4374L29.3798 19.5558L29.3345 19.6882L29.2927 19.817L29.2683 19.9563L29.0033 21.3181Z" stroke="white" stroke-width="0.22" stroke-miterlimit="2.61"/>
<path fill-rule="evenodd" clip-rule="evenodd" d="M44.7112 17.7486L44.6241 17.6998L44.5404 17.6615L44.4463 17.6162L44.3486 17.5675L44.251 17.5291L44.1359 17.4908L44.0243 17.449L43.9058 17.4107L43.7803 17.3794L43.6582 17.3515L43.5188 17.3271L43.3793 17.3062L43.2294 17.2923L43.0759 17.2784H42.919H42.7552H42.5913L42.4169 17.2923L42.2391 17.3132L42.0578 17.3446L41.873 17.3968L41.6882 17.4699L41.5034 17.564L41.3186 17.6824L41.1408 17.8252L40.9699 17.9958L40.806 18.2083L40.6456 18.4521L40.5027 18.7411L40.3632 19.0685L40.2377 19.4377L40.1331 19.8591L40.0947 20.0959L40.0668 20.3258L40.0529 20.5557L40.0599 20.7786L40.0808 21.0015L40.1261 21.2139L40.1854 21.4089L40.2586 21.6075L40.3562 21.7851L40.4748 21.9557L40.6143 22.109L40.7712 22.2448L40.949 22.3632L41.1547 22.4642L41.3779 22.5478L41.6289 22.607L41.7126 22.6279L41.8137 22.6453L41.9323 22.6593L42.0613 22.6732L42.2077 22.6871H42.3577H42.525L42.6889 22.6732L42.8598 22.6523L43.0306 22.6209L43.1945 22.5757L43.3619 22.5234L43.5257 22.4503L43.6757 22.3632L43.8151 22.2587L43.9476 22.1403L43.6513 23.8956L43.6094 23.9305L43.5711 23.9688L43.5188 24.0141L43.4595 24.0558L43.3863 24.1081L43.2956 24.1534L43.1875 24.1986L43.069 24.2404L42.919 24.2857L42.7482 24.3171L42.5494 24.3449L42.3193 24.3693L42.0613 24.3832L41.7684 24.3902L41.4302 24.3832L41.0606 24.3623L40.7607 24.331L40.4574 24.2648L40.154 24.1673L39.8507 24.035L39.5612 23.8782L39.2858 23.6797L39.0208 23.4498L38.7767 23.1852L38.5605 22.8891L38.3757 22.5617L38.2188 22.1926L38.1003 21.7921L38.0201 21.3497L37.9922 20.883L38.0061 20.3711L38.0794 19.8243L38.1317 19.5561L38.1909 19.2914L38.2572 19.0372L38.3234 18.7934L38.3967 18.5635L38.4803 18.3337L38.5675 18.1143L38.6582 17.9123L38.7558 17.7068L38.8569 17.5152L38.9685 17.3341L39.087 17.16L39.2056 16.9963L39.3381 16.8396L39.4671 16.6933L39.6066 16.5575L39.7565 16.4251L39.9099 16.2997L40.0668 16.1883L40.2307 16.0838L40.4085 15.9828L40.5864 15.8992L40.7712 15.8191L40.9629 15.746L41.1687 15.6798L41.3709 15.6276L41.5836 15.5823L41.8067 15.544L42.0299 15.5091L42.267 15.4848L42.5041 15.4708L42.7552 15.4639L42.9644 15.4708L43.1701 15.4848L43.3653 15.5022L43.5641 15.53L43.7489 15.5579L43.9267 15.5962L44.0976 15.6276L44.2545 15.6694L44.4079 15.7077L44.5404 15.746L44.6624 15.7878L44.7705 15.8261L44.8612 15.8574L44.9414 15.8853L45.0007 15.9131L45.039 15.9236L44.7112 17.7486Z" fill="white"/>
<path d="M44.7112 17.7486L44.6241 17.6998L44.5404 17.6615L44.4463 17.6162L44.3486 17.5675L44.251 17.5291L44.1359 17.4908L44.0243 17.449L43.9058 17.4107L43.7803 17.3794L43.6582 17.3515L43.5188 17.3271L43.3793 17.3062L43.2294 17.2923L43.0759 17.2784H42.919H42.7552H42.5913L42.4169 17.2923L42.2391 17.3132L42.0578 17.3446L41.873 17.3968L41.6882 17.4699L41.5034 17.564L41.3186 17.6824L41.1408 17.8252L40.9699 17.9958L40.806 18.2083L40.6456 18.4521L40.5027 18.7411L40.3632 19.0685L40.2377 19.4377L40.1331 19.8591L40.0947 20.0959L40.0668 20.3258L40.0529 20.5557L40.0599 20.7786L40.0808 21.0015L40.1261 21.2139L40.1854 21.4089L40.2586 21.6075L40.3562 21.7851L40.4748 21.9557L40.6143 22.109L40.7712 22.2448L40.949 22.3632L41.1547 22.4642L41.3779 22.5478L41.6289 22.607L41.7126 22.6279L41.8137 22.6453L41.9323 22.6593L42.0613 22.6732L42.2077 22.6871H42.3577H42.525L42.6889 22.6732L42.8598 22.6523L43.0306 22.6209L43.1945 22.5757L43.3619 22.5234L43.5257 22.4503L43.6757 22.3632L43.8151 22.2587L43.9476 22.1403L43.6513 23.8956L43.6094 23.9305L43.5711 23.9688L43.5188 24.0141L43.4595 24.0558L43.3863 24.1081L43.2956 24.1534L43.1875 24.1986L43.069 24.2404L42.919 24.2857L42.7482 24.3171L42.5494 24.3449L42.3193 24.3693L42.0613 24.3832L41.7684 24.3902L41.4302 24.3832L41.0606 24.3623L40.7607 24.331L40.4574 24.2648L40.154 24.1673L39.8507 24.035L39.5612 23.8782L39.2858 23.6797L39.0208 23.4498L38.7767 23.1852L38.5605 22.8891L38.3757 22.5617L38.2188 22.1926L38.1003 21.7921L38.0201 21.3497L37.9922 20.883L38.0061 20.3711L38.0794 19.8243L38.1317 19.5561L38.1909 19.2914L38.2572 19.0372L38.3234 18.7934L38.3967 18.5635L38.4803 18.3337L38.5675 18.1143L38.6582 17.9123L38.7558 17.7068L38.8569 17.5152L38.9685 17.3341L39.087 17.16L39.2056 16.9963L39.3381 16.8396L39.4671 16.6933L39.6066 16.5575L39.7565 16.4251L39.9099 16.2997L40.0668 16.1883L40.2307 16.0838L40.4085 15.9828L40.5864 15.8992L40.7712 15.8191L40.9629 15.746L41.1687 15.6798L41.3709 15.6276L41.5836 15.5823L41.8067 15.544L42.0299 15.5091L42.267 15.4848L42.5041 15.4708L42.7552 15.4639L42.9644 15.4708L43.1701 15.4848L43.3653 15.5022L43.5641 15.53L43.7489 15.5579L43.9267 15.5962L44.0976 15.6276L44.2545 15.6694L44.4079 15.7077L44.5404 15.746L44.6624 15.7878L44.7705 15.8261L44.8612 15.8574L44.9414 15.8853L45.0007 15.9131L45.039 15.9236L44.7112 17.7486Z" stroke="white" stroke-width="0.22" stroke-miterlimit="2.61"/>
<path fill-rule="evenodd" clip-rule="evenodd" d="M60.9228 24.3974H59.0992L59.2317 23.666V23.5998L59.1271 23.7321L59.0155 23.8506L58.9039 23.955L58.7854 24.0491L58.6668 24.1327L58.5483 24.2058L58.4297 24.265L58.3042 24.3242L58.1787 24.3695L58.0532 24.4043L57.9276 24.4357L57.7951 24.4566L57.6661 24.4775L57.5406 24.4879L57.4081 24.4949H57.2756L56.9339 24.4705L56.6166 24.3974L56.3272 24.2859L56.0657 24.1327L55.8286 23.9446L55.6159 23.7182L55.4311 23.4744L55.2742 23.1993L55.1417 22.9032L55.0371 22.5933L54.9639 22.2729L54.9116 21.9385L54.8906 21.6007L54.8976 21.2594L54.9325 20.925L54.9917 20.5872L55.0894 20.2006L55.2079 19.8314L55.3474 19.4971L55.5113 19.1802L55.6821 18.8841L55.8809 18.6229L56.0831 18.3861L56.3028 18.1667L56.5329 17.9786L56.777 17.8114L57.028 17.6686L57.2756 17.5572L57.5406 17.4632L57.8021 17.404L58.0671 17.3656L58.3356 17.3517L58.5274 17.3587L58.7122 17.3796L58.883 17.4109L59.0399 17.4562L59.1933 17.5084L59.3258 17.5676L59.4548 17.6408L59.5734 17.7139L59.6815 17.794L59.7791 17.8776L59.8628 17.9647L59.943 18.0483L60.0092 18.1353L60.0685 18.2189L60.1208 18.299L60.1592 18.3791L60.6229 15.7949H62.4116L60.9228 24.3974Z" fill="white"/>
<path d="M60.9228 24.3974H59.0992L59.2317 23.666V23.5998L59.1271 23.7321L59.0155 23.8506L58.9039 23.955L58.7854 24.0491L58.6668 24.1327L58.5483 24.2058L58.4297 24.265L58.3042 24.3242L58.1787 24.3695L58.0532 24.4043L57.9276 24.4357L57.7951 24.4566L57.6661 24.4775L57.5406 24.4879L57.4081 24.4949H57.2756L56.9339 24.4705L56.6166 24.3974L56.3272 24.2859L56.0657 24.1327L55.8286 23.9446L55.6159 23.7182L55.4311 23.4744L55.2742 23.1993L55.1417 22.9032L55.0371 22.5933L54.9639 22.2729L54.9116 21.9385L54.8906 21.6007L54.8976 21.2594L54.9325 20.925L54.9917 20.5872L55.0894 20.2006L55.2079 19.8314L55.3474 19.4971L55.5113 19.1802L55.6821 18.8841L55.8809 18.6229L56.0831 18.3861L56.3028 18.1667L56.5329 17.9786L56.777 17.8114L57.028 17.6686L57.2756 17.5572L57.5406 17.4632L57.8021 17.404L58.0671 17.3656L58.3356 17.3517L58.5274 17.3587L58.7122 17.3796L58.883 17.4109L59.0399 17.4562L59.1933 17.5084L59.3258 17.5676L59.4548 17.6408L59.5734 17.7139L59.6815 17.794L59.7791 17.8776L59.8628 17.9647L59.943 18.0483L60.0092 18.1353L60.0685 18.2189L60.1208 18.299L60.1592 18.3791L60.6229 15.7949H62.4116L60.9228 24.3974Z" stroke="white" stroke-width="0.22" stroke-miterlimit="2.61"/>
<path fill-rule="evenodd" clip-rule="evenodd" d="M57.9431 22.8049L58.1279 22.791L58.2988 22.7527L58.4557 22.7039L58.6091 22.6342L58.7451 22.5541L58.8776 22.4566L59.0031 22.3452L59.1147 22.2268L59.2123 22.0944L59.3064 21.9481L59.3901 21.7984L59.4634 21.6417L59.5296 21.4745L59.5819 21.3038L59.6272 21.1262L59.6621 20.9486L59.6935 20.764L59.7144 20.5759V20.3983L59.7074 20.2137L59.6865 20.0431L59.6621 19.8759L59.6168 19.7192L59.5645 19.5694L59.4982 19.4371L59.418 19.3117L59.3309 19.2072L59.2332 19.1132L59.1216 19.0365L59.0031 18.9843L58.8776 18.9495L58.7416 18.9355L58.5603 18.9495L58.3964 18.9773L58.2465 19.0296L58.093 19.0958L57.964 19.1793L57.8315 19.2838L57.72 19.3988L57.6084 19.5207L57.5073 19.6669L57.4166 19.8167L57.3294 19.9769L57.2597 20.1475L57.1934 20.3252L57.1411 20.5028L57.0854 20.6943L57.047 20.8824L57.0156 21.1715L57.0296 21.4884L57.0749 21.8123L57.1586 22.1188L57.2911 22.3905L57.4619 22.6064L57.6781 22.7527L57.9431 22.8049Z" fill="#FBB231"/>
<path fill-rule="evenodd" clip-rule="evenodd" d="M17.5008 22.9375L17.2358 24.3968H15.5761L15.6249 24.1251L15.6563 23.8848L15.6842 23.7002L15.7086 23.5992L15.6179 23.7072L15.5133 23.8117L15.3878 23.9092L15.2483 24.0032L15.0914 24.0938L14.924 24.1739L14.7532 24.2505L14.5754 24.3167L14.3871 24.3759L14.1953 24.4212L14.0035 24.463L13.8048 24.4873L13.6165 24.5013L13.4247 24.5082L13.2399 24.4873L13.0621 24.463L12.832 24.4038L12.6193 24.3376L12.4379 24.2505L12.2706 24.153L12.1276 24.0485L11.9951 23.9301L11.8905 23.8047L11.7964 23.6724L11.7197 23.5331L11.6534 23.3903L11.6011 23.244L11.5593 23.1012L11.5349 22.948L11.5139 22.7982L11.5 22.6519V22.5091L11.5209 22.2514L11.5593 22.0076L11.6255 21.7778L11.7127 21.5549L11.8173 21.3459L11.9358 21.1543L12.0753 20.9698L12.2322 20.8061L12.3961 20.6528L12.5809 20.517L12.7727 20.3916L12.9714 20.2837L13.1806 20.1931L13.3968 20.12L13.6235 20.0608L13.8536 20.0224H13.864L13.8989 20.0155L13.9442 20.0085L14.0175 20.0015L14.0942 19.9911L14.1883 19.9841L14.286 19.9702L14.3975 19.9563L14.5091 19.9423L14.6242 19.9319L14.7427 19.9249L14.8473 19.911L14.9519 19.904L15.0496 19.8971L15.1437 19.8901H15.2169H15.3669L15.5238 19.8971L15.6702 19.904H15.8132L15.9317 19.911L16.0259 19.918L16.0921 19.9249H16.1095L16.1235 19.8762L16.1653 19.7578L16.1967 19.6219L16.2107 19.4965L16.1828 19.3503L16.1235 19.2214L16.0468 19.103L15.9387 19.002L15.8132 18.9184L15.6772 18.8592L15.5168 18.8174L15.3459 18.807L15.1646 18.8L14.9659 18.793H14.7602L14.5509 18.8L14.3348 18.8104L14.1221 18.8313L13.9129 18.8522L13.7071 18.8766L13.5084 18.9045L13.3201 18.9358L13.1493 18.9706L12.9889 19.002L12.8459 19.0438L12.7274 19.0821L12.6332 19.1274L12.56 19.1657L13.0307 17.581L13.1737 17.5218L13.3201 17.4696L13.477 17.4243L13.6339 17.393L13.7943 17.3581L13.9652 17.3338L14.136 17.3059L14.3138 17.292L14.4986 17.278L14.6869 17.2745L14.8857 17.2676H15.0914H15.3006H15.5168L15.7504 17.2745L15.9805 17.278L16.1653 17.292L16.3606 17.3268L16.5663 17.3721L16.7755 17.4313L16.9812 17.5079L17.1765 17.6019L17.3753 17.7134L17.5601 17.8388L17.7239 17.9815L17.8704 18.1418L17.9994 18.3194L18.1005 18.5144L18.1668 18.7269L18.2051 18.9498V19.2005L18.1668 19.4617L17.5008 22.9375Z" fill="white"/>
<path d="M17.5008 22.9375L17.2358 24.3968H15.5761L15.6249 24.1251L15.6563 23.8848L15.6842 23.7002L15.7086 23.5992L15.6179 23.7072L15.5133 23.8117L15.3878 23.9092L15.2483 24.0032L15.0914 24.0938L14.924 24.1739L14.7532 24.2505L14.5754 24.3167L14.3871 24.3759L14.1953 24.4212L14.0035 24.463L13.8048 24.4873L13.6165 24.5013L13.4247 24.5082L13.2399 24.4873L13.0621 24.463L12.832 24.4038L12.6193 24.3376L12.4379 24.2505L12.2706 24.153L12.1276 24.0485L11.9951 23.9301L11.8905 23.8047L11.7964 23.6724L11.7197 23.5331L11.6534 23.3903L11.6011 23.244L11.5593 23.1012L11.5349 22.948L11.5139 22.7982L11.5 22.6519V22.5091L11.5209 22.2514L11.5593 22.0076L11.6255 21.7778L11.7127 21.5549L11.8173 21.3459L11.9358 21.1543L12.0753 20.9698L12.2322 20.8061L12.3961 20.6528L12.5809 20.517L12.7727 20.3916L12.9714 20.2837L13.1806 20.1931L13.3968 20.12L13.6235 20.0608L13.8536 20.0224H13.864L13.8989 20.0155L13.9442 20.0085L14.0175 20.0015L14.0942 19.9911L14.1883 19.9841L14.286 19.9702L14.3975 19.9563L14.5091 19.9423L14.6242 19.9319L14.7427 19.9249L14.8473 19.911L14.9519 19.904L15.0496 19.8971L15.1437 19.8901H15.2169H15.3669L15.5238 19.8971L15.6702 19.904H15.8132L15.9317 19.911L16.0259 19.918L16.0921 19.9249H16.1095L16.1235 19.8762L16.1653 19.7578L16.1967 19.6219L16.2107 19.4965L16.1828 19.3503L16.1235 19.2214L16.0468 19.103L15.9387 19.002L15.8132 18.9184L15.6772 18.8592L15.5168 18.8174L15.3459 18.807L15.1646 18.8L14.9659 18.793H14.7602L14.5509 18.8L14.3348 18.8104L14.1221 18.8313L13.9129 18.8522L13.7071 18.8766L13.5084 18.9045L13.3201 18.9358L13.1493 18.9706L12.9889 19.002L12.8459 19.0438L12.7274 19.0821L12.6332 19.1274L12.56 19.1657L13.0307 17.581L13.1737 17.5218L13.3201 17.4696L13.477 17.4243L13.6339 17.393L13.7943 17.3581L13.9652 17.3338L14.136 17.3059L14.3138 17.292L14.4986 17.278L14.6869 17.2745L14.8857 17.2676H15.0914H15.3006H15.5168L15.7504 17.2745L15.9805 17.278L16.1653 17.292L16.3606 17.3268L16.5663 17.3721L16.7755 17.4313L16.9812 17.5079L17.1765 17.6019L17.3753 17.7134L17.5601 17.8388L17.7239 17.9815L17.8704 18.1418L17.9994 18.3194L18.1005 18.5144L18.1668 18.7269L18.2051 18.9498V19.2005L18.1668 19.4617L17.5008 22.9375Z" stroke="white" stroke-width="0.22" stroke-miterlimit="2.61"/>
<path fill-rule="evenodd" clip-rule="evenodd" d="M15.9148 21.22L15.9079 21.1851L15.88 21.1538L15.8416 21.1329L15.7754 21.119L15.7021 21.1085L15.6185 21.1016H15.5173H15.4197L15.3151 21.1085L15.2035 21.119L15.0989 21.1329L14.9908 21.1468L14.8932 21.1608L14.8025 21.1782L14.7223 21.1991L14.6491 21.22L14.6038 21.2304L14.5515 21.2513L14.4783 21.2792L14.405 21.3105L14.3214 21.3488L14.2342 21.3976L14.1435 21.4429L14.0564 21.4951L13.9657 21.5613L13.8785 21.6275L13.8018 21.7041L13.7286 21.7842L13.6624 21.8713L13.617 21.9618L13.5752 22.0663L13.5578 22.1743L13.5508 22.3972L13.5822 22.5748L13.6484 22.7036L13.7356 22.8046L13.8332 22.8708L13.9448 22.9091L14.0494 22.93L14.1575 22.937L14.3527 22.93L14.5306 22.9091L14.7014 22.8813L14.8548 22.8429L14.9839 22.7977L15.1094 22.7385L15.221 22.6793L15.3221 22.6061L15.4058 22.5399L15.486 22.4633L15.5522 22.3902L15.6045 22.3101L15.6498 22.2335L15.6917 22.1534L15.7231 22.0802L15.744 22.0071L15.7963 21.819L15.8416 21.5996L15.88 21.3906L15.9148 21.22Z" fill="#EC1C2E"/>
<path fill-rule="evenodd" clip-rule="evenodd" d="M3.6481 24.397H1.85938L3.35172 15.7598H6.46892L6.7653 20.8829L8.91665 15.7598H12.1698L10.6426 24.397H8.8504L9.98361 17.9435H9.91039L7.23253 24.397H5.21019L5.19624 24.1254L5.15091 23.4114L5.09164 22.391L5.02539 21.2207L4.95914 20.0436L4.89986 19.0092L4.85453 18.2604L4.84059 17.9435H4.81967H4.78131H4.74296L3.6481 24.397Z" fill="white"/>
<path d="M3.6481 24.397H1.85938L3.35172 15.7598H6.46892L6.7653 20.8829L8.91665 15.7598H12.1698L10.6426 24.397H8.8504L9.98361 17.9435H9.91039L7.23253 24.397H5.21019L5.19624 24.1254L5.15091 23.4114L5.09164 22.391L5.02539 21.2207L4.95914 20.0436L4.89986 19.0092L4.85453 18.2604L4.84059 17.9435H4.81967H4.78131H4.74296L3.6481 24.397Z" stroke="white" stroke-width="0.22" stroke-miterlimit="2.61"/>
<path fill-rule="evenodd" clip-rule="evenodd" d="M50.1847 22.9375L49.9162 24.3968H48.2634L48.2739 24.1251L48.2809 23.8883V23.7107L48.2948 23.6341L48.2111 23.7316L48.11 23.8291L47.9915 23.9231L47.8625 24.0137L47.723 24.1008L47.5626 24.1809L47.3987 24.2575L47.2348 24.3237L47.057 24.3759L46.8722 24.4281L46.6874 24.463L46.5026 24.4873L46.3143 24.5013L46.1295 24.5082L45.9517 24.4873L45.7739 24.463L45.5368 24.4038L45.3241 24.3376L45.1428 24.2505L44.9684 24.153L44.8255 24.0485L44.6999 23.9301L44.5953 23.8047L44.5012 23.6724L44.4245 23.5331L44.3652 23.3903L44.3129 23.244L44.278 23.1012L44.2536 22.948L44.2327 22.7982L44.2188 22.6519V22.5091L44.2327 22.2514L44.2711 22.0076L44.3303 21.7778L44.4175 21.5549L44.5151 21.3459L44.6407 21.1543L44.7801 20.9698L44.9301 20.8061L45.1009 20.6528L45.2787 20.517L45.4705 20.3916L45.6727 20.2837L45.8785 20.1931L46.0946 20.12L46.3143 20.0608L46.5375 20.0224H46.5514L46.5828 20.0155L46.6281 20.0085L46.6944 20.0015L46.7815 19.9911L46.8722 19.9841L46.9733 19.9702L47.0779 19.9563L47.1895 19.9423L47.308 19.9319L47.4196 19.9249L47.5312 19.911L47.6358 19.904L47.73 19.8971L47.8206 19.8901H47.8938H48.0507L48.2111 19.8971L48.3611 19.904H48.5075L48.633 19.911L48.7376 19.918L48.7969 19.9249H48.8213L48.8353 19.8762L48.8562 19.7578L48.8736 19.6219L48.8876 19.4965L48.8632 19.3503L48.8074 19.2214L48.7237 19.103L48.6261 19.002L48.5075 18.9184L48.368 18.8592L48.2216 18.8174L48.0647 18.807L47.8799 18.8L47.6846 18.793H47.4789L47.2662 18.8L47.05 18.8104L46.8408 18.8313L46.6281 18.8522L46.4259 18.8766L46.2271 18.9045L46.0354 18.9358L45.8645 18.9706L45.7076 19.002L45.5612 19.0438L45.4426 19.0821L45.352 19.1274L45.2787 19.1657L45.739 17.581L45.8854 17.5218L46.0354 17.4696L46.1888 17.4243L46.3457 17.393L46.5096 17.3581L46.6769 17.3338L46.8478 17.3059L47.0256 17.292L47.2069 17.278L47.3987 17.2745L47.5905 17.2676H47.7962H47.9984H48.2111L48.4343 17.2745L48.6574 17.278L48.8422 17.292L49.041 17.3268L49.2432 17.3721L49.4559 17.4313L49.6582 17.5079L49.8639 17.6019L50.0591 17.7134L50.2439 17.8388L50.4078 17.9815L50.5612 18.1418L50.6937 18.3194L50.7914 18.5144L50.8646 18.7269L50.9099 18.9498V19.2005L50.875 19.4617L50.1847 22.9375Z" fill="white"/>
<path fill-rule="evenodd" clip-rule="evenodd" d="M49.9168 24.4422L49.9551 24.4039L50.2268 22.9446L50.1467 22.9307L49.875 24.3899L49.9168 24.3516V24.4422L49.9481 24.4352L49.9551 24.4039L49.9168 24.4422Z" fill="white"/>
<path fill-rule="evenodd" clip-rule="evenodd" d="M48.2218 24.3968L48.2637 24.4421H49.9164V24.3516H48.2637L48.302 24.3968H48.2218L48.2148 24.4421H48.2637L48.2218 24.3968Z" fill="white"/>
<path fill-rule="evenodd" clip-rule="evenodd" d="M48.3267 23.6587L48.2675 23.6064L48.2396 23.7109L48.2327 23.8885V24.1254L48.2188 24.397H48.2989L48.3128 24.1254L48.3267 23.8885L48.3197 23.7109V23.6587L48.2605 23.6064L48.3267 23.6587Z" fill="white"/>
<path fill-rule="evenodd" clip-rule="evenodd" d="M45.7695 24.5015L45.9543 24.5294L46.1322 24.5468L46.317 24.5398L46.5052 24.5294L46.697 24.5015L46.8818 24.4702L47.0666 24.4144L47.2514 24.3622L47.4153 24.2995L47.5862 24.2194L47.7465 24.1393L47.8825 24.0488L48.022 23.9547L48.1406 23.8642L48.2452 23.7597L48.3323 23.6587L48.2661 23.6064L48.1789 23.7074L48.0883 23.798L47.9697 23.8885L47.8442 23.9826L47.7047 24.0627L47.5478 24.1393L47.3874 24.2194L47.2235 24.2856L47.0527 24.3378L46.8679 24.3901L46.6831 24.4214L46.5052 24.4493L46.317 24.4632L46.1322 24.4702L45.9543 24.4493L45.7835 24.4214L45.7695 24.5015Z" fill="white"/>
<path fill-rule="evenodd" clip-rule="evenodd" d="M44.1758 22.5088L44.1828 22.6516L44.1967 22.7979L44.2141 22.9546L44.242 23.1078L44.2734 23.2506L44.3257 23.4039L44.385 23.5536L44.4722 23.6929L44.5628 23.8288L44.6674 23.9541L44.7999 24.0795L44.9533 24.184L45.1242 24.292L45.316 24.3756L45.5321 24.4417L45.7692 24.5009L45.7832 24.4208L45.5461 24.3616L45.3404 24.2989L45.1625 24.2119L44.9917 24.1213L44.8522 24.0133L44.7337 23.9019L44.6291 23.7765L44.5384 23.6511L44.4652 23.5153L44.4059 23.376L44.3536 23.2402L44.3187 23.0939L44.2943 22.9441L44.2734 22.7979L44.2595 22.6516L44.2664 22.5088H44.1758Z" fill="white"/>
<path fill-rule="evenodd" clip-rule="evenodd" d="M46.5398 19.9844L46.3097 20.0227L46.0865 20.0819L45.8669 20.155L45.6577 20.2456L45.452 20.3501L45.2567 20.4824L45.0789 20.6217L44.9045 20.7784L44.7476 20.9421L44.6081 21.1267L44.4791 21.3252L44.378 21.5412L44.2943 21.7641L44.2351 22.0009L44.1967 22.2517L44.1758 22.5094H44.2664L44.2734 22.2517L44.3153 22.0148L44.3745 21.7919L44.4582 21.569L44.5558 21.3635L44.6744 21.179L44.8139 20.9944L44.9603 20.8307L45.1312 20.6879L45.309 20.5486L45.4938 20.4302L45.696 20.3257L45.8948 20.2317L46.111 20.162L46.3236 20.1028L46.5398 20.061V19.9844Z" fill="white"/>
<path fill-rule="evenodd" clip-rule="evenodd" d="M47.8915 19.8447H47.8183L47.7276 19.8587L47.6335 19.8656L47.5289 19.8726L47.4173 19.883L47.3057 19.89L47.1872 19.9039L47.0756 19.9179L46.971 19.9318L46.8699 19.9422L46.7792 19.9492L46.6921 19.9631L46.6258 19.9701L46.5735 19.9771L46.5491 19.984H46.5352V20.0607H46.5491L46.5875 20.0537L46.6258 20.0467L46.6921 20.0432L46.7792 20.0293L46.8699 20.0223L46.971 20.0084L47.0756 19.9945L47.1872 19.984L47.3057 19.9701L47.4173 19.9631L47.5289 19.9492L47.6335 19.9422L47.7276 19.9353H47.8183H47.8915V19.8447Z" fill="white"/>
<path fill-rule="evenodd" clip-rule="evenodd" d="M48.7837 19.9179L48.822 19.883H48.7976L48.7383 19.8761L48.6337 19.8726L48.5082 19.8587H48.3618H48.2118L48.0514 19.8447H47.8945V19.9353H48.0514H48.2118L48.3618 19.9492H48.5082H48.6337L48.7383 19.9562L48.7976 19.9631H48.822L48.8639 19.9318L48.822 19.9631L48.8569 19.9701L48.8639 19.9318L48.7837 19.9179Z" fill="white"/>
<path fill-rule="evenodd" clip-rule="evenodd" d="M48.8513 19.4971H48.8444L48.8374 19.6225L48.8165 19.7548L48.7991 19.8732L48.7852 19.9185L48.8653 19.9324L48.8757 19.8837L48.8966 19.7652L48.9175 19.6225L48.9349 19.4971H48.9279H48.8513Z" fill="white"/>
<path fill-rule="evenodd" clip-rule="evenodd" d="M48.0664 18.8449V18.8518L48.2163 18.8588L48.3558 18.8971L48.4883 18.9563L48.5999 19.0364L48.6905 19.127L48.7707 19.2384L48.823 19.3568L48.8509 19.4962H48.9276L48.9032 19.3429L48.8509 19.2001L48.7568 19.0747L48.6522 18.9703L48.5267 18.8762L48.3837 18.817L48.2303 18.7787L48.0664 18.7578V18.7648V18.8449Z" fill="white"/>
<path fill-rule="evenodd" clip-rule="evenodd" d="M45.2422 19.1615L45.3084 19.1998L45.3747 19.165L45.4584 19.1197L45.5699 19.0814L45.7164 19.0431L45.8733 19.0083L46.0442 18.9769L46.2359 18.9421L46.4277 18.9177L46.6299 18.8899L46.8426 18.869L47.0518 18.8516L47.268 18.8376H47.4807H47.6864H47.8817L48.0665 18.8446V18.7645L47.8817 18.7575L47.6864 18.7471H47.4807L47.268 18.7575L47.0518 18.7714L46.8426 18.7923L46.6299 18.8098L46.4277 18.8376L46.222 18.8655L46.0302 18.8968L45.8594 18.9282L45.7024 18.963L45.556 19.0013L45.434 19.0431L45.3328 19.0884L45.2561 19.1337L45.3224 19.172L45.2422 19.1615Z" fill="white"/>
<path fill-rule="evenodd" clip-rule="evenodd" d="M45.7298 17.543L45.7019 17.5743L45.2422 19.1625L45.3223 19.1729L45.782 17.5882L45.7541 17.6231L45.7298 17.543L45.7089 17.5499L45.7019 17.5743L45.7298 17.543Z" fill="white"/>
<path fill-rule="evenodd" clip-rule="evenodd" d="M48.6594 17.2406L48.4362 17.2267L48.2131 17.2197H48.0004H47.7981H47.5924L47.4006 17.2337L47.2089 17.2406L47.0276 17.2546L46.8497 17.2685L46.6719 17.2929L46.5045 17.3207L46.3407 17.3521L46.1838 17.3869L46.0268 17.4322L45.8734 17.4844L45.7305 17.5436L45.7549 17.6237L45.9013 17.5645L46.0513 17.5088L46.1977 17.4635L46.3546 17.4322L46.5185 17.3973L46.6824 17.373L46.8497 17.3451L47.0276 17.3347L47.2089 17.3207L47.4006 17.3138H47.5924H47.7981H48.0004H48.2131L48.4362 17.3207H48.6594V17.2406Z" fill="white"/>
<path fill-rule="evenodd" clip-rule="evenodd" d="M50.9196 19.4692L50.951 19.201V18.9503L50.9057 18.7204L50.8324 18.5045L50.7278 18.299L50.5953 18.1144L50.4384 17.9507L50.2745 17.8044L50.0828 17.6825L49.884 17.5641L49.6748 17.4701L49.4691 17.3935L49.2529 17.3343L49.0472 17.2855L48.845 17.2542L48.6602 17.2402V17.3203L48.845 17.3343L49.0367 17.3656L49.239 17.4109L49.4447 17.4701L49.6469 17.5502L49.8457 17.6408L50.0444 17.7487L50.2222 17.8706L50.3861 18.0169L50.5291 18.1666L50.6616 18.3373L50.7557 18.5289L50.8255 18.7343L50.8743 18.9503V19.201L50.8394 19.4588L50.9196 19.4692Z" fill="white"/>
<path fill-rule="evenodd" clip-rule="evenodd" d="M50.2285 22.9443L50.9181 19.4685L50.838 19.458L50.1484 22.9303L50.2285 22.9443Z" fill="white"/>
<path fill-rule="evenodd" clip-rule="evenodd" d="M48.5913 21.2211L48.5774 21.1793L48.553 21.1479L48.5076 21.127L48.4414 21.1096L48.3682 21.1027L48.281 21.0957H48.1834L48.0857 21.1027L47.9776 21.1131L47.873 21.127L47.7684 21.141L47.6708 21.1549L47.5697 21.1723L47.486 21.1863L47.3988 21.2072L47.3326 21.2211L47.2873 21.228L47.235 21.2455L47.1687 21.2664L47.0955 21.2907L47.0118 21.3325L46.9316 21.3708L46.8409 21.4161L46.7538 21.4753L46.6701 21.5345L46.5829 21.6077L46.5097 21.6808L46.4365 21.7644L46.3807 21.8584L46.3319 21.9559L46.2935 22.0604L46.2726 22.1754L46.2656 22.3983L46.3005 22.5759L46.3528 22.7047L46.433 22.8057L46.5306 22.8719L46.6422 22.9102L46.7538 22.9311L46.8654 22.9381L47.0641 22.9311L47.2489 22.9102L47.4198 22.8789L47.5697 22.8301L47.7161 22.7779L47.8417 22.7187L47.9602 22.6525L48.0648 22.5759L48.1555 22.5027L48.2357 22.4157L48.3089 22.3391L48.3682 22.252L48.4135 22.1754L48.4484 22.0953L48.4728 22.0152L48.4937 21.942L48.5181 21.7609L48.553 21.5694L48.5774 21.3848L48.5913 21.2211Z" fill="#FBB231"/>
<path fill-rule="evenodd" clip-rule="evenodd" d="M50.6797 24.3971H52.5347L53.2006 20.6531L53.2285 20.5103L53.2669 20.3641L53.3052 20.2213L53.3575 20.075L53.4238 19.9322L53.504 19.7929L53.5912 19.6605L53.6958 19.5352L53.8143 19.4237L53.9468 19.3192L54.0967 19.2217L54.2676 19.1416L54.4594 19.0754L54.6686 19.0232L54.8987 18.9849L55.1567 18.9709H55.2509H55.3032H55.3206L55.617 17.2783L55.4322 17.2923L55.2544 17.3131L55.0905 17.3445L54.9336 17.3933L54.7871 17.4455L54.6511 17.5082L54.5186 17.5813L54.3931 17.6614L54.2746 17.752L54.163 17.846L54.0584 17.9505L53.9503 18.055L53.8527 18.1664L53.755 18.2918L53.6574 18.4102L53.5633 18.5426L53.762 17.3515H51.9105L50.6797 24.3971Z" fill="white"/>
<path d="M50.6797 24.3971H52.5347L53.2006 20.6531L53.2285 20.5103L53.2669 20.3641L53.3052 20.2213L53.3575 20.075L53.4238 19.9322L53.504 19.7929L53.5912 19.6605L53.6958 19.5352L53.8143 19.4237L53.9468 19.3192L54.0967 19.2217L54.2676 19.1416L54.4594 19.0754L54.6686 19.0232L54.8987 18.9849L55.1567 18.9709H55.2509H55.3032H55.3206L55.617 17.2783L55.4322 17.2923L55.2544 17.3131L55.0905 17.3445L54.9336 17.3933L54.7871 17.4455L54.6511 17.5082L54.5186 17.5813L54.3931 17.6614L54.2746 17.752L54.163 17.846L54.0584 17.9505L53.9503 18.055L53.8527 18.1664L53.755 18.2918L53.6574 18.4102L53.5633 18.5426L53.762 17.3515H51.9105L50.6797 24.3971Z" stroke="white" stroke-width="0.22" stroke-miterlimit="2.61"/>
<path fill-rule="evenodd" clip-rule="evenodd" d="M33.2461 24.3971H35.1011H35.1359L35.767 20.6531L35.7949 20.5103L35.8263 20.371L35.8612 20.2317L35.9065 20.1028L35.9588 19.9705L36.0251 19.8451L36.1018 19.7267L36.1959 19.6153L36.3005 19.5143L36.4191 19.4167L36.5655 19.3401L36.7224 19.267L36.9072 19.2078L37.1095 19.1555L37.3361 19.1207L37.5906 19.1033H37.6116L37.636 19.1068L37.6708 19.1137H37.7022L37.7371 19.1207L37.7615 19.1277L37.7824 19.1346H37.7894L37.7964 19.1068L37.8138 19.0302L37.8417 18.9117L37.8731 18.7655L37.9219 18.5948L37.9672 18.4102L38.0265 18.2256L38.0858 18.041L38.1381 17.9191L38.2043 17.7938L38.2706 17.6684L38.3368 17.5569L38.3961 17.4559L38.4414 17.3793L38.4728 17.334L38.4868 17.3131H38.4798L38.4554 17.3062L38.4205 17.2992L38.3752 17.2923H38.3298L38.2775 17.2853L38.2287 17.2783H38.1834L37.9812 17.2923L37.7964 17.3131L37.6255 17.3445L37.4651 17.3863L37.3152 17.4385L37.1757 17.5047L37.0502 17.5674L36.9316 17.6475L36.8201 17.7346L36.7155 17.8321L36.6178 17.9296L36.5167 18.041L36.4191 18.156L36.3284 18.2779L36.2273 18.4102L36.1297 18.5426L36.3668 17.3515H34.4769L33.2461 24.3971Z" fill="white"/>
<path d="M33.2461 24.3971H35.1011H35.1359L35.767 20.6531L35.7949 20.5103L35.8263 20.371L35.8612 20.2317L35.9065 20.1028L35.9588 19.9705L36.0251 19.8451L36.1018 19.7267L36.1959 19.6153L36.3005 19.5143L36.4191 19.4167L36.5655 19.3401L36.7224 19.267L36.9072 19.2078L37.1095 19.1555L37.3361 19.1207L37.5906 19.1033H37.6116L37.636 19.1068L37.6708 19.1137H37.7022L37.7371 19.1207L37.7615 19.1277L37.7824 19.1346H37.7894L37.7964 19.1068L37.8138 19.0302L37.8417 18.9117L37.8731 18.7655L37.9219 18.5948L37.9672 18.4102L38.0265 18.2256L38.0858 18.041L38.1381 17.9191L38.2043 17.7938L38.2706 17.6684L38.3368 17.5569L38.3961 17.4559L38.4414 17.3793L38.4728 17.334L38.4868 17.3131H38.4798L38.4554 17.3062L38.4205 17.2992L38.3752 17.2923H38.3298L38.2775 17.2853L38.2287 17.2783H38.1834L37.9812 17.2923L37.7964 17.3131L37.6255 17.3445L37.4651 17.3863L37.3152 17.4385L37.1757 17.5047L37.0502 17.5674L36.9316 17.6475L36.8201 17.7346L36.7155 17.8321L36.6178 17.9296L36.5167 18.041L36.4191 18.156L36.3284 18.2779L36.2273 18.4102L36.1297 18.5426L36.3668 17.3515H34.4769L33.2461 24.3971Z" stroke="white" stroke-width="0.22" stroke-miterlimit="2.61"/>
<path d="M28.2422 21.5929L28.4514 19.8516H28.6606L29.2882 20.045L29.079 21.3995L28.2422 21.5929Z" fill="white"/>
<path d="M127.038 5.22516C120.525 5.22516 114.705 8.58722 114.705 14.8003C114.705 21.9262 125.025 22.416 125.025 25.9966C125.025 27.5049 123.291 28.8511 120.33 28.8511C117.764 28.8344 115.241 28.1868 112.986 26.9657L111.641 33.2352C114.325 34.2896 117.184 34.8301 120.068 34.8281C127.19 34.8281 132.805 31.3039 132.805 24.9816C132.805 17.454 122.439 16.9747 122.439 13.655C122.439 12.4744 123.854 11.188 126.815 11.188C128.906 11.2159 130.968 11.683 132.865 12.5589L134.181 6.50443C131.9 5.6407 129.478 5.2069 127.038 5.22516ZM67.4561 5.6833L67.2969 6.59607C69.0737 6.93988 70.8165 7.43991 72.5047 8.09031C75.6888 9.23213 75.9082 9.8982 76.4424 11.9669L82.2729 34.3594H90.0917L102.121 5.6833H94.3372L86.5997 25.179L83.4404 8.65417C83.1503 6.7617 81.6714 5.6833 79.9025 5.6833H67.4561ZM105.269 5.6833L99.1523 34.3594H106.582L112.678 5.6833H105.248H105.269ZM146.748 5.6833C144.954 5.6833 144.006 6.63835 143.309 8.31233L132.412 34.3594H140.196L141.703 30.0176H151.202L152.118 34.3594H159L152.985 5.6833H146.748ZM147.763 13.4365L150.073 24.1957H143.882L147.774 13.4365H147.763Z" fill="#1434CB"/>
</svg>
