<svg width="140" height="46" viewBox="0 0 140 46" fill="none" xmlns="http://www.w3.org/2000/svg">
<mask id="mask0_283_27" style="mask-type:luminance" maskUnits="userSpaceOnUse" x="0" y="0" width="31" height="30">
<path d="M0 0H30.8271V29.7251H0V0Z" fill="white"/>
</mask>
<g mask="url(#mask0_283_27)">
<path d="M15.5587 22.8226L25.1807 29.8258L21.4955 18.5152L31.1175 11.6719H19.321L15.5587 0.00585938L11.7964 11.6719H0L9.622 18.5152L5.9545 29.8258L15.5587 22.8226Z" fill="#04DA8D"/>
</g>
<path d="M44.9821 12.2952C45.7997 12.6448 46.4752 13.1958 46.9965 13.9542C47.5298 14.7126 47.8023 15.702 47.8023 16.9166C47.8023 18.1016 47.5416 19.091 47.0202 19.8791C46.4989 20.6552 45.8353 21.2062 45.0295 21.538C44.2059 21.8876 42.9025 22.0594 41.1191 22.0594H38.6069V28.1976H35.3364V11.916H41.0006C42.0433 11.916 42.8728 11.9397 43.489 11.9871C44.1171 12.0345 44.6147 12.1412 44.9821 12.2952ZM44.4133 16.964C44.4133 15.9864 43.9393 15.2932 42.9913 14.8785C42.6418 14.7363 41.9071 14.6652 40.7873 14.6652H38.6069V19.3103H40.7873C41.9071 19.3103 42.7899 19.1562 43.4416 18.8363C44.0874 18.5223 44.4133 17.9001 44.4133 16.964Z" fill="white"/>
<path d="M53.5375 22.4623C53.5375 23.3037 53.5494 23.908 53.5849 24.2872C53.6323 24.6664 53.7093 24.9685 53.8219 25.1878C53.9641 25.4603 54.1656 25.6795 54.4381 25.8514C54.7225 26.0113 55.0661 26.0883 55.4809 26.0883C56.0319 26.0883 56.5296 25.9402 56.9739 25.6381C57.4124 25.324 57.6909 24.9448 57.8034 24.5005C57.9456 24.0739 58.0167 23.1378 58.0167 21.6802V16.4189H61.1214V28.1976H58.23V26.4201H58.2063C57.762 27.0837 57.1872 27.5992 56.4763 27.9606C55.7771 28.3043 55.0602 28.482 54.3196 28.482C53.656 28.482 53.0221 28.3457 52.4236 28.0791C51.8193 27.7947 51.3631 27.3918 51.0491 26.8704C50.8239 26.509 50.658 26.112 50.5514 25.6855C50.4566 25.247 50.4092 24.6842 50.4092 24.0028V16.4189H53.5375V22.4623Z" fill="white"/>
<path d="M68.9723 16.1348C70.4713 16.1348 71.5852 16.3362 72.314 16.7273C73.0368 17.1064 73.4989 17.616 73.6885 18.244C73.8781 18.878 73.9611 19.7075 73.9492 20.7325L73.9255 24.1689C73.9078 25.2472 73.9492 26.0293 74.044 26.5152C74.1388 27.0069 74.3284 27.5698 74.6128 28.1978H71.5556C71.4726 28.026 71.3304 27.5935 71.129 26.8943C70.5721 27.4513 69.9973 27.8542 69.3989 28.103C68.7946 28.3519 68.1547 28.4822 67.4793 28.4822C66.3061 28.4822 65.3582 28.1623 64.6353 27.5105C63.9243 26.8647 63.5688 26.0293 63.5688 24.9984C63.5688 24.1334 63.7821 23.4461 64.2087 22.9365C64.6353 22.4329 65.1567 22.0715 65.7729 21.8463C66.4009 21.6094 67.1475 21.4079 68.0007 21.2302C69.2923 20.9932 70.258 20.7562 70.892 20.5192V19.9978C70.892 19.4942 70.732 19.1209 70.418 18.8839C70.1158 18.6469 69.5648 18.5284 68.759 18.5284C68.1429 18.5284 67.6807 18.6588 67.3845 18.9076C67.0823 19.1624 66.8512 19.5238 66.6972 19.9978L63.8769 19.4764C64.1732 18.327 64.7183 17.4797 65.5122 16.9405C66.3002 16.4073 67.4556 16.1348 68.9723 16.1348ZM68.9249 23.0313L68.4035 23.1498C67.2482 23.3868 66.6735 23.8845 66.6735 24.6429C66.6735 25.105 66.8275 25.4902 67.1475 25.8042C67.4793 26.1063 67.894 26.2545 68.4035 26.2545C68.8124 26.2545 69.2212 26.1537 69.6359 25.9464C70.0447 25.7449 70.3588 25.4605 70.5839 25.0932C70.7854 24.7792 70.892 24.2341 70.892 23.4579V22.5336C70.2877 22.7114 69.6359 22.8773 68.9249 23.0313Z" fill="white"/>
<path d="M83.7959 16.1348C84.4891 16.1348 85.0994 16.2533 85.6208 16.4903C86.1422 16.7273 86.551 17.0057 86.8531 17.3197C87.2146 17.7167 87.4516 18.1848 87.5641 18.718C87.6708 19.2572 87.73 19.8556 87.73 20.5192V28.1978H84.6254V21.7516C84.6254 20.6614 84.495 19.8556 84.2462 19.3342C84.0092 18.801 83.4937 18.5284 82.7057 18.5284C81.9592 18.5284 81.3845 18.7417 80.9757 19.1683C80.5609 19.5949 80.318 20.0867 80.241 20.6377C80.2054 21.005 80.1758 21.3368 80.1462 21.6331C80.1284 21.9174 80.1225 22.2433 80.1225 22.6047V28.1978H76.9941V16.4192H79.9566V18.1492C80.2884 17.6456 80.7861 17.1894 81.4496 16.7747C82.1132 16.3481 82.8953 16.1348 83.7959 16.1348Z" fill="white"/>
<path d="M101.719 11.916V28.1976H98.8041V26.4675H98.7567C98.2649 27.2259 97.6784 27.7591 97.0029 28.0554C96.3216 28.3398 95.7054 28.482 95.1544 28.482C94.2834 28.482 93.4717 28.245 92.7133 27.771C91.9668 27.297 91.3624 26.5979 90.8885 25.6617C90.4263 24.7138 90.2012 23.5643 90.2012 22.2016C90.2012 20.8744 90.4204 19.7606 90.8648 18.86C91.321 17.9475 91.9194 17.2662 92.6659 16.8218C93.4243 16.3656 94.2597 16.1345 95.1781 16.1345C96.5052 16.1345 97.6487 16.6796 98.6145 17.7698V11.916H101.719ZM93.4243 22.3201C93.4243 23.6354 93.6672 24.5716 94.159 25.1403C94.6448 25.7091 95.2255 25.9935 95.8891 25.9935C96.2979 25.9935 96.7067 25.8928 97.1214 25.6854C97.548 25.4662 97.9094 25.0633 98.2116 24.4768C98.496 23.9435 98.6382 23.1377 98.6382 22.0594C98.6382 20.9218 98.3894 20.0568 97.9035 19.4525C97.4117 18.8363 96.7719 18.5282 95.9839 18.5282H95.8654C94.9944 18.5756 94.3723 18.9666 93.9931 19.6895C93.6139 20.4004 93.4243 21.2773 93.4243 22.3201Z" fill="white"/>
<path d="M109.309 16.1348C111.187 16.1348 112.586 16.751 113.504 17.9833C114.434 19.2039 114.902 20.9398 114.902 23.1972H107.081C107.111 23.9912 107.342 24.6666 107.769 25.2354C108.207 25.8042 108.841 26.0886 109.665 26.0886C110.168 26.0886 110.589 25.9582 110.921 25.6857C111.253 25.4191 111.49 25.0102 111.632 24.4533L114.76 24.9747C114.363 26.13 113.723 27.0069 112.84 27.6053C111.952 28.1919 110.879 28.4822 109.617 28.4822C107.721 28.4822 106.282 27.9134 105.304 26.7758C104.842 26.2426 104.498 25.5672 104.261 24.7614C104.024 23.9556 103.906 23.1617 103.906 22.3677C103.906 21.2953 104.095 20.2822 104.475 19.3342C104.866 18.3862 105.47 17.6219 106.276 17.0353C107.081 16.4369 108.089 16.1348 109.309 16.1348ZM107.153 21.2776H111.821C111.804 20.3296 111.561 19.6364 111.087 19.192C110.625 18.7536 110.091 18.5284 109.475 18.5284C108.746 18.5284 108.178 18.7891 107.769 19.3105C107.354 19.8319 107.153 20.4896 107.153 21.2776Z" fill="white"/>
<path d="M120.46 20.5426L124.11 16.4189H127.973L123.944 20.7085L128.233 28.1976H124.868L121.906 22.8889L120.46 24.4294V28.1976H117.332V11.916H120.46V20.5426Z" fill="white"/>
<path d="M134.407 16.1348C135.876 16.1348 137.026 16.3836 137.867 16.8695C138.702 17.3612 139.277 18.1611 139.597 19.2631L136.658 19.8082C136.516 19.3224 136.261 18.955 135.9 18.718C135.55 18.481 135.059 18.3625 134.431 18.3625C133.009 18.3625 132.298 18.6943 132.298 19.3579C132.298 19.6778 132.523 19.9267 132.985 20.1163C133.459 20.3059 134.128 20.4955 134.999 20.6851C136.09 20.9398 136.972 21.1946 137.654 21.4435C138.329 21.6805 138.892 22.0537 139.336 22.5573C139.775 23.0491 140 23.6949 140 24.5007C140 25.1821 139.81 25.8219 139.431 26.4204C139.064 27.0247 138.483 27.5224 137.677 27.9134C136.872 28.2926 135.853 28.4822 134.62 28.4822C133.246 28.4822 132.025 28.1919 130.97 27.6053C129.91 27.0069 129.246 26.0826 128.98 24.8325L132.108 24.3585C132.392 25.6086 133.228 26.2308 134.62 26.2308C135.171 26.2308 135.687 26.136 136.161 25.9464C136.635 25.7568 136.872 25.425 136.872 24.951C136.872 24.637 136.759 24.4177 136.54 24.2874C136.315 24.1452 135.971 24.0267 135.497 23.9319C134.04 23.6001 132.914 23.3039 132.108 23.0313C131.314 22.7647 130.668 22.3796 130.165 21.87C129.655 21.3487 129.406 20.6495 129.406 19.7608C129.406 18.5284 129.868 17.6219 130.805 17.0353C131.753 16.4369 132.949 16.1348 134.407 16.1348Z" fill="white"/>
<path d="M98.8203 43V34.4102H100.555V43H98.8203ZM98.8848 33.918V32.3594H100.502V33.918H98.8848ZM101.621 41.2246L103.273 40.9727C103.344 41.293 103.486 41.5371 103.701 41.7051C103.916 41.8691 104.217 41.9512 104.604 41.9512C105.029 41.9512 105.35 41.873 105.564 41.7168C105.709 41.6074 105.781 41.4609 105.781 41.2773C105.781 41.1523 105.742 41.0488 105.664 40.9668C105.582 40.8887 105.398 40.8164 105.113 40.75C103.785 40.457 102.943 40.1895 102.588 39.9473C102.096 39.6113 101.85 39.1445 101.85 38.5469C101.85 38.0078 102.062 37.5547 102.488 37.1875C102.914 36.8203 103.574 36.6367 104.469 36.6367C105.32 36.6367 105.953 36.7754 106.367 37.0527C106.781 37.3301 107.066 37.7402 107.223 38.2832L105.67 38.5703C105.604 38.3281 105.477 38.1426 105.289 38.0137C105.105 37.8848 104.842 37.8203 104.498 37.8203C104.064 37.8203 103.754 37.8809 103.566 38.002C103.441 38.0879 103.379 38.1992 103.379 38.3359C103.379 38.4531 103.434 38.5527 103.543 38.6348C103.691 38.7441 104.203 38.8984 105.078 39.0977C105.957 39.2969 106.57 39.541 106.918 39.8301C107.262 40.123 107.434 40.5312 107.434 41.0547C107.434 41.625 107.195 42.1152 106.719 42.5254C106.242 42.9355 105.537 43.1406 104.604 43.1406C103.756 43.1406 103.084 42.9688 102.588 42.625C102.096 42.2812 101.773 41.8145 101.621 41.2246ZM103.191 45.3613V44.6699C103.594 44.7129 103.963 44.7344 104.299 44.7344C104.646 44.7344 104.904 44.6719 105.072 44.5469C105.201 44.4531 105.266 44.332 105.266 44.1836C105.266 44.0508 105.205 43.9355 105.084 43.8379C104.963 43.7402 104.775 43.6914 104.521 43.6914C104.271 43.6914 104.016 43.7305 103.754 43.8086L103.906 43.2285C104.211 43.123 104.539 43.0703 104.891 43.0703C105.379 43.0703 105.75 43.1777 106.004 43.3926C106.258 43.6074 106.385 43.8691 106.385 44.1777C106.385 44.5215 106.244 44.8008 105.963 45.0156C105.584 45.3086 105.041 45.4551 104.334 45.4551C103.83 45.4551 103.449 45.4238 103.191 45.3613ZM108.881 43V34.4102H110.527V43H108.881ZM115.824 41.0195L117.465 41.2949C117.254 41.8965 116.92 42.3555 116.463 42.6719C116.01 42.9844 115.441 43.1406 114.758 43.1406C113.676 43.1406 112.875 42.7871 112.355 42.0801C111.945 41.5137 111.74 40.7988 111.74 39.9355C111.74 38.9043 112.01 38.0977 112.549 37.5156C113.088 36.9297 113.77 36.6367 114.594 36.6367C115.52 36.6367 116.25 36.9434 116.785 37.5566C117.32 38.166 117.576 39.1016 117.553 40.3633H113.428C113.439 40.8516 113.572 41.2324 113.826 41.5059C114.08 41.7754 114.396 41.9102 114.775 41.9102C115.033 41.9102 115.25 41.8398 115.426 41.6992C115.602 41.5586 115.734 41.332 115.824 41.0195ZM115.918 39.3555C115.906 38.8789 115.783 38.5176 115.549 38.2715C115.314 38.0215 115.029 37.8965 114.693 37.8965C114.334 37.8965 114.037 38.0273 113.803 38.2891C113.568 38.5508 113.453 38.9062 113.457 39.3555H115.918ZM121.754 36.7773V38.0898H120.629V40.5977C120.629 41.1055 120.639 41.4023 120.658 41.4883C120.682 41.5703 120.73 41.6387 120.805 41.6934C120.883 41.748 120.977 41.7754 121.086 41.7754C121.238 41.7754 121.459 41.7227 121.748 41.6172L121.889 42.8945C121.506 43.0586 121.072 43.1406 120.588 43.1406C120.291 43.1406 120.023 43.0918 119.785 42.9941C119.547 42.8926 119.371 42.7637 119.258 42.6074C119.148 42.4473 119.072 42.2324 119.029 41.9629C118.994 41.7715 118.977 41.3848 118.977 40.8027V38.0898H118.221V36.7773H118.977V35.541L120.629 34.5801V36.7773H121.754ZM122.773 36.7773H124.291V37.627C124.834 36.9668 125.48 36.6367 126.23 36.6367C126.629 36.6367 126.975 36.7188 127.268 36.8828C127.561 37.0469 127.801 37.2949 127.988 37.627C128.262 37.2949 128.557 37.0469 128.873 36.8828C129.189 36.7188 129.527 36.6367 129.887 36.6367C130.344 36.6367 130.73 36.7305 131.047 36.918C131.363 37.1016 131.6 37.373 131.756 37.7324C131.869 37.998 131.926 38.4277 131.926 39.0215V43H130.279V39.4434C130.279 38.8262 130.223 38.4277 130.109 38.248C129.957 38.0137 129.723 37.8965 129.406 37.8965C129.176 37.8965 128.959 37.9668 128.756 38.1074C128.553 38.248 128.406 38.4551 128.316 38.7285C128.227 38.998 128.182 39.4258 128.182 40.0117V43H126.535V39.5898C126.535 38.9844 126.506 38.5938 126.447 38.418C126.389 38.2422 126.297 38.1113 126.172 38.0254C126.051 37.9395 125.885 37.8965 125.674 37.8965C125.42 37.8965 125.191 37.9648 124.988 38.1016C124.785 38.2383 124.639 38.4355 124.549 38.6934C124.463 38.9512 124.42 39.3789 124.42 39.9766V43H122.773V36.7773ZM137.176 41.0195L138.816 41.2949C138.605 41.8965 138.271 42.3555 137.814 42.6719C137.361 42.9844 136.793 43.1406 136.109 43.1406C135.027 43.1406 134.227 42.7871 133.707 42.0801C133.297 41.5137 133.092 40.7988 133.092 39.9355C133.092 38.9043 133.361 38.0977 133.9 37.5156C134.439 36.9297 135.121 36.6367 135.945 36.6367C136.871 36.6367 137.602 36.9434 138.137 37.5566C138.672 38.166 138.928 39.1016 138.904 40.3633H134.779C134.791 40.8516 134.924 41.2324 135.178 41.5059C135.432 41.7754 135.748 41.9102 136.127 41.9102C136.385 41.9102 136.602 41.8398 136.777 41.6992C136.953 41.5586 137.086 41.332 137.176 41.0195ZM137.27 39.3555C137.258 38.8789 137.135 38.5176 136.9 38.2715C136.666 38.0215 136.381 37.8965 136.045 37.8965C135.686 37.8965 135.389 38.0273 135.154 38.2891C134.92 38.5508 134.805 38.9062 134.809 39.3555H137.27Z" fill="white"/>
</svg>
