<svg width="24" height="24" viewBox="0 0 24 24" fill="none" xmlns="http://www.w3.org/2000/svg">
<path d="M6.68265 17.0417C5.95015 17.6574 5.18731 17.9389 4.39412 17.8861C3.60093 17.8333 2.9075 17.5606 2.31383 17.0681C1.72016 16.5755 1.31484 15.9291 1.09788 15.129C0.880925 14.3289 1.02463 13.5063 1.52901 12.6611L3.49105 9.38889C3.05504 9.00185 2.71077 8.53565 2.45823 7.99028C2.2057 7.44491 2.07908 6.85556 2.07838 6.22222C2.07838 5.06111 2.48823 4.06713 3.30793 3.24028C4.12763 2.41343 5.11301 2 6.26408 2C7.41514 2 8.40053 2.41343 9.22023 3.24028C10.0399 4.06713 10.4498 5.06111 10.4498 6.22222C10.4498 7.38333 10.0399 8.37731 9.22023 9.20417C8.40053 10.031 7.41514 10.4444 6.26408 10.4444C6.10711 10.4444 5.95015 10.4356 5.79319 10.4181C5.63622 10.4005 5.48798 10.3741 5.34846 10.3389L3.33409 13.7694C3.14225 14.0861 3.08121 14.3986 3.15097 14.7068C3.22073 15.015 3.36897 15.2655 3.5957 15.4583C3.82242 15.6511 4.09275 15.7613 4.40668 15.7887C4.7206 15.8162 5.02581 15.706 5.3223 15.4583L16.3097 5.93194C17.0422 5.3162 17.8096 5.03894 18.6119 5.10017C19.4141 5.16139 20.1118 5.43865 20.7047 5.93194C21.2977 6.42524 21.6988 7.07194 21.9081 7.87206C22.1174 8.67217 21.9692 9.49444 21.4634 10.3389L19.5013 13.6111C19.9374 13.9981 20.282 14.4644 20.5352 15.0097C20.7884 15.5551 20.9147 16.1444 20.914 16.7778C20.914 17.9389 20.5042 18.9329 19.6845 19.7597C18.8648 20.5866 17.8794 21 16.7283 21C15.5773 21 14.5919 20.5866 13.7722 19.7597C12.9525 18.9329 12.5426 17.9389 12.5426 16.7778C12.5426 15.6167 12.9525 14.6227 13.7722 13.7958C14.5919 12.969 15.5773 12.5556 16.7283 12.5556C16.8853 12.5556 17.0381 12.5644 17.1867 12.5819C17.3352 12.5995 17.479 12.6259 17.6178 12.6611L19.6583 9.23056C19.8501 8.91389 19.9112 8.60144 19.8414 8.29322C19.7717 7.985 19.6234 7.73448 19.3967 7.54167C19.17 7.34885 18.8996 7.23907 18.5857 7.21233C18.2718 7.18559 17.9666 7.29537 17.6701 7.54167L6.68265 17.0417Z" fill="white"/>
</svg>
