<svg width="24" height="24" viewBox="0 0 24 24" fill="none" xmlns="http://www.w3.org/2000/svg">
<path d="M22.8116 2.58149C22.7013 2.40331 22.5487 2.25654 22.3679 2.15486C22.1872 2.05318 21.9841 1.9999 21.7778 2H2.22217C1.98038 2.00001 1.74403 2.07327 1.54302 2.21049C1.342 2.34772 1.18536 2.54276 1.0929 2.77093C1.00044 2.99911 0.976316 3.25016 1.02359 3.49234C1.07086 3.73451 1.1874 3.95693 1.35846 4.13144L5.37958 8.24142L1.35846 12.3514C1.1874 12.5259 1.07086 12.7483 1.02359 12.9905C0.976316 13.2327 1.00044 13.4837 1.0929 13.7119C1.18536 13.9401 1.342 14.1351 1.54302 14.2723C1.74403 14.4096 1.98038 14.4828 2.22217 14.4828H15.1859L12.5265 20.1875C12.4529 20.336 12.409 20.4981 12.3976 20.6641C12.3861 20.8302 12.4073 20.997 12.46 21.1545C12.5126 21.3121 12.5955 21.4574 12.7039 21.5817C12.8123 21.7061 12.9439 21.807 13.0911 21.8786C13.2382 21.9502 13.3979 21.9911 13.5608 21.9987C13.7236 22.0063 13.8863 21.9806 14.0393 21.9231C14.1922 21.8655 14.3324 21.7773 14.4515 21.6636C14.5705 21.5499 14.6661 21.413 14.7327 21.261L22.8808 3.78505C22.9697 3.59478 23.01 3.38462 22.9979 3.17416C22.9858 2.96371 22.9217 2.75981 22.8116 2.58149ZM16.3501 11.9863H5.17588L7.97885 9.12354C8.09279 9.00757 8.1832 8.86977 8.24489 8.71804C8.30657 8.56631 8.33833 8.40363 8.33833 8.23934C8.33833 8.07505 8.30657 7.91237 8.24489 7.76064C8.1832 7.60891 8.09279 7.47111 7.97885 7.35514L5.17588 4.49657H19.8426L16.3501 11.9863Z" fill="#1C1C1C"/>
</svg>
