<svg width="21" height="21" viewBox="0 0 21 21" fill="none" xmlns="http://www.w3.org/2000/svg">
<path d="M13.99 20.54H13.86C9.41997 20.54 7.27997 18.79 6.90997 14.87C6.86997 14.46 7.16997 14.09 7.58997 14.05C7.99997 14.01 8.36997 14.32 8.40997 14.73C8.69997 17.87 10.18 19.04 13.87 19.04H14C18.07 19.04 19.51 17.6 19.51 13.53V7.01C19.51 2.94 18.07 1.5 14 1.5H13.87C10.16 1.5 8.67997 2.69 8.40997 5.89C8.35997 6.3 8.01997 6.61 7.58997 6.57C7.49141 6.5623 7.39534 6.53522 7.30727 6.4903C7.21921 6.44539 7.14087 6.38353 7.07677 6.30828C7.01266 6.23302 6.96404 6.14585 6.9337 6.05177C6.90336 5.95768 6.8919 5.85853 6.89997 5.76C7.23997 1.78 9.38997 0 13.86 0H13.99C18.9 0 21 2.1 21 7.01V13.53C21 18.44 18.9 20.54 13.99 20.54Z" fill="white"/>
<path d="M13.63 11.02H0.75C0.34 11.02 0 10.68 0 10.27C0 9.86002 0.34 9.52002 0.75 9.52002H13.63C13.8289 9.52002 14.0197 9.59904 14.1603 9.73969C14.301 9.88034 14.38 10.0711 14.38 10.27C14.38 10.4689 14.301 10.6597 14.1603 10.8003C14.0197 10.941 13.8289 11.02 13.63 11.02Z" fill="white"/>
<path d="M11.4 14.37C11.21 14.37 11.02 14.3 10.87 14.15C10.7306 14.0088 10.6523 13.8184 10.6523 13.62C10.6523 13.4216 10.7306 13.2311 10.87 13.09L13.69 10.27L10.87 7.44999C10.7306 7.30885 10.6523 7.11842 10.6523 6.91999C10.6523 6.72155 10.7306 6.53112 10.87 6.38999C11.16 6.09999 11.64 6.09999 11.93 6.38999L15.28 9.73999C15.57 10.03 15.57 10.51 15.28 10.8L11.93 14.15C11.78 14.3 11.59 14.37 11.4 14.37Z" fill="white"/>
</svg>
