<svg width="18" height="23" viewBox="0 0 18 23" fill="none" xmlns="http://www.w3.org/2000/svg">
<path d="M9.02009 2.40997C5.71009 2.40997 3.02009 5.09997 3.02009 8.40997V11.3C3.02009 11.91 2.76009 12.84 2.45009 13.36L1.30009 15.27C0.590088 16.45 1.08009 17.76 2.38009 18.2C6.69009 19.64 11.3401 19.64 15.6501 18.2C16.8601 17.8 17.3901 16.37 16.7301 15.27L15.5801 13.36C15.2801 12.84 15.0201 11.91 15.0201 11.3V8.40997C15.0201 5.10997 12.3201 2.40997 9.02009 2.40997Z" stroke="#6D6868" stroke-width="1.5" stroke-miterlimit="10" stroke-linecap="round"/>
<path d="M10.8699 2.7C9.66063 2.35559 8.37921 2.35559 7.16992 2.7C7.45992 1.96 8.17992 1.44 9.01992 1.44C9.85992 1.44 10.5799 1.96 10.8699 2.7Z" stroke="#6D6868" stroke-width="1.5" stroke-miterlimit="10" stroke-linecap="round" stroke-linejoin="round"/>
<path d="M12.02 18.56C12.02 20.21 10.67 21.56 9.02002 21.56C8.20002 21.56 7.44002 21.22 6.90002 20.68C6.33818 20.1173 6.02181 19.3552 6.02002 18.56" stroke="#6D6868" stroke-width="1.5" stroke-miterlimit="10"/>
</svg>
