<svg width="24" height="24" viewBox="0 0 24 24" fill="none" xmlns="http://www.w3.org/2000/svg">
<g clip-path="url(#clip0_69_50)">
<mask id="mask0_69_50" style="mask-type:luminance" maskUnits="userSpaceOnUse" x="0" y="0" width="24" height="24">
<path d="M24 0H0V24H24V0Z" fill="white"/>
</mask>
<g mask="url(#mask0_69_50)">
<path d="M14 2H6C4.9 2 4 2.9 4 4V20C4 21.1 4.9 22 6 22H18C19.1 22 20 21.1 20 20V8L14 2ZM6 20V4H13V8H18V20H6ZM11 19H13V18H14C14.55 18 15 17.55 15 17V14C15 13.45 14.55 13 14 13H11V12H15V10H13V9H11V10H10C9.45 10 9 10.45 9 11V14C9 14.55 9.45 15 10 15H13V16H9V18H11V19Z" fill="#1C1C1C"/>
</g>
</g>
<defs>
<clipPath id="clip0_69_50">
<rect width="24" height="24" fill="white"/>
</clipPath>
</defs>
</svg>
