<svg width="25" height="24" viewBox="0 0 25 24" fill="none" xmlns="http://www.w3.org/2000/svg">
<g clip-path="url(#clip0_69_32)">
<mask id="mask0_69_32" style="mask-type:luminance" maskUnits="userSpaceOnUse" x="0" y="0" width="25" height="24">
<path d="M24.5 0H0.5V24H24.5V0Z" fill="white"/>
</mask>
<g mask="url(#mask0_69_32)">
<path d="M14.5 2H6.5C5.4 2 4.5 2.9 4.5 4V20C4.5 21.1 5.4 22 6.5 22H18.5C19.6 22 20.5 21.1 20.5 20V8L14.5 2ZM6.5 20V4H13.5V8H18.5V20H6.5ZM11.5 19H13.5V18H14.5C15.05 18 15.5 17.55 15.5 17V14C15.5 13.45 15.05 13 14.5 13H11.5V12H15.5V10H13.5V9H11.5V10H10.5C9.95 10 9.5 10.45 9.5 11V14C9.5 14.55 9.95 15 10.5 15H13.5V16H9.5V18H11.5V19Z" fill="white"/>
</g>
</g>
<defs>
<clipPath id="clip0_69_32">
<rect width="24" height="24" fill="white" transform="translate(0.5)"/>
</clipPath>
</defs>
</svg>
