<svg width="100" height="97" viewBox="0 0 100 97" fill="none" xmlns="http://www.w3.org/2000/svg">
<path d="M0 43.6501C0 41.0775 1.05432 38.611 2.92969 36.7919C4.80505 34.9727 7.34783 33.95 10 33.95H20C22.7614 33.95 25 36.1215 25 38.8001C25 41.4786 22.7614 43.6501 20 43.6501H10V80.4419L16.4648 74.171L16.8311 73.8489C17.7208 73.1416 18.8395 72.7501 20 72.7501H55V63.0501C55 60.3715 57.2386 58.2001 60 58.2001C62.7614 58.2001 65 60.3715 65 63.0501V72.7501C65 75.3227 63.9457 77.7892 62.0703 79.6083C60.1949 81.4274 57.6522 82.4501 55 82.4501H22.0703L8.53516 95.5792C7.10517 96.9663 4.95431 97.3814 3.08594 96.6307C1.21793 95.8799 0 94.1116 0 92.1501V43.6501ZM90 9.70001H45V38.8001H80C81.3261 38.8001 82.5975 39.3114 83.5352 40.221L90 46.4919V9.70001ZM100 58.2001C100 60.1615 98.7821 61.9298 96.9141 62.6807C95.0457 63.4313 92.8948 63.0163 91.4648 61.6292L77.9297 48.5001H45C42.3478 48.5001 39.805 47.4774 37.9297 45.6583C36.0543 43.8392 35 41.3727 35 38.8001V9.70001C35 7.12741 36.0543 4.6609 37.9297 2.8418C39.8051 1.0227 42.3478 0 45 0H90C92.6522 0 95.1949 1.02269 97.0703 2.8418C98.9457 4.66091 100 7.12742 100 9.70001V58.2001Z" fill="#1C1C1C"/>
</svg>
