<svg width="24" height="24" viewBox="0 0 24 24" fill="none" xmlns="http://www.w3.org/2000/svg">
<g clip-path="url(#clip0_69_38)">
<path d="M7.58997 2.75C6.5291 2.75 5.51168 3.17143 4.76154 3.92157C4.01139 4.67172 3.58997 5.68913 3.58997 6.75V12.958C3.58997 14.0189 4.01139 15.0363 4.76154 15.7864C5.51168 16.5366 6.5291 16.958 7.58997 16.958H7.68297V20.75C7.68287 20.8472 7.71112 20.9423 7.76426 21.0238C7.81739 21.1052 7.8931 21.1693 7.98213 21.2084C8.07115 21.2474 8.16963 21.2597 8.26551 21.2436C8.36139 21.2276 8.45051 21.1839 8.52197 21.118L13.042 16.958H17.411C18.4718 16.958 19.4892 16.5366 20.2394 15.7864C20.9895 15.0363 21.411 14.0189 21.411 12.958V6.75C21.411 5.68913 20.9895 4.67172 20.2394 3.92157C19.4892 3.17143 18.4718 2.75 17.411 2.75H7.58997Z" stroke="#1C1C1C" stroke-width="1.5" stroke-linecap="round" stroke-linejoin="round"/>
</g>
<defs>
<clipPath id="clip0_69_38">
<rect width="24" height="24" fill="white"/>
</clipPath>
</defs>
</svg>
