<svg width="24" height="24" viewBox="0 0 24 24" fill="none" xmlns="http://www.w3.org/2000/svg">
<g clip-path="url(#clip0_69_11)">
<path d="M7.08997 2.75C6.0291 2.75 5.01168 3.17143 4.26154 3.92157C3.51139 4.67172 3.08997 5.68913 3.08997 6.75V12.958C3.08997 14.0189 3.51139 15.0363 4.26154 15.7864C5.01168 16.5366 6.0291 16.958 7.08997 16.958H7.18297V20.75C7.18287 20.8472 7.21112 20.9423 7.26426 21.0238C7.31739 21.1052 7.3931 21.1693 7.48213 21.2084C7.57115 21.2474 7.66963 21.2597 7.76551 21.2436C7.86139 21.2276 7.95051 21.1839 8.02197 21.118L12.542 16.958H16.911C17.9718 16.958 18.9892 16.5366 19.7394 15.7864C20.4895 15.0363 20.911 14.0189 20.911 12.958V6.75C20.911 5.68913 20.4895 4.67172 19.7394 3.92157C18.9892 3.17143 17.9718 2.75 16.911 2.75H7.08997Z" stroke="white" stroke-width="1.5" stroke-linecap="round" stroke-linejoin="round"/>
</g>
<defs>
<clipPath id="clip0_69_11">
<rect width="24" height="24" fill="white"/>
</clipPath>
</defs>
</svg>
