<svg width="25" height="24" viewBox="0 0 25 24" fill="none" xmlns="http://www.w3.org/2000/svg">
<g clip-path="url(#clip0_69_26)">
<mask id="mask0_69_26" style="mask-type:luminance" maskUnits="userSpaceOnUse" x="0" y="0" width="25" height="24">
<path d="M24.5 0H0.5V24H24.5V0Z" fill="white"/>
</mask>
<g mask="url(#mask0_69_26)">
<path d="M19.9301 12.98C19.9701 12.66 20.0001 12.34 20.0001 12C20.0001 11.66 19.9701 11.34 19.9301 11.02L22.0401 9.37C22.2301 9.22 22.2801 8.95 22.1601 8.73L20.1601 5.27C20.0701 5.11 19.9001 5.02 19.7201 5.02C19.6601 5.02 19.6001 5.03 19.5501 5.05L17.0601 6.05C16.5401 5.65 15.9801 5.32 15.3701 5.07L14.9901 2.42C14.9601 2.18 14.7501 2 14.5001 2H10.5001C10.2501 2 10.0401 2.18 10.0101 2.42L9.63008 5.07C9.02008 5.32 8.46008 5.66 7.94008 6.05L5.45008 5.05C5.39008 5.03 5.33008 5.02 5.27008 5.02C5.10008 5.02 4.93008 5.11 4.84008 5.27L2.84008 8.73C2.71008 8.95 2.77008 9.22 2.96008 9.37L5.07008 11.02C5.03008 11.34 5.00008 11.67 5.00008 12C5.00008 12.33 5.03008 12.66 5.07008 12.98L2.96008 14.63C2.77008 14.78 2.72008 15.05 2.84008 15.27L4.84008 18.73C4.93008 18.89 5.10008 18.98 5.28008 18.98C5.34008 18.98 5.40008 18.97 5.45008 18.95L7.94008 17.95C8.46008 18.35 9.02008 18.68 9.63008 18.93L10.0101 21.58C10.0401 21.82 10.2501 22 10.5001 22H14.5001C14.7501 22 14.9601 21.82 14.9901 21.58L15.3701 18.93C15.9801 18.68 16.5401 18.34 17.0601 17.95L19.5501 18.95C19.6101 18.97 19.6701 18.98 19.7301 18.98C19.9001 18.98 20.0701 18.89 20.1601 18.73L22.1601 15.27C22.2801 15.05 22.2301 14.78 22.0401 14.63L19.9301 12.98ZM17.9501 11.27C17.9901 11.58 18.0001 11.79 18.0001 12C18.0001 12.21 17.9801 12.43 17.9501 12.73L17.8101 13.86L18.7001 14.56L19.7801 15.4L19.0801 16.61L17.8101 16.1L16.7701 15.68L15.8701 16.36C15.4401 16.68 15.0301 16.92 14.6201 17.09L13.5601 17.52L13.4001 18.65L13.2001 20H11.8001L11.6101 18.65L11.4501 17.52L10.3901 17.09C9.96008 16.91 9.56008 16.68 9.16008 16.38L8.25008 15.68L7.19008 16.11L5.92008 16.62L5.22008 15.41L6.30008 14.57L7.19008 13.87L7.05008 12.74C7.02008 12.43 7.00008 12.2 7.00008 12C7.00008 11.8 7.02008 11.57 7.05008 11.27L7.19008 10.14L6.30008 9.44L5.22008 8.6L5.92008 7.39L7.19008 7.9L8.23008 8.32L9.13008 7.64C9.56008 7.32 9.97008 7.08 10.3801 6.91L11.4401 6.48L11.6001 5.35L11.8001 4H13.1901L13.3801 5.35L13.5401 6.48L14.6001 6.91C15.0301 7.09 15.4301 7.32 15.8301 7.62L16.7401 8.32L17.8001 7.89L19.0701 7.38L19.7701 8.59L18.7001 9.44L17.8101 10.14L17.9501 11.27ZM12.5001 8C10.2901 8 8.50008 9.79 8.50008 12C8.50008 14.21 10.2901 16 12.5001 16C14.7101 16 16.5001 14.21 16.5001 12C16.5001 9.79 14.7101 8 12.5001 8ZM12.5001 14C11.4001 14 10.5001 13.1 10.5001 12C10.5001 10.9 11.4001 10 12.5001 10C13.6001 10 14.5001 10.9 14.5001 12C14.5001 13.1 13.6001 14 12.5001 14Z" fill="white"/>
</g>
</g>
<defs>
<clipPath id="clip0_69_26">
<rect width="24" height="24" fill="white" transform="translate(0.5)"/>
</clipPath>
</defs>
</svg>
