<svg width="24" height="24" viewBox="0 0 24 24" fill="none" xmlns="http://www.w3.org/2000/svg">
<g clip-path="url(#clip0_562_15)">
<path d="M13.3889 2.90909C13.1384 2.90909 12.8982 3.00966 12.7211 3.18867C12.5439 3.36768 12.4444 3.61048 12.4444 3.86364V6.72727H8.66667V10.5455H5.83333C5.58285 10.5455 5.34263 10.646 5.16551 10.825C4.98839 11.004 4.88889 11.2468 4.88889 11.5C4.88889 11.7532 4.98839 11.996 5.16551 12.175C5.34263 12.354 5.58285 12.4545 5.83333 12.4545H8.66667V16.2727H12.4444V19.1364C12.4444 19.3895 12.5439 19.6323 12.7211 19.8113C12.8982 19.9903 13.1384 20.0909 13.3889 20.0909C13.6394 20.0909 13.8796 19.9903 14.0567 19.8113C14.2338 19.6323 14.3333 19.3895 14.3333 19.1364V16.2727H18.1111V14.3636H17.1667C16.7946 14.3636 16.4262 14.2896 16.0824 14.1457C15.7386 14.0017 15.4263 13.7908 15.1632 13.5249C14.9001 13.259 14.6914 12.9433 14.549 12.5959C14.4066 12.2484 14.3333 11.8761 14.3333 11.5C14.3333 11.1239 14.4066 10.7516 14.549 10.4041C14.6914 10.0567 14.9001 9.74102 15.1632 9.4751C15.4263 9.20919 15.7386 8.99826 16.0824 8.85434C16.4262 8.71043 16.7946 8.63636 17.1667 8.63636H18.1111V6.72727H14.3333V3.86364C14.3333 3.61048 14.2338 3.36768 14.0567 3.18867C13.8796 3.00966 13.6394 2.90909 13.3889 2.90909ZM10.5556 3.86364C10.5556 3.10415 10.8541 2.37578 11.3854 1.83874C11.9168 1.3017 12.6374 1 13.3889 1C14.1403 1 14.861 1.3017 15.3924 1.83874C15.9237 2.37578 16.2222 3.10415 16.2222 3.86364V4.81818H18.1111C18.6121 4.81818 19.0925 5.01932 19.4468 5.37734C19.801 5.73537 20 6.22095 20 6.72727V10.5455H17.1667C16.9162 10.5455 16.676 10.646 16.4988 10.825C16.3217 11.004 16.2222 11.2468 16.2222 11.5C16.2222 11.7532 16.3217 11.996 16.4988 12.175C16.676 12.354 16.9162 12.4545 17.1667 12.4545H20V16.2727C20 16.779 19.801 17.2646 19.4468 17.6227C19.0925 17.9807 18.6121 18.1818 18.1111 18.1818H16.2222V19.1364C16.2222 19.8958 15.9237 20.6242 15.3924 21.1613C14.861 21.6983 14.1403 22 13.3889 22C12.6374 22 11.9168 21.6983 11.3854 21.1613C10.8541 20.6242 10.5556 19.8958 10.5556 19.1364V18.1818H8.66667C8.1657 18.1818 7.68526 17.9807 7.33102 17.6227C6.97678 17.2646 6.77778 16.779 6.77778 16.2727V14.3636H5.83333C5.46125 14.3636 5.09282 14.2896 4.74906 14.1457C4.40531 14.0017 4.09296 13.7908 3.82986 13.5249C3.56676 13.259 3.35806 12.9433 3.21567 12.5959C3.07329 12.2484 3 11.8761 3 11.5C3 11.1239 3.07329 10.7516 3.21567 10.4041C3.35806 10.0567 3.56676 9.74102 3.82986 9.4751C4.09296 9.20919 4.40531 8.99826 4.74906 8.85434C5.09282 8.71043 5.46125 8.63636 5.83333 8.63636H6.77778V6.72727C6.77778 6.22095 6.97678 5.73537 7.33102 5.37734C7.68526 5.01932 8.1657 4.81818 8.66667 4.81818H10.5556V3.86364Z" fill="white"/>
</g>
<defs>
<clipPath id="clip0_562_15">
<rect width="24" height="24" fill="white"/>
</clipPath>
</defs>
</svg>
