<svg width="152" height="261" viewBox="0 0 152 261" fill="none" xmlns="http://www.w3.org/2000/svg">
<path d="M120.377 261H18.2622C8.21794 261 0 252.781 0 242.736V18.2639C0 8.21884 8.21818 0 18.2622 0H120.377C130.421 0 138.639 8.21884 138.639 18.2639V242.736C138.639 252.781 130.421 261 120.377 261Z" fill="#008116"/>
<path d="M131.769 19.9927V239.262C131.769 246.701 125.726 252.785 118.345 252.785H20.294C12.9126 252.785 6.87263 246.701 6.87263 239.262V19.9927C6.87263 12.554 12.9126 6.46938 20.294 6.46938H118.345C125.726 6.46915 131.769 12.5537 131.769 19.9927Z" fill="#C0D8FB"/>
<path d="M118.345 6.46938L21.5071 252.785H20.294C12.9126 252.785 6.87263 246.701 6.87263 239.262V19.9927C6.87263 12.554 12.9126 6.46938 20.294 6.46938H118.345Z" fill="#CBE1FD"/>
<path d="M89.8105 14.6235H48.8305C45.4925 14.6235 42.7614 11.8921 42.7614 8.55365V7.59942C42.7614 4.26094 45.4925 1.52954 48.8305 1.52954H89.8105C93.1485 1.52954 95.8797 4.26094 95.8797 7.59942V8.55365C95.8799 11.8919 93.1485 14.6235 89.8105 14.6235Z" fill="#008116"/>
<path d="M57.7682 126.731H44.4425C42.8655 126.731 41.587 128.005 41.587 129.575V142.845C41.587 144.415 42.8655 145.688 44.4425 145.688H57.7682C59.3453 145.688 60.6238 144.415 60.6238 142.845V129.575C60.6238 128.005 59.3453 126.731 57.7682 126.731Z" fill="#FFD837"/>
<path d="M80.6123 126.731H67.2866C65.7096 126.731 64.4311 128.005 64.4311 129.575V142.845C64.4311 144.415 65.7096 145.688 67.2866 145.688H80.6123C82.1894 145.688 83.4678 144.415 83.4678 142.845V129.575C83.4678 128.005 82.1894 126.731 80.6123 126.731Z" fill="#FFD837"/>
<path d="M103.456 126.731H90.1307C88.5536 126.731 87.2752 128.005 87.2752 129.575V142.845C87.2752 144.415 88.5536 145.688 90.1307 145.688H103.456C105.033 145.688 106.312 144.415 106.312 142.845V129.575C106.312 128.005 105.033 126.731 103.456 126.731Z" fill="#FFD837"/>
<path d="M126.3 126.731H112.975C111.398 126.731 110.119 128.005 110.119 129.575V142.845C110.119 144.415 111.398 145.688 112.975 145.688H126.3C127.877 145.688 129.156 144.415 129.156 142.845V129.575C129.156 128.005 127.877 126.731 126.3 126.731Z" fill="#CCCCCC"/>
<path d="M149.144 126.731H135.819C134.242 126.731 132.963 128.005 132.963 129.575V142.845C132.963 144.415 134.242 145.688 135.819 145.688H149.144C150.722 145.688 152 144.415 152 142.845V129.575C152 128.005 150.722 126.731 149.144 126.731Z" fill="#CCCCCC"/>
<path d="M50.8672 139.091L48.6756 140.395C48.5788 140.456 48.4776 140.482 48.372 140.473C48.2663 140.465 48.1739 140.43 48.0947 140.369C48.0154 140.308 47.9539 140.232 47.9098 140.141C47.8658 140.05 47.8571 139.948 47.8834 139.834L48.4643 137.369L46.5236 135.713C46.4356 135.635 46.3807 135.546 46.3588 135.446C46.337 135.346 46.3435 135.248 46.3784 135.153C46.4132 135.057 46.4661 134.979 46.5368 134.918C46.6075 134.857 46.7044 134.817 46.8272 134.8L49.3885 134.579L50.3787 132.257C50.4227 132.153 50.491 132.075 50.5836 132.023C50.6762 131.971 50.7707 131.945 50.8672 131.945C50.9637 131.945 51.0582 131.971 51.1508 132.023C51.2434 132.075 51.3117 132.153 51.3557 132.257L52.3459 134.579L54.9072 134.8C55.0304 134.818 55.1272 134.857 55.1976 134.918C55.2681 134.979 55.3208 135.057 55.3561 135.153C55.3913 135.248 55.3979 135.346 55.3761 135.446C55.3543 135.546 55.2992 135.635 55.2109 135.713L53.2701 137.369L53.851 139.834C53.8774 139.947 53.8686 140.049 53.8246 140.141C53.7806 140.232 53.7189 140.308 53.6398 140.369C53.5605 140.429 53.4681 140.464 53.3625 140.473C53.2569 140.482 53.1557 140.456 53.0588 140.395L50.8672 139.091Z" fill="white"/>
<path d="M73.7113 139.091L71.5197 140.395C71.4229 140.456 71.3216 140.482 71.216 140.473C71.1104 140.465 71.0179 140.43 70.9387 140.369C70.8595 140.308 70.7979 140.232 70.7539 140.141C70.7099 140.05 70.7011 139.948 70.7275 139.834L71.3084 137.369L69.3677 135.713C69.2797 135.635 69.2247 135.546 69.2029 135.446C69.181 135.346 69.1876 135.248 69.2224 135.153C69.2573 135.057 69.3101 134.979 69.3808 134.918C69.4516 134.857 69.5485 134.817 69.6713 134.8L72.2326 134.579L73.2228 132.257C73.2668 132.153 73.3351 132.075 73.4277 132.023C73.5203 131.971 73.6148 131.945 73.7113 131.945C73.8077 131.945 73.9022 131.971 73.9949 132.023C74.0875 132.075 74.1558 132.153 74.1997 132.257L75.1899 134.579L77.7512 134.8C77.8744 134.818 77.9713 134.857 78.0417 134.918C78.1121 134.979 78.1649 135.057 78.2001 135.153C78.2353 135.248 78.242 135.346 78.2202 135.446C78.1984 135.546 78.1432 135.635 78.0549 135.713L76.1141 137.369L76.695 139.834C76.7214 139.947 76.7126 140.049 76.6686 140.141C76.6246 140.232 76.563 140.308 76.4838 140.369C76.4046 140.429 76.3121 140.464 76.2065 140.473C76.1009 140.482 75.9997 140.456 75.9029 140.395L73.7113 139.091Z" fill="white"/>
<path d="M96.5556 139.091L94.3639 140.395C94.2669 140.456 94.1655 140.482 94.0598 140.473C93.9547 140.465 93.8619 140.43 93.7829 140.369C93.7034 140.308 93.642 140.232 93.5982 140.141C93.5539 140.05 93.5454 139.948 93.5716 139.834L94.1526 137.369L92.2119 135.713C92.1238 135.635 92.0686 135.546 92.0467 135.446C92.0253 135.346 92.0315 135.248 92.0667 135.153C92.1014 135.057 92.1543 134.979 92.2247 134.918C92.2956 134.857 92.3927 134.817 92.5155 134.8L95.0769 134.579L96.0668 132.257C96.111 132.153 96.1791 132.075 96.2719 132.023C96.3642 131.971 96.4589 131.945 96.5556 131.945C96.6517 131.945 96.7464 131.971 96.8387 132.023C96.9315 132.075 96.9996 132.153 97.0438 132.257L98.0342 134.579L100.595 134.8C100.718 134.818 100.815 134.857 100.886 134.918C100.956 134.979 101.009 135.057 101.044 135.153C101.079 135.248 101.086 135.346 101.064 135.446C101.043 135.546 100.987 135.635 100.899 135.713L98.958 137.369L99.5391 139.834C99.5653 139.947 99.5567 140.049 99.5129 140.141C99.4686 140.232 99.4073 140.308 99.3278 140.369C99.2488 140.429 99.1564 140.464 99.0508 140.473C98.9451 140.482 98.8438 140.456 98.7472 140.395L96.5556 139.091Z" fill="white"/>
<path d="M119.4 139.091L117.208 140.395C117.111 140.456 117.01 140.482 116.904 140.473C116.799 140.465 116.706 140.43 116.627 140.369C116.547 140.308 116.486 140.232 116.442 140.141C116.398 140.05 116.389 139.948 116.416 139.834L116.997 137.369L115.056 135.713C114.968 135.635 114.913 135.546 114.891 135.446C114.869 135.346 114.876 135.248 114.911 135.153C114.946 135.057 114.998 134.979 115.069 134.918C115.14 134.857 115.237 134.817 115.36 134.8L117.921 134.579L118.911 132.257C118.955 132.153 119.023 132.075 119.116 132.023C119.208 131.971 119.303 131.945 119.4 131.945C119.496 131.945 119.59 131.971 119.683 132.023C119.776 132.075 119.844 132.153 119.888 132.257L120.878 134.579L123.439 134.8C123.562 134.818 123.66 134.857 123.73 134.918C123.8 134.979 123.853 135.057 123.888 135.153C123.923 135.248 123.93 135.346 123.908 135.446C123.887 135.546 123.831 135.635 123.743 135.713L121.802 137.369L122.383 139.834C122.409 139.947 122.401 140.049 122.357 140.141C122.313 140.232 122.251 140.308 122.172 140.369C122.093 140.429 122.001 140.464 121.895 140.473C121.789 140.482 121.688 140.456 121.591 140.395L119.4 139.091Z" fill="white"/>
<path d="M142.244 139.091L140.052 140.395C139.955 140.456 139.854 140.482 139.748 140.473C139.643 140.465 139.55 140.43 139.471 140.369C139.392 140.308 139.33 140.232 139.286 140.141C139.242 140.05 139.233 139.948 139.26 139.834L139.841 137.369L137.9 135.713C137.812 135.635 137.757 135.546 137.735 135.446C137.713 135.346 137.72 135.248 137.755 135.153C137.79 135.057 137.842 134.979 137.913 134.918C137.984 134.857 138.081 134.817 138.204 134.8L140.765 134.579L141.755 132.257C141.799 132.153 141.867 132.075 141.96 132.023C142.052 131.971 142.147 131.945 142.244 131.945C142.34 131.945 142.435 131.971 142.527 132.023C142.62 132.075 142.688 132.153 142.732 132.257L143.722 134.579L146.283 134.8C146.407 134.818 146.504 134.857 146.574 134.918C146.644 134.979 146.697 135.057 146.733 135.153C146.767 135.248 146.774 135.346 146.753 135.446C146.731 135.546 146.675 135.635 146.587 135.713L144.646 137.369L145.227 139.834C145.253 139.947 145.245 140.049 145.201 140.141C145.157 140.232 145.095 140.308 145.016 140.369C144.937 140.429 144.845 140.464 144.739 140.473C144.633 140.482 144.532 140.456 144.435 140.395L142.244 139.091Z" fill="white"/>
<path d="M73.7432 186.208H62.6765C61.3668 186.208 60.3051 187.274 60.3051 188.589V199.702C60.3051 201.017 61.3668 202.084 62.6765 202.084H73.7432C75.0529 202.084 76.1146 201.017 76.1146 199.702V188.589C76.1146 187.274 75.0529 186.208 73.7432 186.208Z" fill="#FF001E"/>
<path d="M92.7145 186.208H81.6479C80.3382 186.208 79.2765 187.274 79.2765 188.589V199.702C79.2765 201.017 80.3382 202.084 81.6479 202.084H92.7145C94.0242 202.084 95.0859 201.017 95.0859 199.702V188.589C95.0859 187.274 94.0242 186.208 92.7145 186.208Z" fill="#CCCCCC"/>
<path d="M111.686 186.208H100.619C99.3095 186.208 98.2478 187.274 98.2478 188.589V199.702C98.2478 201.017 99.3095 202.084 100.619 202.084H111.686C112.996 202.084 114.057 201.017 114.057 199.702V188.589C114.057 187.274 112.996 186.208 111.686 186.208Z" fill="#CCCCCC"/>
<path d="M130.657 186.208H119.591C118.281 186.208 117.219 187.274 117.219 188.589V199.702C117.219 201.017 118.281 202.084 119.591 202.084H130.657C131.967 202.084 133.029 201.017 133.029 199.702V188.589C133.029 187.274 131.967 186.208 130.657 186.208Z" fill="#CCCCCC"/>
<path d="M149.629 186.208H138.562C137.252 186.208 136.191 187.274 136.191 188.589V199.702C136.191 201.017 137.252 202.084 138.562 202.084H149.629C150.938 202.084 152 201.017 152 199.702V188.589C152 187.274 150.938 186.208 149.629 186.208Z" fill="#CCCCCC"/>
<path d="M68.012 196.559L66.192 197.651C66.1116 197.702 66.0275 197.724 65.9398 197.716C65.8521 197.709 65.7753 197.68 65.7095 197.629C65.6437 197.578 65.5926 197.514 65.556 197.438C65.5195 197.362 65.5122 197.276 65.5341 197.181L66.0165 195.117L64.4048 193.73C64.3317 193.664 64.2861 193.59 64.268 193.506C64.2498 193.422 64.2552 193.34 64.2842 193.26C64.3131 193.18 64.357 193.115 64.4157 193.064C64.4745 193.012 64.5549 192.98 64.6569 192.965L66.784 192.78L67.6064 190.836C67.6429 190.748 67.6996 190.683 67.7765 190.639C67.8534 190.595 67.9319 190.573 68.012 190.573C68.0921 190.573 68.1706 190.595 68.2476 190.639C68.3245 190.683 68.3812 190.748 68.4177 190.836L69.24 192.78L71.3671 192.965C71.4694 192.98 71.5499 193.013 71.6083 193.064C71.6668 193.115 71.7107 193.18 71.7399 193.26C71.7691 193.34 71.7747 193.422 71.7566 193.506C71.7384 193.59 71.6927 193.665 71.6193 193.73L70.0075 195.117L70.49 197.181C70.5119 197.276 70.5046 197.361 70.468 197.438C70.4315 197.515 70.3803 197.578 70.3146 197.629C70.2488 197.68 70.172 197.709 70.0843 197.716C69.9966 197.724 69.9125 197.702 69.8321 197.651L68.012 196.559Z" fill="white"/>
<path d="M86.9834 196.559L85.1633 197.651C85.0829 197.702 84.9989 197.724 84.9112 197.716C84.8234 197.709 84.7467 197.68 84.6809 197.629C84.6151 197.578 84.5639 197.514 84.5274 197.438C84.4908 197.362 84.4836 197.276 84.5054 197.181L84.9879 195.117L83.3761 193.73C83.3031 193.664 83.2574 193.59 83.2393 193.506C83.2212 193.422 83.2266 193.34 83.2556 193.26C83.2845 193.18 83.3284 193.115 83.3871 193.064C83.4459 193.012 83.5263 192.98 83.6283 192.965L85.7554 192.78L86.5777 190.836C86.6143 190.748 86.671 190.683 86.7479 190.639C86.8248 190.595 86.9033 190.573 86.9834 190.573C87.0635 190.573 87.142 190.595 87.2189 190.639C87.2958 190.683 87.3525 190.748 87.3891 190.836L88.2114 192.78L90.3385 192.965C90.4408 192.98 90.5212 193.013 90.5797 193.064C90.6382 193.115 90.682 193.18 90.7113 193.26C90.7405 193.34 90.746 193.422 90.7279 193.506C90.7098 193.59 90.664 193.665 90.5907 193.73L88.9789 195.117L89.4613 197.181C89.4833 197.276 89.4759 197.361 89.4394 197.438C89.4029 197.515 89.3517 197.578 89.2859 197.629C89.2201 197.68 89.1434 197.709 89.0557 197.716C88.9679 197.724 88.8839 197.702 88.8035 197.651L86.9834 196.559Z" fill="white"/>
<path d="M105.955 196.559L104.135 197.651C104.054 197.702 103.97 197.724 103.882 197.716C103.795 197.709 103.718 197.68 103.652 197.629C103.586 197.578 103.535 197.514 103.499 197.438C103.462 197.362 103.455 197.276 103.477 197.181L103.959 195.117L102.348 193.73C102.274 193.664 102.229 193.59 102.21 193.506C102.193 193.422 102.198 193.34 102.227 193.26C102.256 193.18 102.3 193.115 102.358 193.064C102.417 193.012 102.498 192.98 102.6 192.965L104.727 192.78L105.549 190.836C105.586 190.748 105.642 190.683 105.719 190.639C105.796 190.595 105.875 190.573 105.955 190.573C106.035 190.573 106.113 190.595 106.19 190.639C106.267 190.683 106.324 190.748 106.36 190.836L107.183 192.78L109.31 192.965C109.412 192.98 109.493 193.013 109.551 193.064C109.61 193.115 109.654 193.18 109.683 193.26C109.712 193.34 109.718 193.422 109.699 193.506C109.681 193.59 109.635 193.665 109.562 193.73L107.95 195.117L108.433 197.181C108.454 197.276 108.447 197.361 108.411 197.438C108.374 197.515 108.323 197.578 108.257 197.629C108.192 197.68 108.115 197.709 108.027 197.716C107.939 197.724 107.855 197.702 107.775 197.651L105.955 196.559Z" fill="white"/>
<path d="M124.926 196.559L123.106 197.651C123.026 197.702 122.941 197.724 122.854 197.716C122.766 197.709 122.689 197.68 122.624 197.629C122.558 197.578 122.507 197.514 122.47 197.438C122.434 197.362 122.426 197.276 122.448 197.181L122.931 195.117L121.319 193.73C121.246 193.664 121.2 193.59 121.182 193.506C121.164 193.422 121.169 193.34 121.198 193.26C121.227 193.18 121.271 193.115 121.33 193.064C121.389 193.012 121.469 192.98 121.571 192.965L123.698 192.78L124.52 190.836C124.557 190.748 124.614 190.683 124.691 190.639C124.767 190.595 124.846 190.573 124.926 190.573C125.006 190.573 125.085 190.595 125.161 190.639C125.239 190.683 125.295 190.748 125.332 190.836L126.154 192.78L128.281 192.965C128.383 192.98 128.464 193.013 128.523 193.064C128.581 193.115 128.625 193.18 128.654 193.26C128.683 193.34 128.689 193.422 128.671 193.506C128.653 193.59 128.607 193.665 128.533 193.73L126.921 195.117L127.404 197.181C127.426 197.276 127.419 197.361 127.382 197.438C127.346 197.515 127.295 197.578 127.229 197.629C127.163 197.68 127.086 197.709 126.999 197.716C126.911 197.724 126.827 197.702 126.746 197.651L124.926 196.559Z" fill="white"/>
<path d="M143.898 196.559L142.078 197.651C141.997 197.702 141.913 197.724 141.825 197.716C141.738 197.709 141.661 197.68 141.595 197.629C141.529 197.578 141.478 197.514 141.442 197.438C141.405 197.362 141.398 197.276 141.42 197.181L141.902 195.117L140.29 193.73C140.217 193.664 140.171 193.59 140.153 193.506C140.135 193.422 140.141 193.34 140.17 193.26C140.199 193.18 140.242 193.115 140.301 193.064C140.36 193.012 140.441 192.98 140.542 192.965L142.67 192.78L143.492 190.836C143.529 190.748 143.585 190.683 143.662 190.639C143.739 190.595 143.817 190.573 143.898 190.573C143.977 190.573 144.056 190.595 144.133 190.639C144.21 190.683 144.266 190.748 144.303 190.836L145.126 192.78L147.252 192.965C147.355 192.98 147.435 193.013 147.494 193.064C147.552 193.115 147.596 193.18 147.626 193.26C147.654 193.34 147.66 193.422 147.642 193.506C147.624 193.59 147.578 193.665 147.505 193.73L145.893 195.117L146.375 197.181C146.397 197.276 146.39 197.361 146.354 197.438C146.317 197.515 146.266 197.578 146.2 197.629C146.134 197.68 146.058 197.709 145.97 197.716C145.882 197.724 145.798 197.702 145.718 197.651L143.898 196.559Z" fill="white"/>
<path d="M47.6575 94.2684H32.902C31.1558 94.2684 29.7402 95.6847 29.7402 97.4318V112.194C29.7402 113.941 31.1558 115.358 32.902 115.358H47.6575C49.4038 115.358 50.8194 113.941 50.8194 112.194V97.4318C50.8194 95.6847 49.4038 94.2684 47.6575 94.2684Z" fill="#87EF95"/>
<path d="M72.9527 94.2684H58.1972C56.4509 94.2684 55.0353 95.6847 55.0353 97.4318V112.194C55.0353 113.941 56.4509 115.358 58.1972 115.358H72.9527C74.6989 115.358 76.1146 113.941 76.1146 112.194V97.4318C76.1146 95.6847 74.6989 94.2684 72.9527 94.2684Z" fill="#87EF95"/>
<path d="M98.2478 94.2684H83.4923C81.7461 94.2684 80.3304 95.6847 80.3304 97.4318V112.194C80.3304 113.941 81.7461 115.358 83.4923 115.358H98.2478C99.9941 115.358 101.41 113.941 101.41 112.194V97.4318C101.41 95.6847 99.9941 94.2684 98.2478 94.2684Z" fill="#87EF95"/>
<path d="M123.543 94.2684H108.787C107.041 94.2684 105.626 95.6847 105.626 97.4318V112.194C105.626 113.941 107.041 115.358 108.787 115.358H123.543C125.289 115.358 126.705 113.941 126.705 112.194V97.4318C126.705 95.6847 125.289 94.2684 123.543 94.2684Z" fill="#87EF95"/>
<path d="M148.838 94.2684H134.083C132.336 94.2684 130.921 95.6847 130.921 97.4318V112.194C130.921 113.941 132.336 115.358 134.083 115.358H148.838C150.584 115.358 152 113.941 152 112.194V97.4318C152 95.6847 150.584 94.2684 148.838 94.2684Z" fill="#CCCCCC"/>
<path d="M40.016 108.018L37.5893 109.469C37.4821 109.537 37.37 109.566 37.2531 109.556C37.1361 109.546 37.0337 109.508 36.9461 109.44C36.8583 109.372 36.7901 109.288 36.7414 109.186C36.6926 109.085 36.6829 108.971 36.7121 108.845L37.3554 106.103L35.2064 104.261C35.1089 104.174 35.0481 104.074 35.0239 103.963C34.9998 103.852 35.007 103.743 35.0456 103.637C35.0842 103.531 35.1427 103.444 35.221 103.376C35.2993 103.308 35.4066 103.264 35.5426 103.245L38.3787 102.999L39.4751 100.416C39.5239 100.3 39.5995 100.213 39.702 100.155C39.8046 100.097 39.9092 100.068 40.016 100.068C40.1229 100.068 40.2275 100.097 40.3301 100.155C40.4326 100.213 40.5082 100.3 40.5569 100.416L41.6534 102.999L44.4895 103.245C44.6259 103.265 44.7332 103.308 44.8111 103.376C44.8891 103.443 44.9475 103.531 44.9865 103.637C45.0255 103.743 45.0329 103.852 45.0088 103.964C44.9846 104.075 44.9236 104.174 44.8258 104.261L42.6767 106.103L43.32 108.845C43.3492 108.971 43.3395 109.085 43.2907 109.186C43.242 109.288 43.1738 109.373 43.0861 109.44C42.9983 109.507 42.896 109.546 42.7791 109.556C42.6621 109.566 42.55 109.537 42.4428 109.469L40.016 108.018Z" fill="white"/>
<path d="M65.3112 108.018L62.8844 109.469C62.7772 109.537 62.6651 109.566 62.5482 109.556C62.4312 109.546 62.3289 109.508 62.2412 109.44C62.1534 109.372 62.0853 109.288 62.0365 109.186C61.9878 109.085 61.9781 108.971 62.0073 108.845L62.6505 106.103L60.5015 104.261C60.4041 104.174 60.3433 104.074 60.3191 103.963C60.2949 103.852 60.3021 103.743 60.3407 103.637C60.3793 103.531 60.4378 103.444 60.5161 103.376C60.5945 103.308 60.7017 103.264 60.8377 103.245L63.6738 102.999L64.7703 100.416C64.819 100.3 64.8947 100.213 64.9971 100.155C65.0997 100.097 65.2044 100.068 65.3112 100.068C65.418 100.068 65.5227 100.097 65.6252 100.155C65.7278 100.213 65.8034 100.3 65.8521 100.416L66.9485 102.999L69.7846 103.245C69.9211 103.265 70.0283 103.308 70.1062 103.376C70.1842 103.443 70.2427 103.531 70.2817 103.637C70.3207 103.743 70.328 103.852 70.3039 103.964C70.2797 104.075 70.2187 104.174 70.1209 104.261L67.9719 106.103L68.6151 108.845C68.6443 108.971 68.6346 109.085 68.5858 109.186C68.5371 109.288 68.4689 109.373 68.3812 109.44C68.2935 109.507 68.1911 109.546 68.0742 109.556C67.9573 109.566 67.8452 109.537 67.738 109.469L65.3112 108.018Z" fill="white"/>
<path d="M90.6066 108.018L88.1798 109.469C88.0723 109.537 87.9601 109.566 87.8431 109.556C87.7266 109.546 87.6239 109.508 87.5364 109.44C87.4484 109.372 87.3804 109.288 87.3319 109.186C87.2829 109.085 87.2734 108.971 87.3024 108.845L87.9458 106.103L85.7968 104.261C85.6993 104.174 85.6382 104.074 85.614 103.963C85.5902 103.852 85.5971 103.743 85.6361 103.637C85.6746 103.531 85.733 103.444 85.811 103.376C85.8896 103.308 85.9971 103.264 86.133 103.245L88.9692 102.999L90.0654 100.416C90.1144 100.3 90.1897 100.213 90.2925 100.155C90.3947 100.097 90.4996 100.068 90.6066 100.068C90.713 100.068 90.8179 100.097 90.9201 100.155C91.0229 100.213 91.0983 100.3 91.1473 100.416L92.2439 102.999L95.0796 103.245C95.2161 103.265 95.3236 103.308 95.4016 103.376C95.4796 103.443 95.5381 103.531 95.5771 103.637C95.6155 103.743 95.6234 103.852 95.5992 103.964C95.575 104.075 95.5138 104.174 95.4158 104.261L93.2668 106.103L93.9102 108.845C93.9392 108.971 93.9297 109.085 93.8812 109.186C93.8322 109.288 93.7643 109.373 93.6763 109.44C93.5888 109.507 93.4865 109.546 93.3695 109.556C93.2526 109.566 93.1403 109.537 93.0333 109.469L90.6066 108.018Z" fill="white"/>
<path d="M115.902 108.018L113.475 109.469C113.367 109.537 113.255 109.566 113.138 109.556C113.022 109.546 112.919 109.508 112.832 109.44C112.744 109.372 112.676 109.288 112.627 109.186C112.578 109.085 112.569 108.971 112.598 108.845L113.241 106.103L111.092 104.261C110.994 104.174 110.933 104.074 110.909 103.963C110.885 103.852 110.892 103.743 110.931 103.637C110.97 103.531 111.028 103.444 111.106 103.376C111.185 103.308 111.292 103.264 111.428 103.245L114.264 102.999L115.361 100.416C115.41 100.3 115.485 100.213 115.588 100.155C115.69 100.097 115.795 100.068 115.902 100.068C116.008 100.068 116.113 100.097 116.215 100.155C116.318 100.213 116.393 100.3 116.442 100.416L117.539 102.999L120.375 103.245C120.511 103.265 120.619 103.308 120.697 103.376C120.775 103.443 120.833 103.531 120.872 103.637C120.911 103.743 120.919 103.852 120.894 103.964C120.87 104.075 120.809 104.174 120.711 104.261L118.562 106.103L119.205 108.845C119.234 108.971 119.225 109.085 119.176 109.186C119.127 109.288 119.059 109.373 118.971 109.44C118.884 109.507 118.782 109.546 118.665 109.556C118.548 109.566 118.435 109.537 118.328 109.469L115.902 108.018Z" fill="white"/>
<path d="M141.197 108.018L138.77 109.469C138.663 109.537 138.55 109.566 138.433 109.556C138.317 109.546 138.214 109.508 138.127 109.44C138.039 109.372 137.971 109.288 137.922 109.186C137.873 109.085 137.864 108.971 137.893 108.845L138.536 106.103L136.387 104.261C136.29 104.174 136.228 104.074 136.204 103.963C136.181 103.852 136.187 103.743 136.226 103.637C136.265 103.531 136.323 103.444 136.401 103.376C136.48 103.308 136.587 103.264 136.723 103.245L139.56 102.999L140.656 100.416C140.705 100.3 140.78 100.213 140.883 100.155C140.985 100.097 141.09 100.068 141.197 100.068C141.303 100.068 141.408 100.097 141.51 100.155C141.613 100.213 141.689 100.3 141.738 100.416L142.834 102.999L145.67 103.245C145.806 103.265 145.914 103.308 145.992 103.376C146.07 103.443 146.128 103.531 146.167 103.637C146.206 103.743 146.214 103.852 146.189 103.964C146.165 104.075 146.104 104.174 146.006 104.261L143.857 106.103L144.501 108.845C144.529 108.971 144.52 109.085 144.472 109.186C144.423 109.288 144.355 109.373 144.267 109.44C144.179 109.507 144.077 109.546 143.96 109.556C143.843 109.566 143.731 109.537 143.624 109.469L141.197 108.018Z" fill="white"/>
<path d="M64.2391 157.062H51.8285C50.3597 157.062 49.169 158.255 49.169 159.728V172.168C49.169 173.64 50.3597 174.834 51.8285 174.834H64.2391C65.7079 174.834 66.8985 173.64 66.8985 172.168V159.728C66.8985 158.255 65.7079 157.062 64.2391 157.062Z" fill="#FFA62E"/>
<path d="M85.5145 157.062H73.1038C71.6351 157.062 70.4444 158.255 70.4444 159.728V172.168C70.4444 173.64 71.6351 174.834 73.1038 174.834H85.5145C86.9832 174.834 88.1739 173.64 88.1739 172.168V159.728C88.1739 158.255 86.9832 157.062 85.5145 157.062Z" fill="#FFA62E"/>
<path d="M106.79 157.062H94.3792C92.9104 157.062 91.7198 158.255 91.7198 159.728V172.168C91.7198 173.64 92.9104 174.834 94.3792 174.834H106.79C108.259 174.834 109.449 173.64 109.449 172.168V159.728C109.449 158.255 108.259 157.062 106.79 157.062Z" fill="#CCCCCC"/>
<path d="M128.065 157.062H115.655C114.186 157.062 112.995 158.255 112.995 159.728V172.168C112.995 173.64 114.186 174.834 115.655 174.834H128.065C129.534 174.834 130.725 173.64 130.725 172.168V159.728C130.725 158.255 129.534 157.062 128.065 157.062Z" fill="#CCCCCC"/>
<path d="M149.341 157.062H136.93C135.461 157.062 134.271 158.255 134.271 159.728V172.168C134.271 173.64 135.461 174.834 136.93 174.834H149.341C150.809 174.834 152 173.64 152 172.168V159.728C152 158.255 150.809 157.062 149.341 157.062Z" fill="#CCCCCC"/>
<path d="M57.8119 168.649L55.7708 169.871C55.6807 169.928 55.5864 169.953 55.488 169.945C55.3896 169.937 55.3036 169.904 55.2298 169.847C55.156 169.79 55.0987 169.719 55.0577 169.633C55.0167 169.548 55.0085 169.452 55.0331 169.346L55.5741 167.035L53.7666 165.482C53.6846 165.409 53.6335 165.325 53.6132 165.231C53.5928 165.138 53.5989 165.046 53.6314 164.957C53.6638 164.867 53.713 164.794 53.7789 164.737C53.8448 164.679 53.935 164.643 54.0494 164.627L56.4348 164.419L57.357 162.243C57.398 162.145 57.4616 162.071 57.5478 162.022C57.6341 161.974 57.7221 161.949 57.8119 161.949C57.9018 161.949 57.9898 161.974 58.0761 162.022C58.1623 162.071 58.2259 162.145 58.2669 162.243L59.1891 164.419L61.5745 164.627C61.6892 164.643 61.7794 164.68 61.845 164.737C61.9106 164.794 61.9597 164.867 61.9925 164.957C62.0253 165.046 62.0316 165.138 62.0113 165.232C61.9909 165.326 61.9396 165.409 61.8573 165.482L60.0498 167.035L60.5908 169.346C60.6154 169.452 60.6072 169.548 60.5662 169.633C60.5253 169.719 60.4679 169.79 60.3941 169.847C60.3203 169.904 60.2342 169.936 60.1359 169.945C60.0375 169.953 59.9432 169.929 59.8531 169.871L57.8119 168.649Z" fill="white"/>
<path d="M79.0873 168.649L77.0462 169.871C76.956 169.928 76.8618 169.953 76.7634 169.945C76.665 169.937 76.5789 169.904 76.5052 169.847C76.4314 169.79 76.374 169.719 76.333 169.633C76.292 169.548 76.2839 169.452 76.3084 169.346L76.8494 167.035L75.042 165.482C74.96 165.409 74.9089 165.325 74.8885 165.231C74.8682 165.138 74.8743 165.046 74.9067 164.957C74.9392 164.867 74.9884 164.794 75.0542 164.737C75.1202 164.679 75.2104 164.643 75.3248 164.627L77.7102 164.419L78.6324 162.243C78.6734 162.145 78.737 162.071 78.8232 162.022C78.9094 161.974 78.9975 161.949 79.0873 161.949C79.1771 161.949 79.2652 161.974 79.3514 162.022C79.4377 162.071 79.5013 162.145 79.5422 162.243L80.4644 164.419L82.8499 164.627C82.9646 164.643 83.0548 164.68 83.1204 164.737C83.186 164.794 83.2351 164.867 83.2679 164.957C83.3007 165.046 83.3069 165.138 83.2866 165.232C83.2663 165.326 83.215 165.409 83.1327 165.482L81.3252 167.035L81.8662 169.346C81.8908 169.452 81.8826 169.548 81.8416 169.633C81.8006 169.719 81.7432 169.79 81.6695 169.847C81.5957 169.904 81.5096 169.936 81.4112 169.945C81.3129 169.953 81.2186 169.929 81.1285 169.871L79.0873 168.649Z" fill="white"/>
<path d="M100.363 168.649L98.3218 169.871C98.2314 169.928 98.137 169.953 98.0386 169.945C97.9406 169.937 97.8542 169.904 97.7806 169.847C97.7066 169.79 97.6494 169.719 97.6086 169.633C97.5674 169.548 97.5594 169.452 97.5838 169.346L98.125 167.035L96.3175 165.482C96.2355 165.409 96.1841 165.325 96.1637 165.231C96.1437 165.138 96.1495 165.046 96.1823 164.957C96.2146 164.867 96.2638 164.794 96.3294 164.737C96.3955 164.679 96.4859 164.643 96.6003 164.627L98.9858 164.419L99.9077 162.243C99.9489 162.145 100.012 162.071 100.099 162.022C100.185 161.974 100.273 161.949 100.363 161.949C100.452 161.949 100.541 161.974 100.627 162.022C100.713 162.071 100.776 162.145 100.818 162.243L101.74 164.419L104.125 164.627C104.24 164.643 104.33 164.68 104.396 164.737C104.462 164.794 104.511 164.867 104.544 164.957C104.576 165.046 104.583 165.138 104.562 165.232C104.542 165.326 104.49 165.409 104.408 165.482L102.6 167.035L103.142 169.346C103.166 169.452 103.158 169.548 103.117 169.633C103.076 169.719 103.019 169.79 102.945 169.847C102.871 169.904 102.785 169.936 102.687 169.945C102.588 169.953 102.494 169.929 102.404 169.871L100.363 168.649Z" fill="white"/>
<path d="M121.638 168.649L119.597 169.871C119.507 169.928 119.412 169.953 119.314 169.945C119.216 169.937 119.13 169.904 119.056 169.847C118.982 169.79 118.925 169.719 118.884 169.633C118.843 169.548 118.835 169.452 118.859 169.346L119.4 167.035L117.593 165.482C117.511 165.409 117.459 165.325 117.439 165.231C117.419 165.138 117.425 165.046 117.458 164.957C117.49 164.867 117.539 164.794 117.605 164.737C117.671 164.679 117.761 164.643 117.876 164.627L120.261 164.419L121.183 162.243C121.224 162.145 121.288 162.071 121.374 162.022C121.46 161.974 121.548 161.949 121.638 161.949C121.728 161.949 121.816 161.974 121.902 162.022C121.988 162.071 122.052 162.145 122.093 162.243L123.015 164.419L125.4 164.627C125.515 164.643 125.606 164.68 125.671 164.737C125.737 164.794 125.786 164.867 125.819 164.957C125.851 165.046 125.858 165.138 125.837 165.232C125.817 165.326 125.766 165.409 125.683 165.482L123.876 167.035L124.417 169.346C124.441 169.452 124.433 169.548 124.393 169.633C124.351 169.719 124.294 169.79 124.22 169.847C124.147 169.904 124.061 169.936 123.962 169.945C123.864 169.953 123.769 169.929 123.679 169.871L121.638 168.649Z" fill="white"/>
<path d="M142.914 168.649L140.873 169.871C140.782 169.928 140.688 169.953 140.589 169.945C140.491 169.937 140.405 169.904 140.331 169.847C140.257 169.79 140.2 169.719 140.159 169.633C140.118 169.548 140.11 169.452 140.135 169.346L140.676 167.035L138.868 165.482C138.786 165.409 138.735 165.325 138.714 165.231C138.694 165.138 138.7 165.046 138.733 164.957C138.765 164.867 138.815 164.794 138.88 164.737C138.946 164.679 139.037 164.643 139.151 164.627L141.537 164.419L142.458 162.243C142.5 162.145 142.563 162.071 142.649 162.022C142.735 161.974 142.824 161.949 142.914 161.949C143.003 161.949 143.091 161.974 143.177 162.022C143.264 162.071 143.327 162.145 143.368 162.243L144.291 164.419L146.676 164.627C146.791 164.643 146.881 164.68 146.947 164.737C147.012 164.794 147.061 164.867 147.094 164.957C147.127 165.046 147.133 165.138 147.113 165.232C147.092 165.326 147.041 165.409 146.959 165.482L145.151 167.035L145.692 169.346C145.717 169.452 145.709 169.548 145.668 169.633C145.627 169.719 145.57 169.79 145.495 169.847C145.422 169.904 145.336 169.936 145.238 169.945C145.139 169.953 145.045 169.929 144.955 169.871L142.914 168.649Z" fill="white"/>
<path d="M34.5075 58.9619H18.0934C16.1509 58.9619 14.5761 60.5373 14.5761 62.4807V78.9018C14.5761 80.8452 16.1509 82.4206 18.0934 82.4206H34.5075C36.4501 82.4206 38.0248 80.8452 38.0248 78.9018V62.4807C38.0248 60.5373 36.4501 58.9619 34.5075 58.9619Z" fill="#008116"/>
<path d="M62.6459 58.9619H46.2318C44.2893 58.9619 42.7145 60.5373 42.7145 62.4807V78.9018C42.7145 80.8452 44.2893 82.4206 46.2318 82.4206H62.6459C64.5884 82.4206 66.1632 80.8452 66.1632 78.9018V62.4807C66.1632 60.5373 64.5884 58.9619 62.6459 58.9619Z" fill="#008116"/>
<path d="M90.7843 58.9619H74.3702C72.4277 58.9619 70.8529 60.5373 70.8529 62.4807V78.9018C70.8529 80.8452 72.4277 82.4206 74.3702 82.4206H90.7843C92.7268 82.4206 94.3016 80.8452 94.3016 78.9018V62.4807C94.3016 60.5373 92.7268 58.9619 90.7843 58.9619Z" fill="#008116"/>
<path d="M118.923 58.9619H102.509C100.566 58.9619 98.9913 60.5373 98.9913 62.4807V78.9018C98.9913 80.8452 100.566 82.4206 102.509 82.4206H118.923C120.865 82.4206 122.44 80.8452 122.44 78.9018V62.4807C122.44 60.5373 120.865 58.9619 118.923 58.9619Z" fill="#008116"/>
<path d="M147.061 58.9619H130.647C128.704 58.9619 127.13 60.5373 127.13 62.4807V78.9018C127.13 80.8452 128.704 82.4206 130.647 82.4206H147.061C149.004 82.4206 150.578 80.8452 150.578 78.9018V62.4807C150.578 60.5373 149.004 58.9619 147.061 58.9619Z" fill="#008116"/>
<path d="M26.0071 74.2567L23.3075 75.8705C23.1883 75.9458 23.0636 75.9781 22.9335 75.9673C22.8034 75.9566 22.6896 75.9135 22.592 75.8382C22.4944 75.7629 22.4185 75.6688 22.3643 75.5561C22.3101 75.4433 22.2993 75.3168 22.3318 75.1766L23.0473 72.1265L20.6568 70.0769C20.5484 69.9801 20.4807 69.8697 20.4538 69.7458C20.427 69.6218 20.435 69.5009 20.4779 69.383C20.5208 69.2651 20.5859 69.1683 20.673 69.0925C20.7602 69.0168 20.8795 68.9683 21.0308 68.9473L24.1857 68.6729L25.4054 65.8004C25.4596 65.6713 25.5437 65.5744 25.6577 65.5099C25.7718 65.4453 25.8882 65.4131 26.0071 65.4131C26.1259 65.4131 26.2423 65.4453 26.3564 65.5099C26.4705 65.5744 26.5546 65.6713 26.6088 65.8004L27.8284 68.6729L30.9833 68.9473C31.1351 68.9688 31.2544 69.0172 31.3411 69.0925C31.4279 69.1679 31.4929 69.2647 31.5363 69.383C31.5796 69.5014 31.5879 69.6225 31.561 69.7464C31.5341 69.8704 31.4662 69.9805 31.3574 70.0769L28.9668 72.1265L29.6824 75.1766C29.7149 75.3164 29.704 75.4429 29.6498 75.5561C29.5957 75.6693 29.5197 75.7633 29.4222 75.8382C29.3246 75.9131 29.2107 75.9561 29.0807 75.9673C28.9506 75.9785 28.8259 75.9462 28.7067 75.8705L26.0071 74.2567Z" fill="white"/>
<path d="M54.1455 74.2567L51.4459 75.8705C51.3267 75.9458 51.202 75.9781 51.0719 75.9673C50.9418 75.9566 50.8279 75.9135 50.7304 75.8382C50.6328 75.7629 50.5569 75.6688 50.5027 75.5561C50.4485 75.4433 50.4377 75.3168 50.4702 75.1766L51.1857 72.1265L48.7952 70.0769C48.6868 69.9801 48.6191 69.8697 48.5922 69.7458C48.5653 69.6218 48.5734 69.5009 48.6163 69.383C48.6592 69.2651 48.7243 69.1683 48.8114 69.0925C48.8986 69.0168 49.0179 68.9683 49.1692 68.9473L52.3241 68.6729L53.5438 65.8004C53.598 65.6713 53.6821 65.5744 53.7961 65.5099C53.9102 65.4453 54.0266 65.4131 54.1455 65.4131C54.2643 65.4131 54.3807 65.4453 54.4948 65.5099C54.6089 65.5744 54.693 65.6713 54.7472 65.8004L55.9668 68.6729L59.1217 68.9473C59.2735 68.9688 59.3928 69.0172 59.4795 69.0925C59.5663 69.1679 59.6313 69.2647 59.6747 69.383C59.718 69.5014 59.7262 69.6225 59.6994 69.7464C59.6725 69.8704 59.6046 69.9805 59.4958 70.0769L57.1052 72.1265L57.8207 75.1766C57.8533 75.3164 57.8424 75.4429 57.7882 75.5561C57.734 75.6693 57.6581 75.7633 57.5606 75.8382C57.463 75.9131 57.3491 75.9561 57.2191 75.9673C57.089 75.9785 56.9643 75.9462 56.845 75.8705L54.1455 74.2567Z" fill="white"/>
<path d="M82.2841 74.2567L79.5846 75.8705C79.465 75.9458 79.3402 75.9781 79.21 75.9673C79.0805 75.9566 78.9662 75.9135 78.8688 75.8382C78.7709 75.7629 78.6953 75.6688 78.6414 75.5561C78.5869 75.4433 78.5763 75.3168 78.6086 75.1766L79.3243 72.1265L76.9337 70.0769C76.8253 69.9801 76.7573 69.8697 76.7303 69.7458C76.7039 69.6218 76.7116 69.5009 76.7549 69.383C76.7977 69.2651 76.8628 69.1683 76.9496 69.0925C77.0369 69.0168 77.1565 68.9683 77.3077 68.9473L80.4628 68.6729L81.6821 65.8004C81.7366 65.6713 81.8204 65.5744 81.9348 65.5099C82.0485 65.4453 82.1651 65.4131 82.2841 65.4131C82.4026 65.4131 82.5192 65.4453 82.6329 65.5099C82.7472 65.5744 82.8311 65.6713 82.8856 65.8004L84.1055 68.6729L87.2599 68.9473C87.4118 68.9688 87.5314 69.0172 87.6181 69.0925C87.7049 69.1679 87.7699 69.2647 87.8133 69.383C87.8561 69.5014 87.8649 69.6225 87.838 69.7464C87.811 69.8704 87.743 69.9805 87.6339 70.0769L85.2434 72.1265L85.9591 75.1766C85.9914 75.3164 85.9808 75.4429 85.9269 75.5561C85.8724 75.6693 85.7967 75.7633 85.6989 75.8382C85.6015 75.9131 85.4878 75.9561 85.3577 75.9673C85.2275 75.9785 85.1027 75.9462 84.9837 75.8705L82.2841 74.2567Z" fill="white"/>
<path d="M110.423 74.2567L107.723 75.8705C107.603 75.9458 107.479 75.9781 107.348 75.9673C107.219 75.9566 107.105 75.9135 107.007 75.8382C106.909 75.7629 106.834 75.6688 106.78 75.5561C106.725 75.4433 106.715 75.3168 106.747 75.1766L107.463 72.1265L105.072 70.0769C104.964 69.9801 104.896 69.8697 104.869 69.7458C104.842 69.6218 104.85 69.5009 104.893 69.383C104.936 69.2651 105.001 69.1683 105.088 69.0925C105.175 69.0168 105.295 68.9683 105.446 68.9473L108.601 68.6729L109.82 65.8004C109.875 65.6713 109.959 65.5744 110.073 65.5099C110.187 65.4453 110.304 65.4131 110.423 65.4131C110.541 65.4131 110.658 65.4453 110.771 65.5099C110.886 65.5744 110.969 65.6713 111.024 65.8004L112.244 68.6729L115.398 68.9473C115.55 68.9688 115.67 69.0172 115.757 69.0925C115.843 69.1679 115.908 69.2647 115.952 69.383C115.995 69.5014 116.003 69.6225 115.976 69.7464C115.949 69.8704 115.881 69.9805 115.772 70.0769L113.382 72.1265L114.098 75.1766C114.13 75.3164 114.119 75.4429 114.065 75.5561C114.011 75.6693 113.935 75.7633 113.837 75.8382C113.74 75.9131 113.626 75.9561 113.496 75.9673C113.366 75.9785 113.241 75.9462 113.122 75.8705L110.423 74.2567Z" fill="white"/>
<path d="M138.561 74.2567L135.861 75.8705C135.742 75.9458 135.617 75.9781 135.487 75.9673C135.357 75.9566 135.243 75.9135 135.146 75.8382C135.048 75.7629 134.972 75.6688 134.918 75.5561C134.864 75.4433 134.853 75.3168 134.885 75.1766L135.601 72.1265L133.211 70.0769C133.102 69.9801 133.034 69.8697 133.007 69.7458C132.981 69.6218 132.988 69.5009 133.032 69.383C133.075 69.2651 133.14 69.1683 133.226 69.0925C133.314 69.0168 133.433 68.9683 133.585 68.9473L136.74 68.6729L137.959 65.8004C138.013 65.6713 138.097 65.5744 138.212 65.5099C138.325 65.4453 138.442 65.4131 138.561 65.4131C138.679 65.4131 138.796 65.4453 138.91 65.5099C139.024 65.5744 139.108 65.6713 139.162 65.8004L140.382 68.6729L143.537 68.9473C143.689 68.9688 143.808 69.0172 143.895 69.0925C143.982 69.1679 144.047 69.2647 144.09 69.383C144.133 69.5014 144.142 69.6225 144.115 69.7464C144.088 69.8704 144.02 69.9805 143.911 70.0769L141.52 72.1265L142.236 75.1766C142.268 75.3164 142.258 75.4429 142.204 75.5561C142.149 75.6693 142.074 75.7633 141.976 75.8382C141.878 75.9131 141.765 75.9561 141.634 75.9673C141.504 75.9785 141.379 75.9462 141.26 75.8705L138.561 74.2567Z" fill="white"/>
</svg>
