<svg width="44" height="50" viewBox="0 0 44 50" fill="none" xmlns="http://www.w3.org/2000/svg">
<g clip-path="url(#clip0_93_7)">
<path d="M38.4612 9.81853C38.4266 9.56853 38.2068 9.43017 38.0251 9.41493C36.6855 9.31465 35.3459 9.21516 34.0062 9.11647C34.0062 9.11647 31.3409 6.48034 31.0484 6.18856C30.7557 5.89695 30.184 5.98565 29.9621 6.05072C29.9295 6.06031 29.3798 6.22931 28.4706 6.50962C27.5803 3.95722 26.009 1.61168 23.2447 1.61168C23.1684 1.61168 23.0899 1.61476 23.0113 1.61921C22.2252 0.583423 21.2513 0.133423 20.4102 0.133423C13.9709 0.133423 10.8945 8.15311 9.92991 12.2285C7.42775 13.0009 5.65022 13.55 5.42317 13.6211C4.02651 14.0576 3.98234 14.1014 3.79895 15.4125C3.66094 16.4052 0.00653076 44.5608 0.00653076 44.5608L28.4824 49.8762L43.9117 46.5509C43.9117 46.5509 38.4952 10.0685 38.4612 9.81853ZM26.8967 6.99455L24.4872 7.73753C24.4881 7.56835 24.4889 7.40192 24.4889 7.2199C24.4889 5.63359 24.2679 4.35637 23.9133 3.34387C25.3376 3.52195 26.2862 5.1365 26.8967 6.99455ZM22.1464 3.65842C22.5424 4.64695 22.7999 6.06561 22.7999 7.98C22.7999 8.07794 22.799 8.1675 22.7982 8.25808C21.2312 8.74164 19.5284 9.26664 17.8219 9.79335C18.7801 6.10911 20.5762 4.32966 22.1464 3.65842ZM20.2333 1.85414C20.5112 1.85414 20.7912 1.94815 21.0592 2.13188C18.9955 3.09935 16.7834 5.53599 15.8493 10.4019L11.9157 11.6156C13.0099 7.90414 15.6081 1.85414 20.2333 1.85414Z" fill="#95BF46"/>
<path d="M38.0251 9.41492C36.6855 9.31464 35.3459 9.21515 34.0062 9.11646C34.0062 9.11646 31.3409 6.48033 31.0484 6.18855C30.9389 6.07999 30.7912 6.02434 30.6369 6.00037L28.4838 49.8759L43.9117 46.5509C43.9117 46.5509 38.4952 10.0685 38.4612 9.81852C38.4266 9.56852 38.2068 9.43016 38.0251 9.41492Z" fill="#5E8E3E"/>
<path d="M23.2447 17.9083L21.3422 23.5463C21.3422 23.5463 19.6754 22.66 17.6321 22.66C14.6367 22.66 14.4859 24.5328 14.4859 25.0047C14.4859 27.5797 21.2234 28.5664 21.2234 34.5979C21.2234 39.3433 18.2024 42.3989 14.129 42.3989C9.24084 42.3989 6.74109 39.3681 6.74109 39.3681L8.04992 35.0599C8.04992 35.0599 10.6194 37.2577 12.7877 37.2577C14.2044 37.2577 14.7807 36.1463 14.7807 35.3344C14.7807 31.9755 9.25321 31.8256 9.25321 26.3063C9.25321 21.6609 12.6 17.1655 19.3557 17.1655C21.9587 17.1655 23.2447 17.9083 23.2447 17.9083Z" fill="white"/>
</g>
<defs>
<clipPath id="clip0_93_7">
<rect width="44" height="50" fill="white"/>
</clipPath>
</defs>
</svg>
