<svg width="50" height="50" viewBox="0 0 50 50" fill="none" xmlns="http://www.w3.org/2000/svg">
<g clip-path="url(#clip0_93_13)">
<path d="M49.5627 6.43094C50.1023 5.46805 50.3166 4.71482 49.1654 4.84187H41.9154C39.9105 4.72957 37.1023 7.40242 34.3676 10.6021C33.2435 7.55047 31.7829 5.02693 28.7066 5.04051H20.3945C20.3945 5.04051 17.7726 5.00096 15.6858 10.5122C14.9391 8.88094 10.5472 5.36492 9.09647 4.84266C7.64569 4.32029 1.6577 4.45506 0.600574 4.74256C-0.456555 5.02986 0.203309 5.93436 0.203309 5.93436C2.06395 8.0531 7.80907 22.0387 14.8889 25.4043L5.16913 43.4751C4.45897 44.4468 4.63573 45.1272 5.71532 45.511L14.4054 45.3621C16.3838 45.0946 17.785 44.0978 18.7752 42.5812L25.0707 33.0926L32.282 43.5248C33.333 44.6646 35.2586 45.1513 36.1056 45.1635H44.0011C45.1691 45.098 45.4483 44.909 45.1929 43.8724L35.2388 25.4082C43.0576 21.3281 46.7289 9.96219 49.5627 6.43094ZM28.7849 9.60105L31.5938 9.574C30.9055 10.4794 29.9437 10.9054 28.7039 10.8434L28.7849 9.60105ZM30.0843 11.6601C31.2178 11.8727 31.5373 12.3859 31.2776 14.6721C31.018 16.9582 28.3909 16.1439 28.2679 14.8533C28.145 13.5628 28.9507 11.4474 30.0843 11.6601ZM27.0746 16.0739C26.9848 17.0265 26.9041 18.0439 24.972 18.2145C22.7999 18.4061 22.6798 16.2444 22.6798 16.2444C24.6688 17.6272 25.8257 17.3542 27.0746 16.0739ZM21.0619 9.60105L21.143 10.8434C19.903 10.9054 18.9414 10.4794 18.253 9.574L21.0619 9.60105ZM21.5789 14.8533C21.4559 16.1439 18.8288 16.9582 18.5691 14.6721C18.3095 12.3859 18.629 11.8727 19.7625 11.6601C20.8961 11.4474 21.7018 13.5628 21.5789 14.8533ZM32.605 24.986C32.605 24.986 41.8423 41.0705 42.3128 42.4821C39.3333 43.6076 34.62 43.3819 32.8323 41.5942C31.0447 39.8066 25.4293 29.4719 25.4293 29.4719L17.215 41.5942C16.2756 43.0331 15.3773 43.0867 13.7072 43.3217L7.22128 43.3187L12.9877 32.8705C19.41 23.7336 25.0362 21.4852 31.6977 19.1653C36.3891 17.5315 40.0887 16.2341 44.4453 12.1361C42.5584 15.8604 37.241 22.5668 32.605 24.986Z" fill="black"/>
</g>
<defs>
<clipPath id="clip0_93_13">
<rect width="50" height="50" fill="white"/>
</clipPath>
</defs>
</svg>
