<svg width="50" height="50" viewBox="0 0 50 50" fill="none" xmlns="http://www.w3.org/2000/svg">
<g clip-path="url(#clip0_93_2)">
<path d="M39.4781 23.9156C39.4781 21.2656 38.525 19.4312 37.7094 18.0031L37.4594 17.5969C36.4687 16.0031 35.6031 14.6031 35.6031 12.9719C35.6031 11.0031 37.0969 9.16561 39.2031 9.16561C39.2656 9.16561 39.326 9.16874 39.3844 9.17499L39.4812 9.18436C35.5314 5.5572 30.3625 3.54721 25 3.55311C21.4461 3.55269 17.9478 4.43581 14.82 6.12302C11.6921 7.81023 9.03277 10.2486 7.08123 13.2187C7.58123 13.2344 8.05935 13.2469 8.46248 13.2469C10.7031 13.2469 14.175 12.975 14.175 12.975C15.3312 12.9062 15.4687 14.6031 14.3125 14.7406C14.3125 14.7406 13.1531 14.8781 11.8594 14.9437L19.6719 38.175L24.3594 24.0937L21.0156 14.9406C19.8625 14.8719 18.7687 14.7375 18.7687 14.7375C17.6125 14.6687 17.75 12.9 18.9031 12.9687C18.9031 12.9687 22.4469 13.2406 24.5531 13.2406C26.7969 13.2406 30.2719 12.9687 30.2719 12.9687C31.4281 12.9 31.5625 14.6 30.4062 14.7375C30.4062 14.7375 29.2437 14.8719 27.9531 14.9406L35.7031 37.9937L37.8406 30.8469L38.0094 30.3062C38.8531 27.6187 39.475 25.6344 39.475 23.9125L39.4781 23.9156ZM3.5531 25C3.55142 29.0276 4.6844 32.9743 6.82222 36.3877C8.96005 39.8012 12.0162 42.5433 15.6406 44.3L5.40623 16.2687C4.17736 19.0151 3.54572 21.9912 3.5531 25Z" fill="black"/>
<path d="M18.9406 45.5719L25.3781 26.875L31.9687 44.9375C32.0104 45.0416 32.0614 45.1396 32.1219 45.2312C27.8734 46.7289 23.2608 46.8481 18.9406 45.5719ZM43.8156 14.7094C43.9114 15.3927 43.9604 16.1281 43.9625 16.9156C43.9625 19.0906 43.5562 21.5375 42.3312 24.5969L35.7812 43.5344C40.6147 40.7261 44.1601 36.1409 45.6615 30.7563C47.1629 25.3716 46.5017 19.6135 43.8187 14.7094H43.8156Z" fill="black"/>
<path fill-rule="evenodd" clip-rule="evenodd" d="M0 25C0 11.2156 11.2156 0 25 0C38.7844 0 50 11.2156 50 25C50 38.7844 38.7812 50 25 50C11.2188 50 0 38.7844 0 25ZM1.14688 25C1.14688 38.1531 11.8469 48.8531 25 48.8531C38.1531 48.8531 48.85 38.1531 48.85 25C48.85 11.8437 38.15 1.14688 25 1.14688C11.8437 1.14688 1.14688 11.8437 1.14688 25Z" fill="black"/>
</g>
<defs>
<clipPath id="clip0_93_2">
<rect width="50" height="50" fill="white"/>
</clipPath>
</defs>
</svg>
