<svg width="203" height="32" viewBox="0 0 203 32" fill="none" xmlns="http://www.w3.org/2000/svg">
<mask id="mask0_398_2" style="mask-type:luminance" maskUnits="userSpaceOnUse" x="0" y="0" width="140" height="30">
<path d="M140 0H0V30H140V0Z" fill="white"/>
</mask>
<g mask="url(#mask0_398_2)">
<mask id="mask1_398_2" style="mask-type:luminance" maskUnits="userSpaceOnUse" x="0" y="0" width="31" height="30">
<path d="M0 0H30.8271V29.7251H0V0Z" fill="white"/>
</mask>
<g mask="url(#mask1_398_2)">
<path d="M15.5587 22.8226L25.1807 29.8258L21.4955 18.5152L31.1175 11.6719H19.321L15.5587 0.00585938L11.7964 11.6719H0L9.622 18.5152L5.9545 29.8258L15.5587 22.8226Z" fill="#04DA8D"/>
</g>
<path d="M44.9821 12.2952C45.7997 12.6448 46.4752 13.1958 46.9965 13.9542C47.5298 14.7126 47.8023 15.702 47.8023 16.9166C47.8023 18.1016 47.5416 19.091 47.0202 19.8791C46.4989 20.6552 45.8353 21.2062 45.0295 21.538C44.2059 21.8876 42.9025 22.0594 41.1191 22.0594H38.6069V28.1976H35.3364V11.916H41.0006C42.0433 11.916 42.8728 11.9397 43.489 11.9871C44.1171 12.0345 44.6147 12.1412 44.9821 12.2952ZM44.4133 16.964C44.4133 15.9864 43.9393 15.2932 42.9913 14.8785C42.6418 14.7363 41.9071 14.6652 40.7873 14.6652H38.6069V19.3103H40.7873C41.9071 19.3103 42.7899 19.1562 43.4416 18.8363C44.0874 18.5223 44.4133 17.9001 44.4133 16.964Z" fill="#1C1C1C"/>
<path d="M53.5375 22.4623C53.5375 23.3037 53.5494 23.908 53.5849 24.2872C53.6323 24.6664 53.7093 24.9685 53.8219 25.1878C53.9641 25.4603 54.1656 25.6795 54.4381 25.8514C54.7225 26.0113 55.0661 26.0883 55.4809 26.0883C56.0319 26.0883 56.5296 25.9402 56.9739 25.6381C57.4124 25.324 57.6909 24.9448 57.8034 24.5005C57.9456 24.0739 58.0167 23.1378 58.0167 21.6802V16.4189H61.1214V28.1976H58.23V26.4201H58.2063C57.762 27.0837 57.1872 27.5992 56.4763 27.9606C55.7771 28.3043 55.0602 28.482 54.3196 28.482C53.656 28.482 53.0221 28.3457 52.4236 28.0791C51.8193 27.7947 51.3631 27.3918 51.0491 26.8704C50.8239 26.509 50.658 26.112 50.5514 25.6855C50.4566 25.247 50.4092 24.6842 50.4092 24.0028V16.4189H53.5375V22.4623Z" fill="#1C1C1C"/>
<path d="M68.9723 16.1348C70.4713 16.1348 71.5852 16.3362 72.314 16.7273C73.0368 17.1064 73.4989 17.616 73.6885 18.244C73.8781 18.878 73.9611 19.7075 73.9492 20.7325L73.9255 24.1689C73.9078 25.2472 73.9492 26.0293 74.044 26.5152C74.1388 27.0069 74.3284 27.5698 74.6128 28.1978H71.5556C71.4726 28.026 71.3304 27.5935 71.129 26.8943C70.5721 27.4513 69.9973 27.8542 69.3989 28.103C68.7946 28.3519 68.1547 28.4822 67.4793 28.4822C66.3061 28.4822 65.3582 28.1623 64.6353 27.5105C63.9243 26.8647 63.5688 26.0293 63.5688 24.9984C63.5688 24.1334 63.7821 23.4461 64.2087 22.9365C64.6353 22.4329 65.1567 22.0715 65.7729 21.8463C66.4009 21.6094 67.1475 21.4079 68.0007 21.2302C69.2923 20.9932 70.258 20.7562 70.892 20.5192V19.9978C70.892 19.4942 70.732 19.1209 70.418 18.8839C70.1158 18.6469 69.5648 18.5284 68.759 18.5284C68.1429 18.5284 67.6807 18.6588 67.3845 18.9076C67.0823 19.1624 66.8512 19.5238 66.6972 19.9978L63.8769 19.4764C64.1732 18.327 64.7183 17.4797 65.5122 16.9405C66.3002 16.4073 67.4556 16.1348 68.9723 16.1348ZM68.9249 23.0313L68.4035 23.1498C67.2482 23.3868 66.6735 23.8845 66.6735 24.6429C66.6735 25.105 66.8275 25.4902 67.1475 25.8042C67.4793 26.1063 67.894 26.2545 68.4035 26.2545C68.8124 26.2545 69.2212 26.1537 69.6359 25.9464C70.0447 25.7449 70.3588 25.4605 70.5839 25.0932C70.7854 24.7792 70.892 24.2341 70.892 23.4579V22.5336C70.2877 22.7114 69.6359 22.8773 68.9249 23.0313Z" fill="#1C1C1C"/>
<path d="M83.7959 16.1348C84.4891 16.1348 85.0994 16.2533 85.6208 16.4903C86.1422 16.7273 86.551 17.0057 86.8531 17.3197C87.2146 17.7167 87.4516 18.1848 87.5641 18.718C87.6708 19.2572 87.73 19.8556 87.73 20.5192V28.1978H84.6254V21.7516C84.6254 20.6614 84.495 19.8556 84.2462 19.3342C84.0092 18.801 83.4937 18.5284 82.7057 18.5284C81.9592 18.5284 81.3845 18.7417 80.9757 19.1683C80.5609 19.5949 80.318 20.0867 80.241 20.6377C80.2054 21.005 80.1758 21.3368 80.1462 21.6331C80.1284 21.9174 80.1225 22.2433 80.1225 22.6047V28.1978H76.9941V16.4192H79.9566V18.1492C80.2884 17.6456 80.7861 17.1894 81.4496 16.7747C82.1132 16.3481 82.8953 16.1348 83.7959 16.1348Z" fill="#1C1C1C"/>
<path d="M101.719 11.916V28.1976H98.8041V26.4675H98.7567C98.2649 27.2259 97.6784 27.7591 97.0029 28.0554C96.3216 28.3398 95.7054 28.482 95.1544 28.482C94.2834 28.482 93.4717 28.245 92.7133 27.771C91.9668 27.297 91.3624 26.5979 90.8885 25.6617C90.4263 24.7138 90.2012 23.5643 90.2012 22.2016C90.2012 20.8744 90.4204 19.7606 90.8648 18.86C91.321 17.9475 91.9194 17.2662 92.6659 16.8218C93.4243 16.3656 94.2597 16.1345 95.1781 16.1345C96.5052 16.1345 97.6487 16.6796 98.6145 17.7698V11.916H101.719ZM93.4243 22.3201C93.4243 23.6354 93.6672 24.5716 94.159 25.1403C94.6448 25.7091 95.2255 25.9935 95.8891 25.9935C96.2979 25.9935 96.7067 25.8928 97.1214 25.6854C97.548 25.4662 97.9094 25.0633 98.2116 24.4768C98.496 23.9435 98.6382 23.1377 98.6382 22.0594C98.6382 20.9218 98.3894 20.0568 97.9035 19.4525C97.4117 18.8363 96.7719 18.5282 95.9839 18.5282H95.8654C94.9944 18.5756 94.3723 18.9666 93.9931 19.6895C93.6139 20.4004 93.4243 21.2773 93.4243 22.3201Z" fill="#1C1C1C"/>
<path d="M109.309 16.1348C111.187 16.1348 112.586 16.751 113.504 17.9833C114.434 19.2039 114.902 20.9398 114.902 23.1972H107.081C107.111 23.9912 107.342 24.6666 107.769 25.2354C108.207 25.8042 108.841 26.0886 109.665 26.0886C110.168 26.0886 110.589 25.9582 110.921 25.6857C111.253 25.4191 111.49 25.0102 111.632 24.4533L114.76 24.9747C114.363 26.13 113.723 27.0069 112.84 27.6053C111.952 28.1919 110.879 28.4822 109.617 28.4822C107.721 28.4822 106.282 27.9134 105.304 26.7758C104.842 26.2426 104.498 25.5672 104.261 24.7614C104.024 23.9556 103.906 23.1617 103.906 22.3677C103.906 21.2953 104.095 20.2822 104.475 19.3342C104.866 18.3862 105.47 17.6219 106.276 17.0353C107.081 16.4369 108.089 16.1348 109.309 16.1348ZM107.153 21.2776H111.821C111.804 20.3296 111.561 19.6364 111.087 19.192C110.625 18.7536 110.091 18.5284 109.475 18.5284C108.746 18.5284 108.178 18.7891 107.769 19.3105C107.354 19.8319 107.153 20.4896 107.153 21.2776Z" fill="#1C1C1C"/>
<path d="M120.46 20.5426L124.11 16.4189H127.973L123.944 20.7085L128.233 28.1976H124.868L121.906 22.8889L120.46 24.4294V28.1976H117.332V11.916H120.46V20.5426Z" fill="#1C1C1C"/>
<path d="M134.407 16.1348C135.876 16.1348 137.026 16.3836 137.867 16.8695C138.702 17.3612 139.277 18.1611 139.597 19.2631L136.658 19.8082C136.516 19.3224 136.261 18.955 135.9 18.718C135.55 18.481 135.059 18.3625 134.431 18.3625C133.009 18.3625 132.298 18.6943 132.298 19.3579C132.298 19.6778 132.523 19.9267 132.985 20.1163C133.459 20.3059 134.128 20.4955 134.999 20.6851C136.09 20.9398 136.972 21.1946 137.654 21.4435C138.329 21.6805 138.892 22.0537 139.336 22.5573C139.775 23.0491 140 23.6949 140 24.5007C140 25.1821 139.81 25.8219 139.431 26.4204C139.064 27.0247 138.483 27.5224 137.677 27.9134C136.872 28.2926 135.853 28.4822 134.62 28.4822C133.246 28.4822 132.025 28.1919 130.97 27.6053C129.91 27.0069 129.246 26.0826 128.98 24.8325L132.108 24.3585C132.392 25.6086 133.228 26.2308 134.62 26.2308C135.171 26.2308 135.687 26.136 136.161 25.9464C136.635 25.7568 136.872 25.425 136.872 24.951C136.872 24.637 136.759 24.4177 136.54 24.2874C136.315 24.1452 135.971 24.0267 135.497 23.9319C134.04 23.6001 132.914 23.3039 132.108 23.0313C131.314 22.7647 130.668 22.3796 130.165 21.87C129.655 21.3487 129.406 20.6495 129.406 19.7608C129.406 18.5284 129.868 17.6219 130.805 17.0353C131.753 16.4369 132.949 16.1348 134.407 16.1348Z" fill="#1C1C1C"/>
</g>
<path d="M148.094 28V16.5469H150.406V28H148.094ZM148.18 15.8906V13.8125H150.336V15.8906H148.18ZM151.828 25.6328L154.031 25.2969C154.125 25.724 154.315 26.0495 154.602 26.2734C154.888 26.4922 155.289 26.6016 155.805 26.6016C156.372 26.6016 156.799 26.4974 157.086 26.2891C157.279 26.1432 157.375 25.9479 157.375 25.7031C157.375 25.5365 157.323 25.3984 157.219 25.2891C157.109 25.1849 156.865 25.0885 156.484 25C154.714 24.6094 153.591 24.2526 153.117 23.9297C152.461 23.4818 152.133 22.8594 152.133 22.0625C152.133 21.3438 152.417 20.7396 152.984 20.25C153.552 19.7604 154.432 19.5156 155.625 19.5156C156.76 19.5156 157.604 19.7005 158.156 20.0703C158.708 20.4401 159.089 20.987 159.297 21.7109L157.227 22.0938C157.138 21.7708 156.969 21.5234 156.719 21.3516C156.474 21.1797 156.122 21.0938 155.664 21.0938C155.086 21.0938 154.672 21.1745 154.422 21.3359C154.255 21.4505 154.172 21.599 154.172 21.7812C154.172 21.9375 154.245 22.0703 154.391 22.1797C154.589 22.3255 155.271 22.5312 156.438 22.7969C157.609 23.0625 158.427 23.388 158.891 23.7734C159.349 24.1641 159.578 24.7083 159.578 25.4062C159.578 26.1667 159.26 26.8203 158.625 27.3672C157.99 27.9141 157.049 28.1875 155.805 28.1875C154.674 28.1875 153.779 27.9583 153.117 27.5C152.461 27.0417 152.031 26.4193 151.828 25.6328ZM153.922 31.1484V30.2266C154.458 30.2839 154.951 30.3125 155.398 30.3125C155.862 30.3125 156.206 30.2292 156.43 30.0625C156.602 29.9375 156.688 29.776 156.688 29.5781C156.688 29.401 156.607 29.2474 156.445 29.1172C156.284 28.987 156.034 28.9219 155.695 28.9219C155.362 28.9219 155.021 28.974 154.672 29.0781L154.875 28.3047C155.281 28.1641 155.719 28.0938 156.188 28.0938C156.839 28.0938 157.333 28.237 157.672 28.5234C158.01 28.8099 158.18 29.1589 158.18 29.5703C158.18 30.0286 157.992 30.401 157.617 30.6875C157.112 31.0781 156.388 31.2734 155.445 31.2734C154.773 31.2734 154.266 31.2318 153.922 31.1484ZM161.508 28V16.5469H163.703V28H161.508ZM170.766 25.3594L172.953 25.7266C172.672 26.5286 172.227 27.1406 171.617 27.5625C171.013 27.9792 170.255 28.1875 169.344 28.1875C167.901 28.1875 166.833 27.7161 166.141 26.7734C165.594 26.0182 165.32 25.0651 165.32 23.9141C165.32 22.5391 165.68 21.4635 166.398 20.6875C167.117 19.9062 168.026 19.5156 169.125 19.5156C170.359 19.5156 171.333 19.9245 172.047 20.7422C172.76 21.5547 173.102 22.8021 173.07 24.4844H167.57C167.586 25.1354 167.763 25.6432 168.102 26.0078C168.44 26.3672 168.862 26.5469 169.367 26.5469C169.711 26.5469 170 26.4531 170.234 26.2656C170.469 26.0781 170.646 25.776 170.766 25.3594ZM170.891 23.1406C170.875 22.5052 170.711 22.0234 170.398 21.6953C170.086 21.362 169.706 21.1953 169.258 21.1953C168.779 21.1953 168.383 21.3698 168.07 21.7188C167.758 22.0677 167.604 22.5417 167.609 23.1406H170.891ZM178.672 19.7031V21.4531H177.172V24.7969C177.172 25.474 177.185 25.8698 177.211 25.9844C177.242 26.0938 177.307 26.1849 177.406 26.2578C177.51 26.3307 177.635 26.3672 177.781 26.3672C177.984 26.3672 178.279 26.2969 178.664 26.1562L178.852 27.8594C178.341 28.0781 177.763 28.1875 177.117 28.1875C176.721 28.1875 176.365 28.1224 176.047 27.9922C175.729 27.8568 175.495 27.6849 175.344 27.4766C175.198 27.263 175.096 26.9766 175.039 26.6172C174.992 26.362 174.969 25.8464 174.969 25.0703V21.4531H173.961V19.7031H174.969V18.0547L177.172 16.7734V19.7031H178.672ZM180.031 19.7031H182.055V20.8359C182.779 19.9557 183.641 19.5156 184.641 19.5156C185.172 19.5156 185.633 19.625 186.023 19.8438C186.414 20.0625 186.734 20.3932 186.984 20.8359C187.349 20.3932 187.742 20.0625 188.164 19.8438C188.586 19.625 189.036 19.5156 189.516 19.5156C190.125 19.5156 190.641 19.6406 191.062 19.8906C191.484 20.1354 191.799 20.4974 192.008 20.9766C192.159 21.3307 192.234 21.9036 192.234 22.6953V28H190.039V23.2578C190.039 22.4349 189.964 21.9036 189.812 21.6641C189.609 21.3516 189.297 21.1953 188.875 21.1953C188.568 21.1953 188.279 21.2891 188.008 21.4766C187.737 21.6641 187.542 21.9401 187.422 22.3047C187.302 22.6641 187.242 23.2344 187.242 24.0156V28H185.047V23.4531C185.047 22.6458 185.008 22.125 184.93 21.8906C184.852 21.6562 184.729 21.4818 184.562 21.3672C184.401 21.2526 184.18 21.1953 183.898 21.1953C183.56 21.1953 183.255 21.2865 182.984 21.4688C182.714 21.651 182.518 21.9141 182.398 22.2578C182.284 22.6016 182.227 23.1719 182.227 23.9688V28H180.031V19.7031ZM199.234 25.3594L201.422 25.7266C201.141 26.5286 200.695 27.1406 200.086 27.5625C199.482 27.9792 198.724 28.1875 197.812 28.1875C196.37 28.1875 195.302 27.7161 194.609 26.7734C194.062 26.0182 193.789 25.0651 193.789 23.9141C193.789 22.5391 194.148 21.4635 194.867 20.6875C195.586 19.9062 196.495 19.5156 197.594 19.5156C198.828 19.5156 199.802 19.9245 200.516 20.7422C201.229 21.5547 201.57 22.8021 201.539 24.4844H196.039C196.055 25.1354 196.232 25.6432 196.57 26.0078C196.909 26.3672 197.331 26.5469 197.836 26.5469C198.18 26.5469 198.469 26.4531 198.703 26.2656C198.938 26.0781 199.115 25.776 199.234 25.3594ZM199.359 23.1406C199.344 22.5052 199.18 22.0234 198.867 21.6953C198.555 21.362 198.174 21.1953 197.727 21.1953C197.247 21.1953 196.852 21.3698 196.539 21.7188C196.227 22.0677 196.073 22.5417 196.078 23.1406H199.359Z" fill="#1C1C1C"/>
</svg>
