<svg width="144" height="17" viewBox="0 0 144 17" fill="none" xmlns="http://www.w3.org/2000/svg">
<g clip-path="url(#clip0_97_12)">
<path d="M9.6457 0.3792C10.4633 0.7288 11.1388 1.2798 11.6601 2.0382C12.1934 2.7966 12.4659 3.786 12.4659 5.0006C12.4659 6.1856 12.2052 7.175 11.6838 7.9631C11.1625 8.7392 10.4989 9.2902 9.6931 9.622C8.8695 9.9716 7.5661 10.1434 5.7827 10.1434H3.2705V16.2816H0V0H5.6642C6.7069 0 7.5364 0.0236993 8.1526 0.0710993C8.7807 0.118499 9.2783 0.2252 9.6457 0.3792ZM9.0769 5.048C9.0769 4.0704 8.6029 3.3772 7.6549 2.9625C7.3054 2.8203 6.5707 2.7492 5.4509 2.7492H3.2705V7.3943H5.4509C6.5707 7.3943 7.4535 7.2402 8.1052 6.9203C8.751 6.6063 9.0769 5.9841 9.0769 5.048Z" fill="white"/>
<path d="M18.2013 10.5463C18.2013 11.3877 18.2132 11.992 18.2487 12.3712C18.2961 12.7504 18.3731 13.0525 18.4857 13.2718C18.6279 13.5443 18.8294 13.7635 19.1019 13.9354C19.3863 14.0953 19.7299 14.1723 20.1447 14.1723C20.6957 14.1723 21.1934 14.0242 21.6377 13.7221C22.0762 13.408 22.3547 13.0288 22.4672 12.5845C22.6094 12.1579 22.6805 11.2218 22.6805 9.76423V4.50293H25.7852V16.2816H22.8938V14.5041H22.8701C22.4258 15.1677 21.851 15.6832 21.1401 16.0446C20.4409 16.3883 19.724 16.566 18.9834 16.566C18.3198 16.566 17.6859 16.4297 17.0874 16.1631C16.4831 15.8787 16.0269 15.4758 15.7129 14.9544C15.4877 14.593 15.3218 14.196 15.2152 13.7695C15.1204 13.331 15.073 12.7682 15.073 12.0868V4.50293H18.2013V10.5463Z" fill="white"/>
<path d="M33.6362 4.21875C35.1352 4.21875 36.2491 4.42015 36.9779 4.81125C37.7007 5.19035 38.1628 5.69995 38.3524 6.32795C38.542 6.96195 38.625 7.79145 38.6131 8.81645L38.5894 12.2528C38.5717 13.3311 38.6131 14.1132 38.7079 14.5991C38.8027 15.0908 38.9923 15.6537 39.2767 16.2817H36.2195C36.1365 16.1099 35.9943 15.6775 35.7929 14.9783C35.236 15.5353 34.6612 15.9382 34.0628 16.187C33.4585 16.4359 32.8186 16.5662 32.1432 16.5662C30.97 16.5662 30.0221 16.2462 29.2992 15.5944C28.5882 14.9487 28.2327 14.1132 28.2327 13.0823C28.2327 12.2173 28.446 11.5301 28.8726 11.0205C29.2992 10.5169 29.8206 10.1555 30.4368 9.93025C31.0648 9.69335 31.8114 9.49185 32.6646 9.31415C33.9562 9.07715 34.9219 8.84015 35.5559 8.60315V8.08175C35.5559 7.57815 35.3959 7.20485 35.0819 6.96785C34.7797 6.73085 34.2287 6.61235 33.4229 6.61235C32.8068 6.61235 32.3446 6.74275 32.0484 6.99155C31.7462 7.24635 31.5151 7.60775 31.3611 8.08175L28.5408 7.56035C28.8371 6.41095 29.3822 5.56365 30.1761 5.02445C30.9641 4.49125 32.1195 4.21875 33.6362 4.21875ZM33.5888 11.1152L33.0674 11.2337C31.9121 11.4707 31.3374 11.9685 31.3374 12.7269C31.3374 13.189 31.4914 13.5741 31.8114 13.8881C32.1432 14.1902 32.5579 14.3384 33.0674 14.3384C33.4763 14.3384 33.8851 14.2376 34.2998 14.0303C34.7086 13.8288 35.0227 13.5445 35.2478 13.1772C35.4493 12.8632 35.5559 12.318 35.5559 11.5418V10.6175C34.9516 10.7953 34.2998 10.9612 33.5888 11.1152Z" fill="white"/>
<path d="M48.4598 4.21875C49.153 4.21875 49.7633 4.33725 50.2847 4.57425C50.8061 4.81125 51.2149 5.08965 51.517 5.40365C51.8785 5.80065 52.1155 6.26875 52.228 6.80195C52.3347 7.34115 52.3939 7.93955 52.3939 8.60315V16.2817H49.2893V9.83555C49.2893 8.74535 49.1589 7.93955 48.9101 7.41815C48.6731 6.88495 48.1576 6.61235 47.3696 6.61235C46.6231 6.61235 46.0484 6.82565 45.6396 7.25225C45.2248 7.67885 44.9819 8.17065 44.9049 8.72165C44.8693 9.08895 44.8397 9.42075 44.8101 9.71705C44.7923 10.0014 44.7864 10.3273 44.7864 10.6887V16.2817H41.658V4.50315H44.6205V6.23315C44.9523 5.72955 45.45 5.27335 46.1135 4.85865C46.7771 4.43205 47.5592 4.21875 48.4598 4.21875Z" fill="white"/>
<path d="M66.3828 0V16.2816H63.4679V14.5515H63.4205C62.9287 15.3099 62.3422 15.8431 61.6667 16.1394C60.9854 16.4238 60.3692 16.566 59.8182 16.566C58.9472 16.566 58.1355 16.329 57.3771 15.855C56.6306 15.381 56.0262 14.6819 55.5523 13.7457C55.0901 12.7978 54.865 11.6483 54.865 10.2856C54.865 8.9584 55.0842 7.8446 55.5286 6.944C55.9848 6.0315 56.5832 5.3502 57.3297 4.9058C58.0881 4.4496 58.9235 4.2185 59.8419 4.2185C61.169 4.2185 62.3125 4.7636 63.2783 5.8538V0H66.3828ZM58.0881 10.4041C58.0881 11.7194 58.331 12.6556 58.8228 13.2243C59.3086 13.7931 59.8893 14.0775 60.5529 14.0775C60.9617 14.0775 61.3705 13.9768 61.7852 13.7694C62.2118 13.5502 62.5732 13.1473 62.8754 12.5608C63.1598 12.0275 63.302 11.2217 63.302 10.1434C63.302 9.0058 63.0532 8.1408 62.5673 7.5365C62.0755 6.9203 61.4357 6.6122 60.6477 6.6122H60.5292C59.6582 6.6596 59.0361 7.0506 58.6569 7.7735C58.2777 8.4844 58.0881 9.3613 58.0881 10.4041Z" fill="white"/>
<path d="M73.9728 4.21875C75.8508 4.21875 77.2498 4.83495 78.1678 6.06725C79.0978 7.28785 79.5658 9.02375 79.5658 11.2812H71.7448C71.7748 12.0752 72.0058 12.7505 72.4328 13.3193C72.8708 13.8881 73.5048 14.1726 74.3288 14.1726C74.8318 14.1726 75.2528 14.0421 75.5848 13.7696C75.9168 13.503 76.1538 13.0942 76.2958 12.5373L79.4238 13.0587C79.0268 14.214 78.3868 15.0909 77.5038 15.6893C76.6158 16.2759 75.5428 16.5662 74.2808 16.5662C72.3848 16.5662 70.9458 15.9974 69.9678 14.8598C69.5058 14.3266 69.1618 13.6512 68.9248 12.8454C68.6878 12.0396 68.5698 11.2457 68.5698 10.4517C68.5698 9.37925 68.7588 8.36615 69.1388 7.41815C69.5298 6.47015 70.1338 5.70585 70.9398 5.11925C71.7448 4.52085 72.7528 4.21875 73.9728 4.21875ZM71.8168 9.36155H76.4848C76.4678 8.41355 76.2248 7.72035 75.7508 7.27595C75.2888 6.83755 74.7548 6.61235 74.1388 6.61235C73.4098 6.61235 72.8418 6.87305 72.4328 7.39445C72.0178 7.91585 71.8168 8.57355 71.8168 9.36155Z" fill="white"/>
<path d="M85.1239 8.6266L88.7739 4.5029H92.6369L88.6079 8.7925L92.8969 16.2816H89.5319L86.5699 10.9729L85.1239 12.5134V16.2816H81.9958V0H85.1239V8.6266Z" fill="white"/>
<path d="M99.0708 4.21875C100.54 4.21875 101.69 4.46755 102.531 4.95345C103.366 5.44515 103.941 6.24505 104.261 7.34705L101.322 7.89215C101.18 7.40635 100.925 7.03895 100.564 6.80195C100.214 6.56495 99.7228 6.44645 99.0948 6.44645C97.6728 6.44645 96.9618 6.77825 96.9618 7.44185C96.9618 7.76175 97.1868 8.01065 97.6488 8.20025C98.1228 8.38985 98.7918 8.57945 99.6628 8.76905C100.754 9.02375 101.636 9.27855 102.318 9.52745C102.993 9.76445 103.556 10.1377 104 10.6413C104.439 11.1331 104.664 11.7789 104.664 12.5847C104.664 13.2661 104.474 13.9059 104.095 14.5044C103.728 15.1087 103.147 15.6064 102.341 15.9974C101.536 16.3766 100.517 16.5662 99.2838 16.5662C97.9098 16.5662 96.6888 16.2759 95.6338 15.6893C94.5738 15.0909 93.9098 14.1666 93.6438 12.9165L96.7718 12.4424C97.0558 13.6925 97.8918 14.3148 99.2838 14.3148C99.8348 14.3148 100.351 14.2199 100.825 14.0303C101.299 13.8407 101.536 13.509 101.536 13.035C101.536 12.721 101.423 12.5016 101.204 12.3713C100.979 12.2291 100.635 12.1107 100.161 12.0159C98.7038 11.6841 97.5778 11.3878 96.7718 11.1152C95.9778 10.8486 95.3318 10.4636 94.8288 9.95395C94.3188 9.43265 94.0698 8.73345 94.0698 7.84475C94.0698 6.61235 94.5318 5.70585 95.4688 5.11925C96.4168 4.52085 97.6128 4.21875 99.0708 4.21875Z" fill="white"/>
</g>
<path d="M109.415 14H108.307L111.511 5.27273H112.602L115.807 14H114.699L112.091 6.65341H112.023L109.415 14ZM109.824 10.5909H114.29V11.5284H109.824V10.5909ZM119.501 14.1364C118.956 14.1364 118.474 13.9986 118.057 13.723C117.639 13.4446 117.313 13.0526 117.077 12.5469C116.841 12.0384 116.723 11.4375 116.723 10.7443C116.723 10.0568 116.841 9.46023 117.077 8.95455C117.313 8.44886 117.641 8.05824 118.061 7.78267C118.482 7.5071 118.967 7.36932 119.518 7.36932C119.945 7.36932 120.281 7.44034 120.528 7.58239C120.778 7.72159 120.969 7.88068 121.099 8.05966C121.233 8.2358 121.337 8.38068 121.411 8.49432H121.496V5.27273H122.501V14H121.53V12.9943H121.411C121.337 13.1136 121.232 13.2642 121.095 13.446C120.959 13.625 120.764 13.7855 120.511 13.9276C120.259 14.0668 119.922 14.1364 119.501 14.1364ZM119.638 13.233C120.041 13.233 120.382 13.1278 120.661 12.9176C120.939 12.7045 121.151 12.4105 121.295 12.0355C121.44 11.6577 121.513 11.2216 121.513 10.7273C121.513 10.2386 121.442 9.81108 121.3 9.4446C121.158 9.07528 120.947 8.78835 120.669 8.58381C120.391 8.37642 120.047 8.27273 119.638 8.27273C119.212 8.27273 118.857 8.3821 118.572 8.60085C118.291 8.81676 118.08 9.1108 117.938 9.48295C117.798 9.85227 117.729 10.267 117.729 10.7273C117.729 11.1932 117.8 11.6165 117.942 11.9972C118.087 12.375 118.3 12.6761 118.581 12.9006C118.865 13.1222 119.217 13.233 119.638 13.233ZM124.483 14V7.45455H125.455V8.47727H125.54C125.676 8.12784 125.896 7.85653 126.2 7.66335C126.504 7.46733 126.869 7.36932 127.295 7.36932C127.727 7.36932 128.087 7.46733 128.374 7.66335C128.663 7.85653 128.889 8.12784 129.051 8.47727H129.119C129.287 8.1392 129.538 7.87074 129.874 7.67188C130.209 7.47017 130.611 7.36932 131.08 7.36932C131.665 7.36932 132.143 7.55256 132.516 7.91903C132.888 8.28267 133.074 8.84943 133.074 9.61932V14H132.068V9.61932C132.068 9.13636 131.936 8.79119 131.672 8.58381C131.408 8.37642 131.097 8.27273 130.739 8.27273C130.278 8.27273 129.922 8.41193 129.669 8.69034C129.416 8.96591 129.29 9.31534 129.29 9.73864V14H128.267V9.51705C128.267 9.14489 128.146 8.84517 127.905 8.6179C127.663 8.38778 127.352 8.27273 126.972 8.27273C126.71 8.27273 126.466 8.34233 126.239 8.48153C126.014 8.62074 125.832 8.81392 125.693 9.06108C125.557 9.3054 125.489 9.58807 125.489 9.90909V14H124.483ZM134.913 14V7.45455H135.918V14H134.913ZM135.424 6.36364C135.228 6.36364 135.059 6.29688 134.917 6.16335C134.778 6.02983 134.708 5.86932 134.708 5.68182C134.708 5.49432 134.778 5.33381 134.917 5.20028C135.059 5.06676 135.228 5 135.424 5C135.62 5 135.788 5.06676 135.927 5.20028C136.069 5.33381 136.14 5.49432 136.14 5.68182C136.14 5.86932 136.069 6.02983 135.927 6.16335C135.788 6.29688 135.62 6.36364 135.424 6.36364ZM138.766 10.0625V14H137.76V7.45455H138.732V8.47727H138.817C138.971 8.14489 139.203 7.87784 139.516 7.67614C139.828 7.47159 140.232 7.36932 140.726 7.36932C141.169 7.36932 141.557 7.46023 141.89 7.64205C142.222 7.82102 142.48 8.09375 142.665 8.46023C142.85 8.82386 142.942 9.28409 142.942 9.84091V14H141.936V9.90909C141.936 9.39489 141.803 8.99432 141.536 8.70739C141.269 8.41761 140.902 8.27273 140.436 8.27273C140.115 8.27273 139.828 8.34233 139.576 8.48153C139.326 8.62074 139.128 8.82386 138.983 9.09091C138.838 9.35795 138.766 9.68182 138.766 10.0625Z" fill="white"/>
<defs>
<clipPath id="clip0_97_12">
<rect width="105" height="17" fill="white"/>
</clipPath>
</defs>
</svg>
